<svg width="85" height="1345" viewBox="0 0 85 1345" fill="none" xmlns="http://www.w3.org/2000/svg">
<rect width="85" height="21" transform="translate(0 251)" fill="#1456FF"/>
<rect x="0.5" y="251.5" width="84" height="20" stroke="black"/>
<path d="M40.0321 257.273V266H38.9753V258.381H38.9242L36.7935 259.795V258.722L38.9753 257.273H40.0321ZM45.2694 266.119C44.7694 266.119 44.3191 266.02 43.9185 265.821C43.5179 265.622 43.1969 265.349 42.9554 265.003C42.714 264.656 42.5819 264.261 42.5591 263.818H43.5819C43.6216 264.213 43.8006 264.54 44.1188 264.798C44.4398 265.054 44.8233 265.182 45.2694 265.182C45.6273 265.182 45.9455 265.098 46.2239 264.93C46.5051 264.763 46.7253 264.533 46.8844 264.24C47.0463 263.945 47.1273 263.611 47.1273 263.239C47.1273 262.858 47.0435 262.518 46.8759 262.22C46.7111 261.919 46.4838 261.682 46.1941 261.509C45.9043 261.335 45.5733 261.247 45.2012 261.244C44.9341 261.241 44.66 261.283 44.3787 261.368C44.0975 261.45 43.8659 261.557 43.6841 261.688L42.6955 261.568L43.2239 257.273H47.758V258.21H44.1103L43.8034 260.784H43.8546C44.0336 260.642 44.258 260.524 44.5279 260.43C44.7978 260.337 45.079 260.29 45.3716 260.29C45.9057 260.29 46.3816 260.418 46.7992 260.673C47.2196 260.926 47.5492 261.273 47.7878 261.713C48.0293 262.153 48.15 262.656 48.15 263.222C48.15 263.778 48.025 264.276 47.775 264.713C47.5279 265.148 47.187 265.491 46.7523 265.744C46.3176 265.994 45.8233 266.119 45.2694 266.119Z" fill="white"/>
<rect width="85" height="22" transform="translate(0 271)" fill="#1456FF"/>
<rect x="0.5" y="271.5" width="84" height="21" stroke="black"/>
<path d="M39.9384 277.416V286.143H38.8816V278.524H38.8304L36.6998 279.938V278.864L38.8816 277.416H39.9384ZM45.3461 286.262C44.9881 286.256 44.6301 286.188 44.2722 286.058C43.9142 285.927 43.5875 285.707 43.2921 285.397C42.9966 285.085 42.7594 284.663 42.5804 284.131C42.4015 283.597 42.312 282.927 42.312 282.12C42.312 281.347 42.3844 280.663 42.5293 280.066C42.6742 279.467 42.8844 278.962 43.16 278.553C43.4355 278.141 43.7679 277.829 44.1571 277.616C44.5492 277.403 44.9909 277.296 45.4824 277.296C45.9711 277.296 46.4057 277.394 46.7864 277.59C47.1699 277.783 47.4824 278.053 47.7239 278.4C47.9654 278.747 48.1216 279.146 48.1926 279.597H47.1529C47.0563 279.205 46.8688 278.88 46.5904 278.622C46.312 278.363 45.9426 278.234 45.4824 278.234C44.8063 278.234 44.2736 278.528 43.8844 279.116C43.498 279.704 43.3034 280.529 43.3006 281.592H43.3688C43.5279 281.35 43.7168 281.144 43.9355 280.974C44.1571 280.801 44.4015 280.667 44.6685 280.573C44.9355 280.48 45.2182 280.433 45.5165 280.433C46.0165 280.433 46.4739 280.558 46.8887 280.808C47.3034 281.055 47.6358 281.397 47.8858 281.835C48.1358 282.269 48.2608 282.768 48.2608 283.33C48.2608 283.87 48.1401 284.364 47.8986 284.813C47.6571 285.259 47.3176 285.614 46.8801 285.879C46.4455 286.14 45.9341 286.268 45.3461 286.262ZM45.3461 285.325C45.704 285.325 46.025 285.235 46.3091 285.056C46.5961 284.877 46.8219 284.637 46.9867 284.336C47.1543 284.035 47.2381 283.7 47.2381 283.33C47.2381 282.97 47.1571 282.641 46.9952 282.346C46.8361 282.048 46.6159 281.81 46.3347 281.634C46.0563 281.458 45.7381 281.37 45.3801 281.37C45.1103 281.37 44.8588 281.424 44.6259 281.532C44.3929 281.637 44.1884 281.782 44.0123 281.967C43.839 282.151 43.7026 282.363 43.6032 282.602C43.5037 282.837 43.454 283.086 43.454 283.347C43.454 283.694 43.535 284.018 43.6969 284.319C43.8617 284.62 44.0861 284.863 44.3702 285.048C44.6571 285.232 44.9824 285.325 45.3461 285.325Z" fill="white"/>
<rect width="85" height="23" transform="translate(0 292)" fill="#1456FF"/>
<rect x="0.5" y="292.5" width="84" height="22" stroke="black"/>
<path d="M40.2548 299.558V308.286H39.198V300.666H39.1468L37.0162 302.081V301.007L39.198 299.558H40.2548ZM43.0375 308.286L46.9409 300.564V300.496H42.4409V299.558H48.0318V300.547L44.1454 308.286H43.0375Z" fill="white"/>
<rect width="85" height="23" transform="translate(0 314)" fill="#5288F2"/>
<rect x="0.5" y="314.5" width="84" height="22" stroke="black"/>
<path d="M39.9853 321.558V330.286H38.9284V322.666H38.8773L36.7466 324.081V323.007L38.9284 321.558H39.9853ZM45.2907 330.405C44.7054 330.405 44.1884 330.301 43.7395 330.094C43.2935 329.884 42.9455 329.595 42.6955 329.229C42.4455 328.86 42.3219 328.439 42.3248 327.968C42.3219 327.598 42.3944 327.257 42.5421 326.945C42.6898 326.629 42.8915 326.367 43.1472 326.156C43.4057 325.943 43.6941 325.808 44.0123 325.752V325.7C43.5946 325.593 43.2623 325.358 43.0151 324.997C42.7679 324.634 42.6458 324.22 42.6486 323.757C42.6458 323.314 42.758 322.918 42.9853 322.568C43.2125 322.219 43.525 321.943 43.9228 321.742C44.3233 321.54 44.7793 321.439 45.2907 321.439C45.7963 321.439 46.248 321.54 46.6458 321.742C47.0435 321.943 47.356 322.219 47.5833 322.568C47.8134 322.918 47.9299 323.314 47.9327 323.757C47.9299 324.22 47.8034 324.634 47.5534 324.997C47.3063 325.358 46.9782 325.593 46.5691 325.7V325.752C46.8844 325.808 47.1685 325.943 47.4213 326.156C47.6742 326.367 47.8759 326.629 48.0265 326.945C48.177 327.257 48.2537 327.598 48.2566 327.968C48.2537 328.439 48.1259 328.86 47.873 329.229C47.623 329.595 47.275 329.884 46.829 330.094C46.3858 330.301 45.873 330.405 45.2907 330.405ZM45.2907 329.468C45.6855 329.468 46.0265 329.404 46.3134 329.276C46.6003 329.148 46.8219 328.968 46.9782 328.735C47.1344 328.502 47.214 328.229 47.2168 327.916C47.214 327.587 47.1287 327.296 46.9611 327.043C46.7935 326.79 46.5648 326.591 46.275 326.446C45.9881 326.301 45.66 326.229 45.2907 326.229C44.9185 326.229 44.5861 326.301 44.2935 326.446C44.0037 326.591 43.775 326.79 43.6074 327.043C43.4426 327.296 43.3617 327.587 43.3645 327.916C43.3617 328.229 43.437 328.502 43.5904 328.735C43.7466 328.968 43.9696 329.148 44.2594 329.276C44.5492 329.404 44.8929 329.468 45.2907 329.468ZM45.2907 325.325C45.6032 325.325 45.8801 325.263 46.1216 325.138C46.3659 325.013 46.5577 324.838 46.6969 324.614C46.8361 324.389 46.9071 324.127 46.91 323.825C46.9071 323.53 46.8375 323.273 46.7012 323.054C46.5648 322.833 46.3759 322.662 46.1344 322.543C45.8929 322.421 45.6117 322.36 45.2907 322.36C44.964 322.36 44.6784 322.421 44.4341 322.543C44.1898 322.662 44.0009 322.833 43.8674 323.054C43.7338 323.273 43.6685 323.53 43.6713 323.825C43.6685 324.127 43.7353 324.389 43.8716 324.614C44.0108 324.838 44.2026 325.013 44.4469 325.138C44.6912 325.263 44.9725 325.325 45.2907 325.325Z" fill="white"/>
<rect width="85" height="252" fill="#5288F2"/>
<rect x="0.5" y="0.5" width="84" height="251" stroke="black"/>
<rect width="85" height="25" transform="translate(0 336)" fill="#5288F2"/>
<rect x="0.5" y="336.5" width="84" height="24" stroke="black"/>
<path d="M39.9384 343.844V352.571H38.8816V344.952H38.8304L36.6998 346.367V345.293L38.8816 343.844H39.9384ZM45.2267 343.725C45.5847 343.728 45.9426 343.796 46.3006 343.929C46.6586 344.063 46.9853 344.284 47.2807 344.594C47.5762 344.901 47.8134 345.32 47.9924 345.851C48.1713 346.383 48.2608 347.049 48.2608 347.85C48.2608 348.625 48.187 349.314 48.0392 349.917C47.8944 350.516 47.6841 351.022 47.4086 351.434C47.1358 351.846 46.8034 352.158 46.4114 352.371C46.0222 352.584 45.5819 352.691 45.0904 352.691C44.6017 352.691 44.1657 352.594 43.7821 352.401C43.4015 352.205 43.089 351.934 42.8446 351.587C42.6032 351.238 42.4483 350.833 42.3801 350.373H43.4199C43.5137 350.773 43.6998 351.104 43.9782 351.365C44.2594 351.624 44.6301 351.753 45.0904 351.753C45.7637 351.753 46.2949 351.459 46.6841 350.871C47.0762 350.283 47.2722 349.452 47.2722 348.378H47.204C47.0449 348.617 46.856 348.823 46.6373 348.996C46.4185 349.169 46.1756 349.303 45.9086 349.397C45.6415 349.49 45.3574 349.537 45.0563 349.537C44.5563 349.537 44.0975 349.414 43.6799 349.167C43.2651 348.917 42.9327 348.574 42.6827 348.14C42.4355 347.702 42.312 347.202 42.312 346.64C42.312 346.106 42.4313 345.617 42.6699 345.174C42.9114 344.728 43.2495 344.373 43.6841 344.108C44.1216 343.844 44.6358 343.716 45.2267 343.725ZM45.2267 344.662C44.8688 344.662 44.5463 344.752 44.2594 344.931C43.9753 345.107 43.7495 345.346 43.5819 345.647C43.4171 345.945 43.3347 346.276 43.3347 346.64C43.3347 347.003 43.4142 347.334 43.5733 347.633C43.7353 347.928 43.9554 348.164 44.2338 348.34C44.5151 348.513 44.8347 348.6 45.1926 348.6C45.4625 348.6 45.714 348.547 45.9469 348.442C46.1799 348.334 46.383 348.188 46.5563 348.003C46.7324 347.816 46.8702 347.604 46.9696 347.368C47.0691 347.13 47.1188 346.881 47.1188 346.623C47.1188 346.282 47.0364 345.962 46.8716 345.664C46.7097 345.365 46.4853 345.124 46.1983 344.939C45.9142 344.755 45.5904 344.662 45.2267 344.662Z" fill="white"/>
<rect width="85" height="25" transform="translate(0 360)" fill="#5288F2"/>
<rect x="0.5" y="360.5" width="84" height="24" stroke="black"/>
<path d="M36.0206 376.571V375.804L38.9013 372.651C39.2393 372.282 39.5178 371.961 39.7365 371.688C39.9553 371.412 40.1172 371.154 40.2223 370.912C40.3303 370.668 40.3842 370.412 40.3842 370.145C40.3842 369.838 40.3104 369.573 40.1626 369.348C40.0178 369.124 39.8189 368.951 39.5661 368.829C39.3132 368.706 39.0291 368.645 38.7138 368.645C38.3786 368.645 38.0859 368.715 37.8359 368.854C37.5888 368.99 37.397 369.182 37.2607 369.429C37.1271 369.677 37.0604 369.966 37.0604 370.299H36.0547C36.0547 369.787 36.1726 369.338 36.4084 368.952C36.6442 368.566 36.9652 368.265 37.3714 368.049C37.7805 367.833 38.2393 367.725 38.7479 367.725C39.2592 367.725 39.7124 367.833 40.1072 368.049C40.5021 368.265 40.8118 368.556 41.0362 368.922C41.2607 369.289 41.3729 369.696 41.3729 370.145C41.3729 370.466 41.3146 370.78 41.1982 371.087C41.0845 371.391 40.8857 371.731 40.6016 372.106C40.3203 372.478 39.9297 372.932 39.4297 373.469L37.4695 375.566V375.634H41.5263V376.571H36.0206ZM46.1328 376.691C45.4908 376.691 44.9439 376.516 44.4922 376.167C44.0405 375.814 43.6953 375.304 43.4567 374.637C43.218 373.966 43.0987 373.157 43.0987 372.208C43.0987 371.265 43.218 370.459 43.4567 369.792C43.6982 369.121 44.0447 368.61 44.4964 368.258C44.951 367.902 45.4964 367.725 46.1328 367.725C46.7692 367.725 47.3132 367.902 47.7649 368.258C48.2195 368.61 48.5661 369.121 48.8047 369.792C49.0462 370.459 49.1669 371.265 49.1669 372.208C49.1669 373.157 49.0476 373.966 48.8089 374.637C48.5703 375.304 48.2251 375.814 47.7734 376.167C47.3217 376.516 46.7749 376.691 46.1328 376.691ZM46.1328 375.753C46.7692 375.753 47.2635 375.446 47.6158 374.833C47.968 374.219 48.1442 373.344 48.1442 372.208C48.1442 371.452 48.0632 370.809 47.9013 370.277C47.7422 369.746 47.5121 369.341 47.2109 369.063C46.9126 368.784 46.5533 368.645 46.1328 368.645C45.5021 368.645 45.0092 368.956 44.6541 369.579C44.299 370.198 44.1214 371.074 44.1214 372.208C44.1214 372.963 44.201 373.606 44.3601 374.134C44.5192 374.662 44.7479 375.064 45.0462 375.34C45.3473 375.615 45.7095 375.753 46.1328 375.753Z" fill="white"/>
<rect width="85" height="23" transform="translate(0 384)" fill="#5288F2"/>
<rect x="0.5" y="384.5" width="84" height="22" stroke="black"/>
<path d="M36.9815 400.286V399.519L39.8622 396.365C40.2003 395.996 40.4787 395.675 40.6974 395.402C40.9162 395.127 41.0781 394.868 41.1832 394.627C41.2912 394.382 41.3452 394.127 41.3452 393.86C41.3452 393.553 41.2713 393.287 41.1236 393.063C40.9787 392.838 40.7798 392.665 40.527 392.543C40.2741 392.421 39.9901 392.36 39.6747 392.36C39.3395 392.36 39.0469 392.429 38.7969 392.568C38.5497 392.705 38.358 392.897 38.2216 393.144C38.0881 393.391 38.0213 393.681 38.0213 394.013H37.0156C37.0156 393.502 37.1335 393.053 37.3693 392.666C37.6051 392.28 37.9261 391.979 38.3324 391.763C38.7415 391.547 39.2003 391.439 39.7088 391.439C40.2202 391.439 40.6733 391.547 41.0682 391.763C41.4631 391.979 41.7727 392.27 41.9972 392.637C42.2216 393.003 42.3338 393.411 42.3338 393.86C42.3338 394.181 42.2756 394.495 42.1591 394.801C42.0455 395.105 41.8466 395.445 41.5625 395.82C41.2812 396.192 40.8906 396.647 40.3906 397.183L38.4304 399.28V399.348H42.4872V400.286H36.9815ZM47.3153 391.558V400.286H46.2585V392.666H46.2074L44.0767 394.081V393.007L46.2585 391.558H47.3153Z" fill="white"/>
<rect width="85" height="23" transform="translate(0 406)" fill="#1456FF"/>
<rect x="0.5" y="406.5" width="84" height="22" stroke="black"/>
<path d="M36.1378 422.286V421.519L39.0185 418.365C39.3565 417.996 39.6349 417.675 39.8537 417.402C40.0724 417.127 40.2344 416.868 40.3395 416.627C40.4474 416.382 40.5014 416.127 40.5014 415.86C40.5014 415.553 40.4276 415.287 40.2798 415.063C40.1349 414.838 39.9361 414.665 39.6832 414.543C39.4304 414.421 39.1463 414.36 38.831 414.36C38.4957 414.36 38.2031 414.429 37.9531 414.568C37.706 414.705 37.5142 414.897 37.3778 415.144C37.2443 415.391 37.1776 415.681 37.1776 416.013H36.1719C36.1719 415.502 36.2898 415.053 36.5256 414.666C36.7614 414.28 37.0824 413.979 37.4886 413.763C37.8977 413.547 38.3565 413.439 38.8651 413.439C39.3764 413.439 39.8295 413.547 40.2244 413.763C40.6193 413.979 40.929 414.27 41.1534 414.637C41.3778 415.003 41.4901 415.411 41.4901 415.86C41.4901 416.181 41.4318 416.495 41.3153 416.801C41.2017 417.105 41.0028 417.445 40.7188 417.82C40.4375 418.192 40.0469 418.647 39.5469 419.183L37.5866 421.28V421.348H41.6435V422.286H36.1378ZM43.4034 422.286V421.519L46.2841 418.365C46.6222 417.996 46.9006 417.675 47.1193 417.402C47.3381 417.127 47.5 416.868 47.6051 416.627C47.7131 416.382 47.767 416.127 47.767 415.86C47.767 415.553 47.6932 415.287 47.5455 415.063C47.4006 414.838 47.2017 414.665 46.9489 414.543C46.696 414.421 46.4119 414.36 46.0966 414.36C45.7614 414.36 45.4688 414.429 45.2188 414.568C44.9716 414.705 44.7798 414.897 44.6435 415.144C44.5099 415.391 44.4432 415.681 44.4432 416.013H43.4375C43.4375 415.502 43.5554 415.053 43.7912 414.666C44.027 414.28 44.348 413.979 44.7543 413.763C45.1634 413.547 45.6222 413.439 46.1307 413.439C46.642 413.439 47.0952 413.547 47.4901 413.763C47.8849 413.979 48.1946 414.27 48.419 414.637C48.6435 415.003 48.7557 415.411 48.7557 415.86C48.7557 416.181 48.6974 416.495 48.581 416.801C48.4673 417.105 48.2685 417.445 47.9844 417.82C47.7031 418.192 47.3125 418.647 46.8125 419.183L44.8523 421.28V421.348H48.9091V422.286H43.4034Z" fill="white"/>
<rect width="85" height="32" transform="translate(0 428)" fill="#1456FF"/>
<rect x="0.5" y="428.5" width="84" height="31" stroke="black"/>
<path d="M35.9503 448.571V447.804L38.831 444.651C39.169 444.282 39.4474 443.961 39.6662 443.688C39.8849 443.412 40.0469 443.154 40.152 442.912C40.2599 442.668 40.3139 442.412 40.3139 442.145C40.3139 441.838 40.2401 441.573 40.0923 441.348C39.9474 441.124 39.7486 440.951 39.4957 440.829C39.2429 440.706 38.9588 440.645 38.6435 440.645C38.3082 440.645 38.0156 440.715 37.7656 440.854C37.5185 440.99 37.3267 441.182 37.1903 441.429C37.0568 441.677 36.9901 441.966 36.9901 442.299H35.9844C35.9844 441.787 36.1023 441.338 36.3381 440.952C36.5739 440.566 36.8949 440.265 37.3011 440.049C37.7102 439.833 38.169 439.725 38.6776 439.725C39.1889 439.725 39.642 439.833 40.0369 440.049C40.4318 440.265 40.7415 440.556 40.9659 440.922C41.1903 441.289 41.3026 441.696 41.3026 442.145C41.3026 442.466 41.2443 442.78 41.1278 443.087C41.0142 443.391 40.8153 443.731 40.5312 444.106C40.25 444.478 39.8594 444.932 39.3594 445.469L37.3991 447.566V447.634H41.456V448.571H35.9503ZM46.1648 448.691C45.6023 448.691 45.1009 448.594 44.6605 448.401C44.223 448.208 43.875 447.939 43.6165 447.596C43.3608 447.249 43.2216 446.847 43.1989 446.39H44.2727C44.2955 446.671 44.392 446.914 44.5625 447.118C44.733 447.32 44.956 447.476 45.2315 447.587C45.5071 447.698 45.8125 447.753 46.1477 447.753C46.5227 447.753 46.8551 447.688 47.1449 447.557C47.4347 447.427 47.6619 447.245 47.8267 447.012C47.9915 446.779 48.0739 446.509 48.0739 446.202C48.0739 445.881 47.9943 445.598 47.8352 445.354C47.6761 445.107 47.4432 444.914 47.1364 444.775C46.8295 444.635 46.4545 444.566 46.0114 444.566H45.3125V443.628H46.0114C46.358 443.628 46.6619 443.566 46.9233 443.441C47.1875 443.316 47.3935 443.14 47.5412 442.912C47.6918 442.685 47.767 442.418 47.767 442.111C47.767 441.816 47.7017 441.559 47.571 441.34C47.4403 441.121 47.2557 440.951 47.017 440.829C46.7813 440.706 46.5028 440.645 46.1818 440.645C45.8807 440.645 45.5966 440.701 45.3295 440.811C45.0653 440.919 44.8494 441.077 44.6818 441.284C44.5142 441.489 44.4233 441.736 44.4091 442.026H43.3864C43.4034 441.569 43.5412 441.168 43.7997 440.824C44.0582 440.478 44.3963 440.208 44.8139 440.015C45.2344 439.821 45.696 439.725 46.1989 439.725C46.7386 439.725 47.2017 439.834 47.5881 440.053C47.9744 440.269 48.2713 440.554 48.4787 440.909C48.6861 441.265 48.7898 441.648 48.7898 442.06C48.7898 442.552 48.6605 442.971 48.402 443.317C48.1463 443.664 47.7983 443.904 47.358 444.037V444.106C47.9091 444.196 48.3395 444.431 48.6491 444.809C48.9588 445.184 49.1136 445.648 49.1136 446.202C49.1136 446.677 48.9844 447.103 48.7259 447.481C48.4702 447.856 48.1207 448.151 47.6776 448.367C47.2344 448.583 46.7301 448.691 46.1648 448.691Z" fill="white"/>
<rect width="85" height="32" transform="translate(0 458)" fill="#1456FF"/>
<rect x="0.5" y="458.5" width="84" height="31" stroke="black"/>
<path d="M36.0147 478.571V477.804L38.8954 474.651C39.2335 474.282 39.5119 473.961 39.7306 473.688C39.9494 473.412 40.1113 473.154 40.2164 472.912C40.3244 472.668 40.3784 472.412 40.3784 472.145C40.3784 471.838 40.3045 471.573 40.1568 471.348C40.0119 471.124 39.813 470.951 39.5602 470.829C39.3074 470.706 39.0233 470.645 38.7079 470.645C38.3727 470.645 38.0801 470.715 37.8301 470.854C37.5829 470.99 37.3912 471.182 37.2548 471.429C37.1213 471.677 37.0545 471.966 37.0545 472.299H36.0488C36.0488 471.787 36.1667 471.338 36.4025 470.952C36.6383 470.566 36.9593 470.265 37.3656 470.049C37.7747 469.833 38.2335 469.725 38.742 469.725C39.2534 469.725 39.7065 469.833 40.1014 470.049C40.4963 470.265 40.8059 470.556 41.0304 470.922C41.2548 471.289 41.367 471.696 41.367 472.145C41.367 472.466 41.3088 472.78 41.1923 473.087C41.0787 473.391 40.8798 473.731 40.5957 474.106C40.3145 474.478 39.9238 474.932 39.4238 475.469L37.4636 477.566V477.634H41.5204V478.571H36.0147ZM42.8883 476.782V475.912L46.7235 469.844H47.3542V471.191H46.9281L44.0304 475.776V475.844H49.1951V476.782H42.8883ZM46.9963 478.571V476.517V476.113V469.844H48.002V478.571H46.9963Z" fill="white"/>
<rect width="85" height="33" transform="translate(0 488)" fill="#5288F2"/>
<rect x="0.5" y="488.5" width="84" height="32" stroke="black"/>
<path d="M36.1202 508.714V507.947L39.0009 504.794C39.339 504.425 39.6174 504.103 39.8361 503.831C40.0549 503.555 40.2168 503.297 40.3219 503.055C40.4299 502.811 40.4838 502.555 40.4838 502.288C40.4838 501.981 40.41 501.716 40.2623 501.491C40.1174 501.267 39.9185 501.094 39.6657 500.971C39.4128 500.849 39.1287 500.788 38.8134 500.788C38.4782 500.788 38.1855 500.858 37.9355 500.997C37.6884 501.133 37.4966 501.325 37.3603 501.572C37.2267 501.819 37.16 502.109 37.16 502.442H36.1543C36.1543 501.93 36.2722 501.481 36.508 501.095C36.7438 500.709 37.0648 500.407 37.4711 500.192C37.8801 499.976 38.339 499.868 38.8475 499.868C39.3588 499.868 39.812 499.976 40.2069 500.192C40.6017 500.407 40.9114 500.699 41.1358 501.065C41.3603 501.432 41.4725 501.839 41.4725 502.288C41.4725 502.609 41.4142 502.923 41.2978 503.23C41.1841 503.534 40.9853 503.873 40.7012 504.248C40.4199 504.621 40.0293 505.075 39.5293 505.612L37.5691 507.709V507.777H41.6259V508.714H36.1202ZM46.1131 508.834C45.6131 508.834 45.1628 508.734 44.7623 508.535C44.3617 508.336 44.0407 508.064 43.7992 507.717C43.5577 507.371 43.4256 506.976 43.4029 506.532H44.4256C44.4654 506.927 44.6444 507.254 44.9625 507.513C45.2836 507.768 45.6671 507.896 46.1131 507.896C46.4711 507.896 46.7892 507.812 47.0676 507.645C47.3489 507.477 47.5691 507.247 47.7282 506.954C47.8901 506.659 47.9711 506.325 47.9711 505.953C47.9711 505.572 47.8873 505.233 47.7196 504.934C47.5549 504.633 47.3276 504.396 47.0378 504.223C46.748 504.05 46.4171 503.961 46.0449 503.959C45.7779 503.956 45.5037 503.997 45.2225 504.082C44.9412 504.165 44.7097 504.271 44.5279 504.402L43.5392 504.282L44.0676 499.987H48.6017V500.925H44.954L44.6472 503.498H44.6983C44.8773 503.356 45.1017 503.238 45.3716 503.145C45.6415 503.051 45.9228 503.004 46.2154 503.004C46.7495 503.004 47.2253 503.132 47.6429 503.388C48.0634 503.64 48.3929 503.987 48.6316 504.427C48.873 504.868 48.9938 505.371 48.9938 505.936C48.9938 506.493 48.8688 506.99 48.6188 507.427C48.3716 507.862 48.0307 508.206 47.5961 508.459C47.1614 508.709 46.6671 508.834 46.1131 508.834Z" fill="white"/>
<rect width="85" height="33" transform="translate(0 520)" fill="#5288F2"/>
<rect x="0.5" y="520.5" width="84" height="32" stroke="black"/>
<path d="M36.0265 540.714V539.947L38.9071 536.794C39.2452 536.425 39.5236 536.103 39.7424 535.831C39.9611 535.555 40.123 535.297 40.2282 535.055C40.3361 534.811 40.3901 534.555 40.3901 534.288C40.3901 533.981 40.3162 533.716 40.1685 533.491C40.0236 533.267 39.8248 533.094 39.5719 532.971C39.3191 532.849 39.035 532.788 38.7196 532.788C38.3844 532.788 38.0918 532.858 37.8418 532.997C37.5946 533.133 37.4029 533.325 37.2665 533.572C37.133 533.819 37.0662 534.109 37.0662 534.442H36.0605C36.0605 533.93 36.1784 533.481 36.4142 533.095C36.65 532.709 36.9711 532.407 37.3773 532.192C37.7864 531.976 38.2452 531.868 38.7537 531.868C39.2651 531.868 39.7182 531.976 40.1131 532.192C40.508 532.407 40.8176 532.699 41.0421 533.065C41.2665 533.432 41.3787 533.839 41.3787 534.288C41.3787 534.609 41.3205 534.923 41.204 535.23C41.0904 535.534 40.8915 535.873 40.6074 536.248C40.3262 536.621 39.9355 537.075 39.4355 537.612L37.4753 539.709V539.777H41.5321V540.714H36.0265ZM46.1898 540.834C45.8319 540.828 45.4739 540.76 45.1159 540.629C44.758 540.498 44.4313 540.278 44.1358 539.969C43.8404 539.656 43.6032 539.234 43.4242 538.703C43.2452 538.169 43.1557 537.498 43.1557 536.692C43.1557 535.919 43.2282 535.234 43.373 534.638C43.5179 534.038 43.7282 533.534 44.0037 533.125C44.2793 532.713 44.6117 532.4 45.0009 532.187C45.3929 531.974 45.8347 531.868 46.3262 531.868C46.8148 531.868 47.2495 531.966 47.6301 532.162C48.0137 532.355 48.3262 532.625 48.5676 532.971C48.8091 533.318 48.9654 533.717 49.0364 534.169H47.9966C47.9 533.777 47.7125 533.451 47.4341 533.193C47.1557 532.934 46.7864 532.805 46.3262 532.805C45.65 532.805 45.1174 533.099 44.7282 533.687C44.3418 534.275 44.1472 535.101 44.1444 536.163H44.2125C44.3716 535.922 44.5605 535.716 44.7793 535.545C45.0009 535.372 45.2452 535.238 45.5123 535.145C45.7793 535.051 46.062 535.004 46.3603 535.004C46.8603 535.004 47.3176 535.129 47.7324 535.379C48.1472 535.626 48.4796 535.969 48.7296 536.406C48.9796 536.841 49.1046 537.339 49.1046 537.902C49.1046 538.442 48.9838 538.936 48.7424 539.385C48.5009 539.831 48.1614 540.186 47.7239 540.45C47.2892 540.711 46.7779 540.839 46.1898 540.834ZM46.1898 539.896C46.5478 539.896 46.8688 539.807 47.1529 539.628C47.4398 539.449 47.6657 539.209 47.8304 538.907C47.998 538.606 48.0819 538.271 48.0819 537.902C48.0819 537.541 48.0009 537.213 47.839 536.917C47.6799 536.619 47.4597 536.382 47.1784 536.206C46.9 536.03 46.5819 535.942 46.2239 535.942C45.954 535.942 45.7026 535.996 45.4696 536.103C45.2367 536.209 45.0321 536.353 44.856 536.538C44.6827 536.723 44.5463 536.934 44.4469 537.173C44.3475 537.409 44.2978 537.657 44.2978 537.919C44.2978 538.265 44.3787 538.589 44.5407 538.89C44.7054 539.192 44.9299 539.434 45.214 539.619C45.5009 539.804 45.8262 539.896 46.1898 539.896Z" fill="white"/>
<rect width="85" height="33" transform="translate(0 552)" fill="#5288F2"/>
<rect x="0.5" y="552.5" width="84" height="32" stroke="black"/>
<path d="M36.3429 572.714V571.947L39.2235 568.794C39.5616 568.425 39.84 568.103 40.0588 567.831C40.2775 567.555 40.4395 567.297 40.5446 567.055C40.6525 566.811 40.7065 566.555 40.7065 566.288C40.7065 565.981 40.6326 565.716 40.4849 565.491C40.34 565.267 40.1412 565.094 39.8883 564.971C39.6355 564.849 39.3514 564.788 39.036 564.788C38.7008 564.788 38.4082 564.858 38.1582 564.997C37.911 565.133 37.7193 565.325 37.5829 565.572C37.4494 565.819 37.3826 566.109 37.3826 566.442H36.377C36.377 565.93 36.4949 565.481 36.7306 565.095C36.9664 564.709 37.2875 564.407 37.6937 564.192C38.1028 563.976 38.5616 563.868 39.0701 563.868C39.5815 563.868 40.0346 563.976 40.4295 564.192C40.8244 564.407 41.1341 564.699 41.3585 565.065C41.5829 565.432 41.6951 565.839 41.6951 566.288C41.6951 566.609 41.6369 566.923 41.5204 567.23C41.4068 567.534 41.2079 567.873 40.9238 568.248C40.6426 568.621 40.252 569.075 39.752 569.612L37.7917 571.709V571.777H41.8485V572.714H36.3429ZM43.8812 572.714L47.7846 564.993V564.925H43.2846V563.987H48.8755V564.976L44.9892 572.714H43.8812Z" fill="white"/>
<rect width="85" height="29" transform="translate(0 584)" fill="#1456FF"/>
<rect x="0.5" y="584.5" width="84" height="28" stroke="black"/>
<path d="M36.0733 603.143V602.376L38.954 599.222C39.2921 598.853 39.5705 598.532 39.7892 598.259C40.008 597.984 40.1699 597.725 40.275 597.484C40.383 597.239 40.437 596.984 40.437 596.717C40.437 596.41 40.3631 596.144 40.2154 595.92C40.0705 595.695 39.8716 595.522 39.6188 595.4C39.3659 595.278 39.0819 595.217 38.7665 595.217C38.4313 595.217 38.1387 595.286 37.8887 595.426C37.6415 595.562 37.4498 595.754 37.3134 596.001C37.1799 596.248 37.1131 596.538 37.1131 596.87H36.1074C36.1074 596.359 36.2253 595.91 36.4611 595.524C36.6969 595.137 37.0179 594.836 37.4242 594.62C37.8333 594.404 38.2921 594.296 38.8006 594.296C39.312 594.296 39.7651 594.404 40.16 594.62C40.5549 594.836 40.8645 595.127 41.089 595.494C41.3134 595.86 41.4256 596.268 41.4256 596.717C41.4256 597.038 41.3674 597.352 41.2509 597.658C41.1373 597.962 40.9384 598.302 40.6543 598.677C40.373 599.049 39.9824 599.504 39.4824 600.041L37.5222 602.137V602.205H41.579V603.143H36.0733ZM46.1344 603.262C45.5492 603.262 45.0321 603.158 44.5833 602.951C44.1373 602.741 43.7892 602.453 43.5392 602.086C43.2892 601.717 43.1657 601.296 43.1685 600.825C43.1657 600.455 43.2381 600.114 43.3858 599.802C43.5336 599.487 43.7353 599.224 43.9909 599.014C44.2495 598.801 44.5378 598.666 44.856 598.609V598.558C44.4384 598.45 44.106 598.215 43.8588 597.855C43.6117 597.491 43.4895 597.078 43.4924 596.614C43.4895 596.171 43.6017 595.775 43.829 595.426C44.0563 595.076 44.3688 594.801 44.7665 594.599C45.1671 594.397 45.623 594.296 46.1344 594.296C46.6401 594.296 47.0918 594.397 47.4895 594.599C47.8873 594.801 48.1998 595.076 48.427 595.426C48.6571 595.775 48.7736 596.171 48.7765 596.614C48.7736 597.078 48.6472 597.491 48.3972 597.855C48.15 598.215 47.8219 598.45 47.4128 598.558V598.609C47.7282 598.666 48.0123 598.801 48.2651 599.014C48.5179 599.224 48.7196 599.487 48.8702 599.802C49.0208 600.114 49.0975 600.455 49.1003 600.825C49.0975 601.296 48.9696 601.717 48.7168 602.086C48.4668 602.453 48.1188 602.741 47.6728 602.951C47.2296 603.158 46.7168 603.262 46.1344 603.262ZM46.1344 602.325C46.5293 602.325 46.8702 602.261 47.1571 602.133C47.4441 602.005 47.6657 601.825 47.8219 601.592C47.9782 601.359 48.0577 601.086 48.0605 600.774C48.0577 600.444 47.9725 600.153 47.8049 599.9C47.6373 599.647 47.4086 599.448 47.1188 599.303C46.8319 599.158 46.5037 599.086 46.1344 599.086C45.7623 599.086 45.4299 599.158 45.1373 599.303C44.8475 599.448 44.6188 599.647 44.4512 599.9C44.2864 600.153 44.2054 600.444 44.2083 600.774C44.2054 601.086 44.2807 601.359 44.4341 601.592C44.5904 601.825 44.8134 602.005 45.1032 602.133C45.3929 602.261 45.7367 602.325 46.1344 602.325ZM46.1344 598.183C46.4469 598.183 46.7239 598.12 46.9654 597.995C47.2097 597.87 47.4015 597.695 47.5407 597.471C47.6799 597.247 47.7509 596.984 47.7537 596.683C47.7509 596.387 47.6813 596.13 47.5449 595.911C47.4086 595.69 47.2196 595.519 46.9782 595.4C46.7367 595.278 46.4554 595.217 46.1344 595.217C45.8077 595.217 45.5222 595.278 45.2779 595.4C45.0336 595.519 44.8446 595.69 44.7111 595.911C44.5776 596.13 44.5123 596.387 44.5151 596.683C44.5123 596.984 44.579 597.247 44.7154 597.471C44.8546 597.695 45.0463 597.87 45.2907 597.995C45.535 598.12 45.8162 598.183 46.1344 598.183Z" fill="white"/>
<rect width="85" height="25" transform="translate(0 612)" fill="#1456FF"/>
<rect x="0.5" y="612.5" width="84" height="24" stroke="black"/>
<path d="M36.0265 628.571V627.804L38.9071 624.651C39.2452 624.282 39.5236 623.961 39.7424 623.688C39.9611 623.412 40.123 623.154 40.2282 622.912C40.3361 622.668 40.3901 622.412 40.3901 622.145C40.3901 621.838 40.3162 621.573 40.1685 621.348C40.0236 621.124 39.8248 620.951 39.5719 620.829C39.3191 620.706 39.035 620.645 38.7196 620.645C38.3844 620.645 38.0918 620.715 37.8418 620.854C37.5946 620.99 37.4029 621.182 37.2665 621.429C37.133 621.677 37.0662 621.966 37.0662 622.299H36.0605C36.0605 621.787 36.1784 621.338 36.4142 620.952C36.65 620.566 36.9711 620.265 37.3773 620.049C37.7864 619.833 38.2452 619.725 38.7537 619.725C39.2651 619.725 39.7182 619.833 40.1131 620.049C40.508 620.265 40.8176 620.556 41.0421 620.922C41.2665 621.289 41.3787 621.696 41.3787 622.145C41.3787 622.466 41.3205 622.78 41.204 623.087C41.0904 623.391 40.8915 623.731 40.6074 624.106C40.3262 624.478 39.9355 624.932 39.4355 625.469L37.4753 627.566V627.634H41.5321V628.571H36.0265ZM46.0705 619.725C46.4284 619.728 46.7864 619.796 47.1444 619.929C47.5023 620.063 47.829 620.284 48.1245 620.594C48.4199 620.901 48.6571 621.32 48.8361 621.851C49.0151 622.383 49.1046 623.049 49.1046 623.85C49.1046 624.625 49.0307 625.314 48.883 625.917C48.7381 626.516 48.5279 627.022 48.2523 627.434C47.9796 627.846 47.6472 628.158 47.2551 628.371C46.8659 628.584 46.4256 628.691 45.9341 628.691C45.4455 628.691 45.0094 628.594 44.6259 628.401C44.2452 628.205 43.9327 627.934 43.6884 627.587C43.4469 627.238 43.2921 626.833 43.2239 626.373H44.2637C44.3574 626.773 44.5435 627.104 44.8219 627.365C45.1032 627.624 45.4739 627.753 45.9341 627.753C46.6074 627.753 47.1387 627.459 47.5279 626.871C47.9199 626.283 48.1159 625.452 48.1159 624.378H48.0478C47.8887 624.617 47.6998 624.823 47.481 624.996C47.2623 625.169 47.0194 625.303 46.7523 625.397C46.4853 625.49 46.2012 625.537 45.9 625.537C45.4 625.537 44.9412 625.414 44.5236 625.167C44.1088 624.917 43.7765 624.574 43.5265 624.14C43.2793 623.702 43.1557 623.202 43.1557 622.64C43.1557 622.106 43.275 621.617 43.5137 621.174C43.7551 620.728 44.0932 620.373 44.5279 620.108C44.9654 619.844 45.4796 619.716 46.0705 619.725ZM46.0705 620.662C45.7125 620.662 45.3901 620.752 45.1032 620.931C44.8191 621.107 44.5932 621.346 44.4256 621.647C44.2608 621.945 44.1784 622.276 44.1784 622.64C44.1784 623.003 44.258 623.334 44.4171 623.633C44.579 623.928 44.7992 624.164 45.0776 624.34C45.3588 624.513 45.6784 624.6 46.0364 624.6C46.3063 624.6 46.5577 624.547 46.7907 624.442C47.0236 624.334 47.2267 624.188 47.4 624.003C47.5762 623.816 47.714 623.604 47.8134 623.368C47.9128 623.13 47.9625 622.881 47.9625 622.623C47.9625 622.282 47.8801 621.962 47.7154 621.664C47.5534 621.365 47.329 621.124 47.0421 620.939C46.758 620.755 46.4341 620.662 46.0705 620.662Z" fill="white"/>
<rect width="85" height="24" transform="translate(0 636)" fill="#1456FF"/>
<rect x="0.5" y="636.5" width="84" height="23" stroke="black"/>
<path d="M38.782 652.548C38.2195 652.548 37.718 652.451 37.2777 652.258C36.8402 652.065 36.4922 651.796 36.2337 651.453C35.978 651.106 35.8388 650.704 35.8161 650.247H36.8899C36.9126 650.528 37.0092 650.771 37.1797 650.975C37.3501 651.177 37.5732 651.333 37.8487 651.444C38.1243 651.555 38.4297 651.61 38.7649 651.61C39.1399 651.61 39.4723 651.545 39.7621 651.414C40.0518 651.284 40.2791 651.102 40.4439 650.869C40.6087 650.636 40.6911 650.366 40.6911 650.059C40.6911 649.738 40.6115 649.456 40.4524 649.211C40.2933 648.964 40.0604 648.771 39.7536 648.632C39.4467 648.492 39.0717 648.423 38.6286 648.423H37.9297V647.485H38.6286C38.9751 647.485 39.2791 647.423 39.5405 647.298C39.8047 647.173 40.0107 646.997 40.1584 646.769C40.3089 646.542 40.3842 646.275 40.3842 645.968C40.3842 645.673 40.3189 645.416 40.1882 645.197C40.0575 644.978 39.8729 644.808 39.6342 644.686C39.3984 644.564 39.12 644.502 38.799 644.502C38.4979 644.502 38.2138 644.558 37.9467 644.669C37.6825 644.777 37.4666 644.934 37.299 645.142C37.1314 645.346 37.0405 645.593 37.0263 645.883H36.0036C36.0206 645.426 36.1584 645.025 36.4169 644.681C36.6754 644.335 37.0135 644.065 37.4311 643.872C37.8516 643.679 38.3132 643.582 38.8161 643.582C39.3558 643.582 39.8189 643.691 40.2053 643.91C40.5916 644.126 40.8885 644.412 41.0959 644.767C41.3033 645.122 41.407 645.505 41.407 645.917C41.407 646.409 41.2777 646.828 41.0192 647.174C40.7635 647.521 40.4155 647.761 39.9751 647.894V647.963C40.5263 648.054 40.9567 648.288 41.2663 648.666C41.576 649.041 41.7308 649.505 41.7308 650.059C41.7308 650.534 41.6016 650.96 41.343 651.338C41.0874 651.713 40.7379 652.008 40.2947 652.224C39.8516 652.44 39.3473 652.548 38.782 652.548ZM46.3203 652.548C45.6783 652.548 45.1314 652.373 44.6797 652.024C44.228 651.671 43.8828 651.162 43.6442 650.494C43.4055 649.823 43.2862 649.014 43.2862 648.065C43.2862 647.122 43.4055 646.316 43.6442 645.649C43.8857 644.978 44.2322 644.467 44.6839 644.115C45.1385 643.76 45.6839 643.582 46.3203 643.582C46.9567 643.582 47.5007 643.76 47.9524 644.115C48.407 644.467 48.7536 644.978 48.9922 645.649C49.2337 646.316 49.3544 647.122 49.3544 648.065C49.3544 649.014 49.2351 649.823 48.9964 650.494C48.7578 651.162 48.4126 651.671 47.9609 652.024C47.5092 652.373 46.9624 652.548 46.3203 652.548ZM46.3203 651.61C46.9567 651.61 47.451 651.304 47.8033 650.69C48.1555 650.076 48.3317 649.201 48.3317 648.065C48.3317 647.309 48.2507 646.666 48.0888 646.135C47.9297 645.603 47.6996 645.198 47.3984 644.92C47.1001 644.642 46.7408 644.502 46.3203 644.502C45.6896 644.502 45.1967 644.814 44.8416 645.436C44.4865 646.055 44.3089 646.931 44.3089 648.065C44.3089 648.821 44.3885 649.463 44.5476 649.991C44.7067 650.519 44.9354 650.921 45.2337 651.197C45.5348 651.473 45.897 651.61 46.3203 651.61Z" fill="white"/>
<rect width="85" height="24" transform="translate(0 659)" fill="#1456FF"/>
<rect x="0.5" y="659.5" width="84" height="23" stroke="black"/>
<path d="M39.7429 675.548C39.1804 675.548 38.679 675.451 38.2386 675.258C37.8011 675.065 37.4531 674.796 37.1946 674.453C36.9389 674.106 36.7997 673.704 36.777 673.247H37.8509C37.8736 673.528 37.9702 673.771 38.1406 673.975C38.3111 674.177 38.5341 674.333 38.8097 674.444C39.0852 674.555 39.3906 674.61 39.7259 674.61C40.1009 674.61 40.4332 674.545 40.723 674.414C41.0128 674.284 41.2401 674.102 41.4048 673.869C41.5696 673.636 41.652 673.366 41.652 673.059C41.652 672.738 41.5724 672.456 41.4134 672.211C41.2543 671.964 41.0213 671.771 40.7145 671.632C40.4077 671.492 40.0327 671.423 39.5895 671.423H38.8906V670.485H39.5895C39.9361 670.485 40.2401 670.423 40.5014 670.298C40.7656 670.173 40.9716 669.997 41.1193 669.769C41.2699 669.542 41.3452 669.275 41.3452 668.968C41.3452 668.673 41.2798 668.416 41.1491 668.197C41.0185 667.978 40.8338 667.808 40.5952 667.686C40.3594 667.564 40.081 667.502 39.7599 667.502C39.4588 667.502 39.1747 667.558 38.9077 667.669C38.6435 667.777 38.4276 667.934 38.2599 668.142C38.0923 668.346 38.0014 668.593 37.9872 668.883H36.9645C36.9815 668.426 37.1193 668.025 37.3778 667.681C37.6364 667.335 37.9744 667.065 38.392 666.872C38.8125 666.679 39.2741 666.582 39.777 666.582C40.3168 666.582 40.7798 666.691 41.1662 666.91C41.5526 667.126 41.8494 667.412 42.0568 667.767C42.2642 668.122 42.3679 668.505 42.3679 668.917C42.3679 669.409 42.2386 669.828 41.9801 670.174C41.7244 670.521 41.3764 670.761 40.9361 670.894V670.963C41.4872 671.054 41.9176 671.288 42.2273 671.666C42.5369 672.041 42.6918 672.505 42.6918 673.059C42.6918 673.534 42.5625 673.96 42.304 674.338C42.0483 674.713 41.6989 675.008 41.2557 675.224C40.8125 675.44 40.3082 675.548 39.7429 675.548ZM47.5028 666.701V675.429H46.446V667.809H46.3949L44.2642 669.224V668.15L46.446 666.701H47.5028Z" fill="white"/>
<rect width="85" height="24" transform="translate(0 682)" fill="#5288F2"/>
<rect x="0.5" y="682.5" width="84" height="23" stroke="black"/>
<path d="M38.8991 698.548C38.3366 698.548 37.8352 698.451 37.3949 698.258C36.9574 698.065 36.6094 697.796 36.3509 697.453C36.0952 697.106 35.956 696.704 35.9332 696.247H37.0071C37.0298 696.528 37.1264 696.771 37.2969 696.975C37.4673 697.177 37.6903 697.333 37.9659 697.444C38.2415 697.555 38.5469 697.61 38.8821 697.61C39.2571 697.61 39.5895 697.545 39.8793 697.414C40.169 697.284 40.3963 697.102 40.5611 696.869C40.7259 696.636 40.8082 696.366 40.8082 696.059C40.8082 695.738 40.7287 695.456 40.5696 695.211C40.4105 694.964 40.1776 694.771 39.8707 694.632C39.5639 694.492 39.1889 694.423 38.7457 694.423H38.0469V693.485H38.7457C39.0923 693.485 39.3963 693.423 39.6577 693.298C39.9219 693.173 40.1278 692.997 40.2756 692.769C40.4261 692.542 40.5014 692.275 40.5014 691.968C40.5014 691.673 40.4361 691.416 40.3054 691.197C40.1747 690.978 39.9901 690.808 39.7514 690.686C39.5156 690.564 39.2372 690.502 38.9162 690.502C38.6151 690.502 38.331 690.558 38.0639 690.669C37.7997 690.777 37.5838 690.934 37.4162 691.142C37.2486 691.346 37.1577 691.593 37.1435 691.883H36.1207C36.1378 691.426 36.2756 691.025 36.5341 690.681C36.7926 690.335 37.1307 690.065 37.5483 689.872C37.9688 689.679 38.4304 689.582 38.9332 689.582C39.473 689.582 39.9361 689.691 40.3224 689.91C40.7088 690.126 41.0057 690.412 41.2131 690.767C41.4205 691.122 41.5241 691.505 41.5241 691.917C41.5241 692.409 41.3949 692.828 41.1364 693.174C40.8807 693.521 40.5327 693.761 40.0923 693.894V693.963C40.6435 694.054 41.0739 694.288 41.3835 694.666C41.6932 695.041 41.848 695.505 41.848 696.059C41.848 696.534 41.7188 696.96 41.4602 697.338C41.2045 697.713 40.8551 698.008 40.4119 698.224C39.9688 698.44 39.4645 698.548 38.8991 698.548ZM43.5909 698.429V697.662L46.4716 694.508C46.8097 694.139 47.0881 693.818 47.3068 693.545C47.5256 693.269 47.6875 693.011 47.7926 692.769C47.9006 692.525 47.9545 692.269 47.9545 692.002C47.9545 691.696 47.8807 691.43 47.733 691.206C47.5881 690.981 47.3892 690.808 47.1364 690.686C46.8835 690.564 46.5994 690.502 46.2841 690.502C45.9489 690.502 45.6562 690.572 45.4062 690.711C45.1591 690.848 44.9673 691.039 44.831 691.287C44.6974 691.534 44.6307 691.823 44.6307 692.156H43.625C43.625 691.644 43.7429 691.196 43.9787 690.809C44.2145 690.423 44.5355 690.122 44.9418 689.906C45.3509 689.69 45.8097 689.582 46.3182 689.582C46.8295 689.582 47.2827 689.69 47.6776 689.906C48.0724 690.122 48.3821 690.413 48.6065 690.779C48.831 691.146 48.9432 691.554 48.9432 692.002C48.9432 692.323 48.8849 692.637 48.7685 692.944C48.6548 693.248 48.456 693.588 48.1719 693.963C47.8906 694.335 47.5 694.789 47 695.326L45.0398 697.423V697.491H49.0966V698.429H43.5909Z" fill="white"/>
<rect width="85" height="24" transform="translate(0 705)" fill="#5288F2"/>
<rect x="0.5" y="705.5" width="84" height="23" stroke="black"/>
<path d="M38.7116 721.548C38.1491 721.548 37.6477 721.451 37.2074 721.258C36.7699 721.065 36.4219 720.796 36.1634 720.453C35.9077 720.106 35.7685 719.704 35.7457 719.247H36.8196C36.8423 719.528 36.9389 719.771 37.1094 719.975C37.2798 720.177 37.5028 720.333 37.7784 720.444C38.054 720.555 38.3594 720.61 38.6946 720.61C39.0696 720.61 39.402 720.545 39.6918 720.414C39.9815 720.284 40.2088 720.102 40.3736 719.869C40.5384 719.636 40.6207 719.366 40.6207 719.059C40.6207 718.738 40.5412 718.456 40.3821 718.211C40.223 717.964 39.9901 717.771 39.6832 717.632C39.3764 717.492 39.0014 717.423 38.5582 717.423H37.8594V716.485H38.5582C38.9048 716.485 39.2088 716.423 39.4702 716.298C39.7344 716.173 39.9403 715.997 40.0881 715.769C40.2386 715.542 40.3139 715.275 40.3139 714.968C40.3139 714.673 40.2486 714.416 40.1179 714.197C39.9872 713.978 39.8026 713.808 39.5639 713.686C39.3281 713.564 39.0497 713.502 38.7287 713.502C38.4276 713.502 38.1435 713.558 37.8764 713.669C37.6122 713.777 37.3963 713.934 37.2287 714.142C37.0611 714.346 36.9702 714.593 36.956 714.883H35.9332C35.9503 714.426 36.0881 714.025 36.3466 713.681C36.6051 713.335 36.9432 713.065 37.3608 712.872C37.7813 712.679 38.2429 712.582 38.7457 712.582C39.2855 712.582 39.7486 712.691 40.1349 712.91C40.5213 713.126 40.8182 713.412 41.0256 713.767C41.233 714.122 41.3366 714.505 41.3366 714.917C41.3366 715.409 41.2074 715.828 40.9489 716.174C40.6932 716.521 40.3452 716.761 39.9048 716.894V716.963C40.456 717.054 40.8864 717.288 41.196 717.666C41.5057 718.041 41.6605 718.505 41.6605 719.059C41.6605 719.534 41.5313 719.96 41.2727 720.338C41.017 720.713 40.6676 721.008 40.2244 721.224C39.7813 721.44 39.277 721.548 38.7116 721.548ZM46.3523 721.548C45.7898 721.548 45.2884 721.451 44.848 721.258C44.4105 721.065 44.0625 720.796 43.804 720.453C43.5483 720.106 43.4091 719.704 43.3864 719.247H44.4602C44.483 719.528 44.5795 719.771 44.75 719.975C44.9205 720.177 45.1435 720.333 45.419 720.444C45.6946 720.555 46 720.61 46.3352 720.61C46.7102 720.61 47.0426 720.545 47.3324 720.414C47.6222 720.284 47.8494 720.102 48.0142 719.869C48.179 719.636 48.2614 719.366 48.2614 719.059C48.2614 718.738 48.1818 718.456 48.0227 718.211C47.8636 717.964 47.6307 717.771 47.3239 717.632C47.017 717.492 46.642 717.423 46.1989 717.423H45.5V716.485H46.1989C46.5455 716.485 46.8494 716.423 47.1108 716.298C47.375 716.173 47.581 715.997 47.7287 715.769C47.8793 715.542 47.9545 715.275 47.9545 714.968C47.9545 714.673 47.8892 714.416 47.7585 714.197C47.6278 713.978 47.4432 713.808 47.2045 713.686C46.9688 713.564 46.6903 713.502 46.3693 713.502C46.0682 713.502 45.7841 713.558 45.517 713.669C45.2528 713.777 45.0369 713.934 44.8693 714.142C44.7017 714.346 44.6108 714.593 44.5966 714.883H43.5739C43.5909 714.426 43.7287 714.025 43.9872 713.681C44.2457 713.335 44.5838 713.065 45.0014 712.872C45.4219 712.679 45.8835 712.582 46.3864 712.582C46.9261 712.582 47.3892 712.691 47.7756 712.91C48.1619 713.126 48.4588 713.412 48.6662 713.767C48.8736 714.122 48.9773 714.505 48.9773 714.917C48.9773 715.409 48.848 715.828 48.5895 716.174C48.3338 716.521 47.9858 716.761 47.5455 716.894V716.963C48.0966 717.054 48.527 717.288 48.8366 717.666C49.1463 718.041 49.3011 718.505 49.3011 719.059C49.3011 719.534 49.1719 719.96 48.9134 720.338C48.6577 720.713 48.3082 721.008 47.8651 721.224C47.4219 721.44 46.9176 721.548 46.3523 721.548Z" fill="white"/>
<rect width="85" height="24" transform="translate(0 728)" fill="#5288F2"/>
<rect x="0.5" y="728.5" width="84" height="23" stroke="black"/>
<path d="M38.6824 744.548C38.1199 744.548 37.6184 744.451 37.1781 744.258C36.7406 744.065 36.3926 743.796 36.1341 743.453C35.8784 743.106 35.7392 742.704 35.7164 742.247H36.7903C36.813 742.528 36.9096 742.771 37.0801 742.975C37.2505 743.177 37.4735 743.333 37.7491 743.444C38.0247 743.555 38.3301 743.61 38.6653 743.61C39.0403 743.61 39.3727 743.545 39.6625 743.414C39.9522 743.284 40.1795 743.102 40.3443 742.869C40.5091 742.636 40.5914 742.366 40.5914 742.059C40.5914 741.738 40.5119 741.456 40.3528 741.211C40.1937 740.964 39.9608 740.771 39.6539 740.632C39.3471 740.492 38.9721 740.423 38.5289 740.423H37.8301V739.485H38.5289C38.8755 739.485 39.1795 739.423 39.4409 739.298C39.7051 739.173 39.911 738.997 40.0588 738.769C40.2093 738.542 40.2846 738.275 40.2846 737.968C40.2846 737.673 40.2193 737.416 40.0886 737.197C39.9579 736.978 39.7733 736.808 39.5346 736.686C39.2988 736.564 39.0204 736.502 38.6994 736.502C38.3983 736.502 38.1142 736.558 37.8471 736.669C37.5829 736.777 37.367 736.934 37.1994 737.142C37.0318 737.346 36.9409 737.593 36.9267 737.883H35.9039C35.921 737.426 36.0588 737.025 36.3173 736.681C36.5758 736.335 36.9139 736.065 37.3315 735.872C37.752 735.679 38.2136 735.582 38.7164 735.582C39.2562 735.582 39.7193 735.691 40.1056 735.91C40.492 736.126 40.7889 736.412 40.9963 736.767C41.2037 737.122 41.3074 737.505 41.3074 737.917C41.3074 738.409 41.1781 738.828 40.9196 739.174C40.6639 739.521 40.3159 739.761 39.8755 739.894V739.963C40.4267 740.054 40.8571 740.288 41.1667 740.666C41.4764 741.041 41.6312 741.505 41.6312 742.059C41.6312 742.534 41.502 742.96 41.2434 743.338C40.9877 743.713 40.6383 744.008 40.1951 744.224C39.752 744.44 39.2477 744.548 38.6824 744.548ZM43.1696 742.639V741.769L47.0048 735.701H47.6355V737.048H47.2093L44.3116 741.633V741.701H49.4764V742.639H43.1696ZM47.2775 744.429V742.375V741.97V735.701H48.2832V744.429H47.2775Z" fill="white"/>
<rect width="85" height="24" transform="translate(0 751)" fill="#5288F2"/>
<rect x="0.5" y="751.5" width="84" height="23" stroke="black"/>
<path d="M38.8816 767.548C38.3191 767.548 37.8176 767.451 37.3773 767.258C36.9398 767.065 36.5918 766.796 36.3333 766.453C36.0776 766.106 35.9384 765.704 35.9157 765.247H36.9895C37.0123 765.528 37.1088 765.771 37.2793 765.975C37.4498 766.177 37.6728 766.333 37.9483 766.444C38.2239 766.555 38.5293 766.61 38.8645 766.61C39.2395 766.61 39.5719 766.545 39.8617 766.414C40.1515 766.284 40.3787 766.102 40.5435 765.869C40.7083 765.636 40.7907 765.366 40.7907 765.059C40.7907 764.738 40.7111 764.456 40.552 764.211C40.3929 763.964 40.16 763.771 39.8532 763.632C39.5463 763.492 39.1713 763.423 38.7282 763.423H38.0293V762.485H38.7282C39.0748 762.485 39.3787 762.423 39.6401 762.298C39.9043 762.173 40.1103 761.997 40.258 761.769C40.4086 761.542 40.4838 761.275 40.4838 760.968C40.4838 760.673 40.4185 760.416 40.2878 760.197C40.1571 759.978 39.9725 759.808 39.7338 759.686C39.498 759.564 39.2196 759.502 38.8986 759.502C38.5975 759.502 38.3134 759.558 38.0463 759.669C37.7821 759.777 37.5662 759.934 37.3986 760.142C37.231 760.346 37.1401 760.593 37.1259 760.883H36.1032C36.1202 760.426 36.258 760.025 36.5165 759.681C36.775 759.335 37.1131 759.065 37.5307 758.872C37.9512 758.679 38.4128 758.582 38.9157 758.582C39.4554 758.582 39.9185 758.691 40.3049 758.91C40.6912 759.126 40.9881 759.412 41.1955 759.767C41.4029 760.122 41.5066 760.505 41.5066 760.917C41.5066 761.409 41.3773 761.828 41.1188 762.174C40.8631 762.521 40.5151 762.761 40.0748 762.894V762.963C40.6259 763.054 41.0563 763.288 41.3659 763.666C41.6756 764.041 41.8304 764.505 41.8304 765.059C41.8304 765.534 41.7012 765.96 41.4426 766.338C41.187 766.713 40.8375 767.008 40.3944 767.224C39.9512 767.44 39.4469 767.548 38.8816 767.548ZM46.3006 767.548C45.8006 767.548 45.3503 767.448 44.9498 767.25C44.5492 767.051 44.2282 766.778 43.9867 766.431C43.7452 766.085 43.6131 765.69 43.5904 765.247H44.6131C44.6529 765.642 44.8319 765.968 45.15 766.227C45.4711 766.483 45.8546 766.61 46.3006 766.61C46.6586 766.61 46.9767 766.527 47.2551 766.359C47.5364 766.191 47.7566 765.961 47.9157 765.669C48.0776 765.373 48.1586 765.039 48.1586 764.667C48.1586 764.287 48.0748 763.947 47.9071 763.649C47.7424 763.348 47.5151 763.11 47.2253 762.937C46.9355 762.764 46.6046 762.676 46.2324 762.673C45.9654 762.67 45.6912 762.711 45.41 762.796C45.1287 762.879 44.8972 762.985 44.7154 763.116L43.7267 762.997L44.2551 758.701H48.7892V759.639H45.1415L44.8347 762.213H44.8858C45.0648 762.071 45.2892 761.953 45.5591 761.859C45.829 761.765 46.1103 761.718 46.4029 761.718C46.937 761.718 47.4128 761.846 47.8304 762.102C48.2509 762.355 48.5804 762.701 48.8191 763.142C49.0605 763.582 49.1813 764.085 49.1813 764.65C49.1813 765.207 49.0563 765.704 48.8063 766.142C48.5591 766.576 48.2182 766.92 47.7836 767.173C47.3489 767.423 46.8546 767.548 46.3006 767.548Z" fill="white"/>
<rect width="85" height="500" transform="translate(0 845)" fill="#5288F2"/>
<rect x="0.5" y="845.5" width="84" height="499" stroke="black"/>
<rect width="85" height="24" transform="translate(0 774)" fill="#1456FF"/>
<rect x="0.5" y="774.5" width="84" height="23" stroke="black"/>
<path d="M38.7878 790.548C38.2253 790.548 37.7239 790.451 37.2836 790.258C36.8461 790.065 36.498 789.796 36.2395 789.453C35.9838 789.106 35.8446 788.704 35.8219 788.247H36.8958C36.9185 788.528 37.0151 788.771 37.1855 788.975C37.356 789.177 37.579 789.333 37.8546 789.444C38.1301 789.555 38.4355 789.61 38.7708 789.61C39.1458 789.61 39.4782 789.545 39.7679 789.414C40.0577 789.284 40.285 789.102 40.4498 788.869C40.6145 788.636 40.6969 788.366 40.6969 788.059C40.6969 787.738 40.6174 787.456 40.4583 787.211C40.2992 786.964 40.0662 786.771 39.7594 786.632C39.4526 786.492 39.0776 786.423 38.6344 786.423H37.9355V785.485H38.6344C38.981 785.485 39.285 785.423 39.5463 785.298C39.8105 785.173 40.0165 784.997 40.1642 784.769C40.3148 784.542 40.3901 784.275 40.3901 783.968C40.3901 783.673 40.3248 783.416 40.1941 783.197C40.0634 782.978 39.8787 782.808 39.6401 782.686C39.4043 782.564 39.1259 782.502 38.8049 782.502C38.5037 782.502 38.2196 782.558 37.9526 782.669C37.6884 782.777 37.4725 782.934 37.3049 783.142C37.1373 783.346 37.0463 783.593 37.0321 783.883H36.0094C36.0265 783.426 36.1642 783.025 36.4228 782.681C36.6813 782.335 37.0194 782.065 37.437 781.872C37.8574 781.679 38.3191 781.582 38.8219 781.582C39.3617 781.582 39.8248 781.691 40.2111 781.91C40.5975 782.126 40.8944 782.412 41.1017 782.767C41.3091 783.122 41.4128 783.505 41.4128 783.917C41.4128 784.409 41.2836 784.828 41.025 785.174C40.7694 785.521 40.4213 785.761 39.981 785.894V785.963C40.5321 786.054 40.9625 786.288 41.2722 786.666C41.5819 787.041 41.7367 787.505 41.7367 788.059C41.7367 788.534 41.6074 788.96 41.3489 789.338C41.0932 789.713 40.7438 790.008 40.3006 790.224C39.8574 790.44 39.3532 790.548 38.7878 790.548ZM46.3773 790.548C46.0194 790.542 45.6614 790.474 45.3034 790.343C44.9455 790.213 44.6188 789.992 44.3233 789.683C44.0279 789.37 43.7907 788.948 43.6117 788.417C43.4327 787.883 43.3432 787.213 43.3432 786.406C43.3432 785.633 43.4157 784.948 43.5605 784.352C43.7054 783.752 43.9157 783.248 44.1912 782.839C44.4668 782.427 44.7992 782.115 45.1884 781.902C45.5804 781.689 46.0222 781.582 46.5137 781.582C47.0023 781.582 47.437 781.68 47.8176 781.876C48.2012 782.069 48.5137 782.339 48.7551 782.686C48.9966 783.032 49.1529 783.431 49.2239 783.883H48.1841C48.0875 783.491 47.9 783.166 47.6216 782.907C47.3432 782.649 46.9739 782.519 46.5137 782.519C45.8375 782.519 45.3049 782.814 44.9157 783.402C44.5293 783.99 44.3347 784.815 44.3319 785.877H44.4C44.5591 785.636 44.748 785.43 44.9668 785.26C45.1884 785.086 45.4327 784.953 45.6998 784.859C45.9668 784.765 46.2495 784.718 46.5478 784.718C47.0478 784.718 47.5051 784.843 47.9199 785.093C48.3347 785.34 48.6671 785.683 48.9171 786.12C49.1671 786.555 49.2921 787.054 49.2921 787.616C49.2921 788.156 49.1713 788.65 48.9299 789.099C48.6884 789.545 48.3489 789.9 47.9114 790.164C47.4767 790.426 46.9654 790.554 46.3773 790.548ZM46.3773 789.61C46.7353 789.61 47.0563 789.521 47.3404 789.342C47.6273 789.163 47.8532 788.923 48.0179 788.622C48.1855 788.321 48.2694 787.985 48.2694 787.616C48.2694 787.255 48.1884 786.927 48.0265 786.632C47.8674 786.333 47.6472 786.096 47.3659 785.92C47.0875 785.744 46.7694 785.656 46.4114 785.656C46.1415 785.656 45.8901 785.71 45.6571 785.818C45.4242 785.923 45.2196 786.068 45.0435 786.252C44.8702 786.437 44.7338 786.649 44.6344 786.887C44.535 787.123 44.4853 787.372 44.4853 787.633C44.4853 787.98 44.5662 788.304 44.7282 788.605C44.8929 788.906 45.1174 789.149 45.4015 789.333C45.6884 789.518 46.0137 789.61 46.3773 789.61Z" fill="white"/>
<rect width="85" height="25" transform="translate(0 797)" fill="#1456FF"/>
<rect x="0.5" y="797.5" width="84" height="24" stroke="black"/>
<path d="M39.1042 813.691C38.5417 813.691 38.0403 813.594 37.6 813.401C37.1625 813.208 36.8145 812.939 36.5559 812.596C36.3002 812.249 36.161 811.847 36.1383 811.39H37.2122C37.2349 811.671 37.3315 811.914 37.502 812.118C37.6724 812.32 37.8954 812.476 38.171 812.587C38.4466 812.698 38.752 812.753 39.0872 812.753C39.4622 812.753 39.7946 812.688 40.0843 812.557C40.3741 812.427 40.6014 812.245 40.7662 812.012C40.9309 811.779 41.0133 811.509 41.0133 811.202C41.0133 810.881 40.9338 810.598 40.7747 810.354C40.6156 810.107 40.3826 809.914 40.0758 809.775C39.769 809.635 39.394 809.566 38.9508 809.566H38.252V808.628H38.9508C39.2974 808.628 39.6014 808.566 39.8627 808.441C40.127 808.316 40.3329 808.14 40.4806 807.912C40.6312 807.685 40.7065 807.418 40.7065 807.111C40.7065 806.816 40.6412 806.559 40.5105 806.34C40.3798 806.121 40.1951 805.951 39.9565 805.829C39.7207 805.706 39.4423 805.645 39.1213 805.645C38.8201 805.645 38.536 805.701 38.269 805.811C38.0048 805.919 37.7889 806.077 37.6213 806.285C37.4537 806.489 37.3627 806.736 37.3485 807.026H36.3258C36.3429 806.569 36.4806 806.168 36.7392 805.824C36.9977 805.478 37.3358 805.208 37.7534 805.015C38.1738 804.821 38.6355 804.725 39.1383 804.725C39.6781 804.725 40.1412 804.834 40.5275 805.053C40.9139 805.269 41.2108 805.554 41.4181 805.91C41.6255 806.265 41.7292 806.648 41.7292 807.06C41.7292 807.552 41.6 807.971 41.3414 808.317C41.0858 808.664 40.7377 808.904 40.2974 809.037V809.106C40.8485 809.196 41.2789 809.431 41.5886 809.809C41.8983 810.184 42.0531 810.648 42.0531 811.202C42.0531 811.677 41.9238 812.103 41.6653 812.481C41.4096 812.856 41.0602 813.151 40.617 813.367C40.1738 813.583 39.6696 813.691 39.1042 813.691ZM44.0687 813.571L47.9721 805.85V805.782H43.4721V804.844H49.063V805.833L45.1767 813.571H44.0687Z" fill="white"/>
<rect width="85" height="25" transform="translate(0 821)" fill="#1456FF"/>
<rect x="0.5" y="821.5" width="84" height="24" stroke="black"/>
<path d="M38.8347 837.691C38.2722 837.691 37.7708 837.594 37.3304 837.401C36.8929 837.208 36.5449 836.939 36.2864 836.596C36.0307 836.249 35.8915 835.847 35.8688 835.39H36.9426C36.9654 835.671 37.062 835.914 37.2324 836.118C37.4029 836.32 37.6259 836.476 37.9015 836.587C38.177 836.698 38.4824 836.753 38.8176 836.753C39.1926 836.753 39.525 836.688 39.8148 836.557C40.1046 836.427 40.3319 836.245 40.4966 836.012C40.6614 835.779 40.7438 835.509 40.7438 835.202C40.7438 834.881 40.6642 834.598 40.5051 834.354C40.3461 834.107 40.1131 833.914 39.8063 833.775C39.4995 833.635 39.1245 833.566 38.6813 833.566H37.9824V832.628H38.6813C39.0279 832.628 39.3319 832.566 39.5932 832.441C39.8574 832.316 40.0634 832.14 40.2111 831.912C40.3617 831.685 40.437 831.418 40.437 831.111C40.437 830.816 40.3716 830.559 40.2409 830.34C40.1103 830.121 39.9256 829.951 39.687 829.829C39.4512 829.706 39.1728 829.645 38.8517 829.645C38.5506 829.645 38.2665 829.701 37.9995 829.811C37.7353 829.919 37.5194 830.077 37.3517 830.285C37.1841 830.489 37.0932 830.736 37.079 831.026H36.0563C36.0733 830.569 36.2111 830.168 36.4696 829.824C36.7282 829.478 37.0662 829.208 37.4838 829.015C37.9043 828.821 38.3659 828.725 38.8688 828.725C39.4086 828.725 39.8716 828.834 40.258 829.053C40.6444 829.269 40.9412 829.554 41.1486 829.91C41.356 830.265 41.4597 830.648 41.4597 831.06C41.4597 831.552 41.3304 831.971 41.0719 832.317C40.8162 832.664 40.4682 832.904 40.0279 833.037V833.106C40.579 833.196 41.0094 833.431 41.3191 833.809C41.6287 834.184 41.7836 834.648 41.7836 835.202C41.7836 835.677 41.6543 836.103 41.3958 836.481C41.1401 836.856 40.7907 837.151 40.3475 837.367C39.9043 837.583 39.4 837.691 38.8347 837.691ZM46.3219 837.691C45.7367 837.691 45.2196 837.587 44.7708 837.38C44.3248 837.169 43.9767 836.881 43.7267 836.515C43.4767 836.145 43.3532 835.725 43.356 835.253C43.3532 834.884 43.4256 834.543 43.5733 834.231C43.7211 833.915 43.9228 833.652 44.1784 833.442C44.437 833.229 44.7253 833.094 45.0435 833.037V832.986C44.6259 832.878 44.2935 832.644 44.0463 832.283C43.7992 831.919 43.677 831.506 43.6799 831.043C43.677 830.6 43.7892 830.204 44.0165 829.854C44.2438 829.505 44.5563 829.229 44.954 829.027C45.3546 828.826 45.8105 828.725 46.3219 828.725C46.8276 828.725 47.2793 828.826 47.677 829.027C48.0748 829.229 48.3873 829.505 48.6145 829.854C48.8446 830.204 48.9611 830.6 48.964 831.043C48.9611 831.506 48.8347 831.919 48.5847 832.283C48.3375 832.644 48.0094 832.878 47.6003 832.986V833.037C47.9157 833.094 48.1998 833.229 48.4526 833.442C48.7054 833.652 48.9071 833.915 49.0577 834.231C49.2083 834.543 49.285 834.884 49.2878 835.253C49.285 835.725 49.1571 836.145 48.9043 836.515C48.6543 836.881 48.3063 837.169 47.8603 837.38C47.4171 837.587 46.9043 837.691 46.3219 837.691ZM46.3219 836.753C46.7168 836.753 47.0577 836.689 47.3446 836.561C47.6316 836.434 47.8532 836.253 48.0094 836.02C48.1657 835.787 48.2452 835.515 48.248 835.202C48.2452 834.873 48.16 834.581 47.9924 834.329C47.8248 834.076 47.5961 833.877 47.3063 833.732C47.0194 833.587 46.6912 833.515 46.3219 833.515C45.9498 833.515 45.6174 833.587 45.3248 833.732C45.035 833.877 44.8063 834.076 44.6387 834.329C44.4739 834.581 44.3929 834.873 44.3958 835.202C44.3929 835.515 44.4682 835.787 44.6216 836.02C44.7779 836.253 45.0009 836.434 45.2907 836.561C45.5804 836.689 45.9242 836.753 46.3219 836.753ZM46.3219 832.611C46.6344 832.611 46.9114 832.549 47.1529 832.424C47.3972 832.299 47.589 832.124 47.7282 831.9C47.8674 831.675 47.9384 831.412 47.9412 831.111C47.9384 830.816 47.8688 830.559 47.7324 830.34C47.5961 830.118 47.4071 829.948 47.1657 829.829C46.9242 829.706 46.6429 829.645 46.3219 829.645C45.9952 829.645 45.7097 829.706 45.4654 829.829C45.2211 829.948 45.0321 830.118 44.8986 830.34C44.7651 830.559 44.6998 830.816 44.7026 831.111C44.6998 831.412 44.7665 831.675 44.9029 831.9C45.0421 832.124 45.2338 832.299 45.4782 832.424C45.7225 832.549 46.0037 832.611 46.3219 832.611Z" fill="white"/>
</svg>
