<svg width="85" height="21" viewBox="0 0 85 21" fill="none" xmlns="http://www.w3.org/2000/svg">
<rect width="85" height="21" fill="#1456FF"/>
<rect x="0.5" y="0.5" width="84" height="20" stroke="black"/>
<path d="M15.7077 15H14.5998L17.8043 6.27273H18.8952L22.0998 15H20.9918L18.3839 7.65341H18.3157L15.7077 15ZM16.1168 11.5909H20.5827V12.5284H16.1168V11.5909ZM27.4478 12.3239V8.45455H28.4535V15H27.4478V13.892H27.3796C27.2262 14.2244 26.9876 14.5071 26.6637 14.7401C26.3398 14.9702 25.9308 15.0852 25.4364 15.0852C25.0273 15.0852 24.6637 14.9957 24.3455 14.8168C24.0273 14.6349 23.7773 14.3622 23.5955 13.9986C23.4137 13.6321 23.3228 13.1705 23.3228 12.6136V8.45455H24.3285V12.5455C24.3285 13.0227 24.462 13.4034 24.729 13.6875C24.9989 13.9716 25.3427 14.1136 25.7603 14.1136C26.0103 14.1136 26.2646 14.0497 26.5231 13.9219C26.7844 13.794 27.0032 13.598 27.1793 13.3338C27.3583 13.0696 27.4478 12.733 27.4478 12.3239ZM34.9318 9.92045L34.0284 10.1761C33.9716 10.0256 33.8878 9.87926 33.777 9.73722C33.669 9.59233 33.5213 9.47301 33.3338 9.37926C33.1463 9.28551 32.9062 9.23864 32.6136 9.23864C32.2131 9.23864 31.8793 9.33097 31.6122 9.51562C31.348 9.69744 31.2159 9.92898 31.2159 10.2102C31.2159 10.4602 31.3068 10.6577 31.4886 10.8026C31.6705 10.9474 31.9545 11.0682 32.3409 11.1648L33.3125 11.4034C33.8977 11.5455 34.3338 11.7628 34.6207 12.0554C34.9077 12.3452 35.0511 12.7187 35.0511 13.1761C35.0511 13.5511 34.9432 13.8864 34.7273 14.1818C34.5142 14.4773 34.2159 14.7102 33.8324 14.8807C33.4489 15.0511 33.0028 15.1364 32.4943 15.1364C31.8267 15.1364 31.2741 14.9915 30.8366 14.7017C30.3991 14.4119 30.1222 13.9886 30.0057 13.4318L30.9602 13.1932C31.0511 13.5455 31.223 13.8097 31.4759 13.9858C31.7315 14.1619 32.0653 14.25 32.4773 14.25C32.946 14.25 33.3182 14.1506 33.5938 13.9517C33.8722 13.75 34.0114 13.5085 34.0114 13.2273C34.0114 13 33.9318 12.8097 33.7727 12.6562C33.6136 12.5 33.3693 12.3835 33.0398 12.3068L31.9489 12.0511C31.3494 11.9091 30.9091 11.6889 30.6278 11.3906C30.3494 11.0895 30.2102 10.7131 30.2102 10.2614C30.2102 9.89205 30.3139 9.56534 30.5213 9.28125C30.7315 8.99716 31.017 8.77415 31.3778 8.61222C31.7415 8.45028 32.1534 8.36932 32.6136 8.36932C33.2614 8.36932 33.7699 8.51136 34.1392 8.79545C34.5114 9.07955 34.7756 9.45455 34.9318 9.92045ZM39.4116 8.45455V9.30682H36.0195V8.45455H39.4116ZM37.0082 6.88636H38.0138V13.125C38.0138 13.4091 38.055 13.6222 38.1374 13.7642C38.2227 13.9034 38.3306 13.9972 38.4613 14.0455C38.5948 14.0909 38.7354 14.1136 38.8832 14.1136C38.994 14.1136 39.0849 14.108 39.1559 14.0966C39.2269 14.0824 39.2837 14.071 39.3263 14.0625L39.5309 14.9659C39.4627 14.9915 39.3675 15.017 39.2454 15.0426C39.1232 15.071 38.9684 15.0852 38.7809 15.0852C38.4968 15.0852 38.2184 15.0241 37.9457 14.902C37.6758 14.7798 37.4513 14.5938 37.2724 14.3438C37.0962 14.0938 37.0082 13.7784 37.0082 13.3977V6.88636ZM40.9244 15V8.45455H41.896V9.44318H41.9641C42.0835 9.11932 42.2994 8.85653 42.6119 8.65483C42.9244 8.45312 43.2766 8.35227 43.6687 8.35227C43.7425 8.35227 43.8349 8.35369 43.9457 8.35653C44.0565 8.35937 44.1403 8.36364 44.1971 8.36932V9.39205C44.163 9.38352 44.0849 9.37074 43.9627 9.35369C43.8434 9.33381 43.717 9.32386 43.5835 9.32386C43.2653 9.32386 42.9812 9.39062 42.7312 9.52415C42.484 9.65483 42.288 9.83665 42.1431 10.0696C42.0011 10.2997 41.93 10.5625 41.93 10.858V15H40.9244ZM47.3153 15.1534C46.9006 15.1534 46.5241 15.0753 46.1861 14.919C45.848 14.7599 45.5795 14.5312 45.3807 14.233C45.1818 13.9318 45.0824 13.5682 45.0824 13.142C45.0824 12.767 45.1563 12.4631 45.304 12.2301C45.4517 11.9943 45.6491 11.8097 45.8963 11.6761C46.1435 11.5426 46.4162 11.4432 46.7145 11.3778C47.0156 11.3097 47.3182 11.2557 47.6222 11.2159C48.0199 11.1648 48.3423 11.1264 48.5895 11.1009C48.8395 11.0724 49.0213 11.0256 49.1349 10.9602C49.2514 10.8949 49.3097 10.7812 49.3097 10.6193V10.5852C49.3097 10.1648 49.1946 9.83807 48.9645 9.60511C48.7372 9.37216 48.392 9.25568 47.929 9.25568C47.4489 9.25568 47.0724 9.3608 46.7997 9.57102C46.527 9.78125 46.3352 10.0057 46.2244 10.2443L45.2699 9.90341C45.4403 9.50568 45.6676 9.19602 45.9517 8.97443C46.2386 8.75 46.5511 8.59375 46.8892 8.50568C47.2301 8.41477 47.5653 8.36932 47.8949 8.36932C48.1051 8.36932 48.3466 8.39489 48.6193 8.44602C48.8949 8.49432 49.1605 8.59517 49.4162 8.74858C49.6747 8.90199 49.8892 9.13352 50.0597 9.44318C50.2301 9.75284 50.3153 10.1676 50.3153 10.6875V15H49.3097V14.1136H49.2585C49.1903 14.2557 49.0767 14.4077 48.9176 14.5696C48.7585 14.7315 48.5469 14.8693 48.2827 14.983C48.0185 15.0966 47.696 15.1534 47.3153 15.1534ZM47.4688 14.25C47.8665 14.25 48.2017 14.1719 48.4744 14.0156C48.75 13.8594 48.9574 13.6577 49.0966 13.4105C49.2386 13.1634 49.3097 12.9034 49.3097 12.6307V11.7102C49.267 11.7614 49.1733 11.8082 49.0284 11.8509C48.8864 11.8906 48.7216 11.9261 48.5341 11.9574C48.3494 11.9858 48.169 12.0114 47.9929 12.0341C47.8196 12.054 47.679 12.071 47.571 12.0852C47.3097 12.1193 47.0653 12.1747 46.8381 12.2514C46.6136 12.3253 46.4318 12.4375 46.2926 12.5881C46.1563 12.7358 46.0881 12.9375 46.0881 13.1932C46.0881 13.5426 46.2173 13.8068 46.4759 13.9858C46.7372 14.1619 47.0682 14.25 47.4688 14.25ZM53.1566 6.27273V15H52.1509V6.27273H53.1566ZM54.9986 15V8.45455H56.0043V15H54.9986ZM55.5099 7.36364C55.3139 7.36364 55.1449 7.29688 55.0028 7.16335C54.8636 7.02983 54.794 6.86932 54.794 6.68182C54.794 6.49432 54.8636 6.33381 55.0028 6.20028C55.1449 6.06676 55.3139 6 55.5099 6C55.706 6 55.8736 6.06676 56.0128 6.20028C56.1548 6.33381 56.2259 6.49432 56.2259 6.68182C56.2259 6.86932 56.1548 7.02983 56.0128 7.16335C55.8736 7.29688 55.706 7.36364 55.5099 7.36364ZM59.7724 15.1534C59.3576 15.1534 58.9812 15.0753 58.6431 14.919C58.305 14.7599 58.0366 14.5312 57.8377 14.233C57.6388 13.9318 57.5394 13.5682 57.5394 13.142C57.5394 12.767 57.6133 12.4631 57.761 12.2301C57.9087 11.9943 58.1062 11.8097 58.3533 11.6761C58.6005 11.5426 58.8732 11.4432 59.1715 11.3778C59.4727 11.3097 59.7752 11.2557 60.0792 11.2159C60.4769 11.1648 60.7994 11.1264 61.0465 11.1009C61.2965 11.0724 61.4783 11.0256 61.592 10.9602C61.7085 10.8949 61.7667 10.7812 61.7667 10.6193V10.5852C61.7667 10.1648 61.6516 9.83807 61.4215 9.60511C61.1942 9.37216 60.8491 9.25568 60.386 9.25568C59.9059 9.25568 59.5295 9.3608 59.2567 9.57102C58.984 9.78125 58.7923 10.0057 58.6815 10.2443L57.7269 9.90341C57.8974 9.50568 58.1246 9.19602 58.4087 8.97443C58.6957 8.75 59.0082 8.59375 59.3462 8.50568C59.6871 8.41477 60.0224 8.36932 60.3519 8.36932C60.5621 8.36932 60.8036 8.39489 61.0763 8.44602C61.3519 8.49432 61.6175 8.59517 61.8732 8.74858C62.1317 8.90199 62.3462 9.13352 62.5167 9.44318C62.6871 9.75284 62.7724 10.1676 62.7724 10.6875V15H61.7667V14.1136H61.7156C61.6474 14.2557 61.5337 14.4077 61.3746 14.5696C61.2156 14.7315 61.0039 14.8693 60.7397 14.983C60.4755 15.0966 60.1531 15.1534 59.7724 15.1534ZM59.9258 14.25C60.3235 14.25 60.6587 14.1719 60.9315 14.0156C61.207 13.8594 61.4144 13.6577 61.5536 13.4105C61.6957 13.1634 61.7667 12.9034 61.7667 12.6307V11.7102C61.7241 11.7614 61.6303 11.8082 61.4854 11.8509C61.3434 11.8906 61.1786 11.9261 60.9911 11.9574C60.8065 11.9858 60.6261 12.0114 60.4499 12.0341C60.2766 12.054 60.136 12.071 60.0281 12.0852C59.7667 12.1193 59.5224 12.1747 59.2951 12.2514C59.0707 12.3253 58.8888 12.4375 58.7496 12.5881C58.6133 12.7358 58.5451 12.9375 58.5451 13.1932C58.5451 13.5426 58.6744 13.8068 58.9329 13.9858C59.1942 14.1619 59.5252 14.25 59.9258 14.25ZM65.6136 11.0625V15H64.608V8.45455H65.5795V9.47727H65.6648C65.8182 9.14489 66.0511 8.87784 66.3636 8.67614C66.6761 8.47159 67.0795 8.36932 67.5739 8.36932C68.017 8.36932 68.4048 8.46023 68.7372 8.64205C69.0696 8.82102 69.3281 9.09375 69.5128 9.46023C69.6974 9.82386 69.7898 10.2841 69.7898 10.8409V15H68.7841V10.9091C68.7841 10.3949 68.6506 9.99432 68.3835 9.70739C68.1165 9.41761 67.75 9.27273 67.2841 9.27273C66.9631 9.27273 66.6761 9.34233 66.4233 9.48153C66.1733 9.62074 65.9759 9.82386 65.831 10.0909C65.6861 10.358 65.6136 10.6818 65.6136 11.0625Z" fill="white"/>
</svg>
