<svg width="85" height="1345" viewBox="0 0 85 1345" fill="none" xmlns="http://www.w3.org/2000/svg">
<rect width="85" height="13" transform="translate(0 263)" fill="#59B54A"/>
<rect x="0.5" y="263.5" width="84" height="12" stroke="black"/>
<path d="M39.3493 272.067V271.198L43.1845 265.13H43.8152V266.476H43.389L40.4913 271.062V271.13H45.6561V272.067H39.3493ZM43.4572 273.857V271.803V271.398V265.13H44.4629V273.857H43.4572Z" fill="white"/>
<rect width="85" height="13" transform="translate(0 275)" fill="#59B54A"/>
<rect x="0.5" y="275.5" width="84" height="12" stroke="black"/>
<path d="M35.3942 284.067V283.198L39.2294 277.13H39.8601V278.476H39.4339L36.5362 283.062V283.13H41.701V284.067H35.3942ZM39.5021 285.857V283.803V283.398V277.13H40.5078V285.857H39.5021ZM45.8718 284.323V278.698H46.8263V284.323H45.8718ZM43.5366 281.988V281.033H49.1616V281.988H43.5366Z" fill="white"/>
<rect width="85" height="13" transform="translate(0 287)" fill="#59B54A"/>
<rect x="0.5" y="287.5" width="84" height="12" stroke="black"/>
<path d="M42.4803 297.976C41.9803 297.976 41.53 297.877 41.1294 297.678C40.7289 297.479 40.4078 297.207 40.1664 296.86C39.9249 296.513 39.7928 296.119 39.7701 295.675H40.7928C40.8326 296.07 41.0115 296.397 41.3297 296.655C41.6507 296.911 42.0343 297.039 42.4803 297.039C42.8382 297.039 43.1564 296.955 43.4348 296.788C43.7161 296.62 43.9363 296.39 44.0953 296.097C44.2573 295.802 44.3382 295.468 44.3382 295.096C44.3382 294.715 44.2544 294.376 44.0868 294.077C43.9221 293.776 43.6948 293.539 43.405 293.366C43.1152 293.192 42.7843 293.104 42.4121 293.101C42.1451 293.099 41.8709 293.14 41.5897 293.225C41.3084 293.307 41.0769 293.414 40.8951 293.545L39.9064 293.425L40.4348 289.13H44.9689V290.067H41.3212L41.0144 292.641H41.0655C41.2445 292.499 41.4689 292.381 41.7388 292.288C42.0087 292.194 42.29 292.147 42.5826 292.147C43.1167 292.147 43.5925 292.275 44.0101 292.53C44.4306 292.783 44.7601 293.13 44.9988 293.57C45.2402 294.011 45.361 294.513 45.361 295.079C45.361 295.636 45.236 296.133 44.986 296.57C44.7388 297.005 44.3979 297.349 43.9632 297.601C43.5286 297.851 43.0343 297.976 42.4803 297.976Z" fill="white"/>
<rect width="85" height="13" transform="translate(0 298)" fill="#59B54A"/>
<rect x="0.5" y="298.5" width="84" height="12" stroke="black"/>
<path d="M38.5252 308.976C38.0252 308.976 37.5749 308.877 37.1744 308.678C36.7738 308.479 36.4528 308.207 36.2113 307.86C35.9698 307.513 35.8377 307.119 35.815 306.675H36.8377C36.8775 307.07 37.0565 307.397 37.3746 307.655C37.6957 307.911 38.0792 308.039 38.5252 308.039C38.8832 308.039 39.2013 307.955 39.4798 307.788C39.761 307.62 39.9812 307.39 40.1403 307.097C40.3022 306.802 40.3832 306.468 40.3832 306.096C40.3832 305.715 40.2994 305.376 40.1317 305.077C39.967 304.776 39.7397 304.539 39.4499 304.366C39.1602 304.192 38.8292 304.104 38.457 304.101C38.19 304.099 37.9158 304.14 37.6346 304.225C37.3533 304.307 37.1218 304.414 36.94 304.545L35.9513 304.425L36.4798 300.13H41.0138V301.067H37.3661L37.0593 303.641H37.1104C37.2894 303.499 37.5138 303.381 37.7837 303.288C38.0536 303.194 38.3349 303.147 38.6275 303.147C39.1616 303.147 39.6374 303.275 40.055 303.53C40.4755 303.783 40.805 304.13 41.0437 304.57C41.2852 305.011 41.4059 305.513 41.4059 306.079C41.4059 306.636 41.2809 307.133 41.0309 307.57C40.7837 308.005 40.4428 308.349 40.0082 308.601C39.5735 308.851 39.0792 308.976 38.5252 308.976ZM45.6726 307.323V301.698H46.6271V307.323H45.6726ZM43.3374 304.988V304.033H48.9624V304.988H43.3374Z" fill="white"/>
<rect width="85" height="34" transform="translate(0 310)" fill="#257618"/>
<rect x="0.5" y="310.5" width="84" height="33" stroke="black"/>
<path d="M39.1761 326.976C38.8182 326.971 38.4602 326.903 38.1023 326.772C37.7443 326.641 37.4176 326.421 37.1222 326.111C36.8267 325.799 36.5895 325.377 36.4105 324.846C36.2315 324.312 36.142 323.641 36.142 322.834C36.142 322.062 36.2145 321.377 36.3594 320.78C36.5043 320.181 36.7145 319.677 36.9901 319.268C37.2656 318.856 37.598 318.543 37.9872 318.33C38.3793 318.117 38.821 318.011 39.3125 318.011C39.8011 318.011 40.2358 318.109 40.6165 318.305C41 318.498 41.3125 318.768 41.554 319.114C41.7955 319.461 41.9517 319.86 42.0227 320.312H40.983C40.8864 319.92 40.6989 319.594 40.4205 319.336C40.142 319.077 39.7727 318.948 39.3125 318.948C38.6364 318.948 38.1037 319.242 37.7145 319.83C37.3281 320.418 37.1335 321.244 37.1307 322.306H37.1989C37.358 322.065 37.5469 321.859 37.7656 321.688C37.9872 321.515 38.2315 321.381 38.4986 321.288C38.7656 321.194 39.0483 321.147 39.3466 321.147C39.8466 321.147 40.304 321.272 40.7188 321.522C41.1335 321.769 41.4659 322.111 41.7159 322.549C41.9659 322.984 42.0909 323.482 42.0909 324.045C42.0909 324.584 41.9702 325.079 41.7287 325.528C41.4872 325.974 41.1477 326.329 40.7102 326.593C40.2756 326.854 39.7642 326.982 39.1761 326.976ZM39.1761 326.039C39.5341 326.039 39.8551 325.949 40.1392 325.77C40.4261 325.592 40.652 325.351 40.8168 325.05C40.9844 324.749 41.0682 324.414 41.0682 324.045C41.0682 323.684 40.9872 323.356 40.8253 323.06C40.6662 322.762 40.446 322.525 40.1648 322.349C39.8864 322.172 39.5682 322.084 39.2102 322.084C38.9403 322.084 38.6889 322.138 38.456 322.246C38.223 322.351 38.0185 322.496 37.8423 322.681C37.669 322.866 37.5327 323.077 37.4332 323.316C37.3338 323.552 37.2841 323.8 37.2841 324.062C37.2841 324.408 37.3651 324.732 37.527 325.033C37.6918 325.334 37.9162 325.577 38.2003 325.762C38.4872 325.947 38.8125 326.039 39.1761 326.039ZM45.7099 327.011C45.2951 327.011 44.9187 326.932 44.5806 326.776C44.2425 326.617 43.9741 326.388 43.7752 326.09C43.5763 325.789 43.4769 325.425 43.4769 324.999C43.4769 324.624 43.5508 324.32 43.6985 324.087C43.8462 323.851 44.0437 323.667 44.2908 323.533C44.538 323.4 44.8107 323.3 45.109 323.235C45.4102 323.167 45.7127 323.113 46.0167 323.073C46.4144 323.022 46.7369 322.984 46.984 322.958C47.234 322.93 47.4158 322.883 47.5295 322.817C47.646 322.752 47.7042 322.638 47.7042 322.476V322.442C47.7042 322.022 47.5891 321.695 47.359 321.462C47.1317 321.229 46.7866 321.113 46.3235 321.113C45.8434 321.113 45.467 321.218 45.1942 321.428C44.9215 321.638 44.7298 321.863 44.619 322.101L43.6644 321.761C43.8349 321.363 44.0621 321.053 44.3462 320.832C44.6332 320.607 44.9457 320.451 45.2837 320.363C45.6246 320.272 45.9599 320.226 46.2894 320.226C46.4996 320.226 46.7411 320.252 47.0138 320.303C47.2894 320.351 47.555 320.452 47.8107 320.606C48.0692 320.759 48.2837 320.991 48.4542 321.3C48.6246 321.61 48.7099 322.025 48.7099 322.545V326.857H47.7042V325.971H47.6531C47.5849 326.113 47.4712 326.265 47.3121 326.427C47.1531 326.589 46.9414 326.726 46.6772 326.84C46.413 326.954 46.0906 327.011 45.7099 327.011ZM45.8633 326.107C46.261 326.107 46.5962 326.029 46.869 325.873C47.1445 325.717 47.3519 325.515 47.4911 325.268C47.6332 325.02 47.7042 324.761 47.7042 324.488V323.567C47.6616 323.619 47.5678 323.665 47.4229 323.708C47.2809 323.748 47.1161 323.783 46.9286 323.815C46.744 323.843 46.5636 323.869 46.3874 323.891C46.2141 323.911 46.0735 323.928 45.9656 323.942C45.7042 323.976 45.4599 324.032 45.2326 324.109C45.0082 324.182 44.8263 324.295 44.6871 324.445C44.5508 324.593 44.4826 324.795 44.4826 325.05C44.4826 325.4 44.6119 325.664 44.8704 325.843C45.1317 326.019 45.4627 326.107 45.8633 326.107Z" fill="white"/>
<rect width="85" height="264" fill="#257618"/>
<rect x="0.5" y="0.5" width="84" height="263" stroke="black"/>
<rect width="85" height="25" transform="translate(0 343)" fill="#257618"/>
<rect x="0.5" y="343.5" width="84" height="24" stroke="black"/>
<path d="M38.8304 358.691C38.4725 358.685 38.1145 358.617 37.7566 358.486C37.3986 358.356 37.0719 358.135 36.7765 357.826C36.481 357.513 36.2438 357.091 36.0648 356.56C35.8858 356.026 35.7963 355.356 35.7963 354.549C35.7963 353.776 35.8688 353.091 36.0137 352.495C36.1586 351.895 36.3688 351.391 36.6444 350.982C36.9199 350.57 37.2523 350.258 37.6415 350.044C38.0336 349.831 38.4753 349.725 38.9668 349.725C39.4554 349.725 39.8901 349.823 40.2708 350.019C40.6543 350.212 40.9668 350.482 41.2083 350.829C41.4498 351.175 41.606 351.574 41.677 352.026H40.6373C40.5407 351.634 40.3532 351.309 40.0748 351.05C39.7963 350.792 39.427 350.662 38.9668 350.662C38.2907 350.662 37.758 350.956 37.3688 351.544C36.9824 352.133 36.7878 352.958 36.785 354.02H36.8532C37.0123 353.779 37.2012 353.573 37.4199 353.402C37.6415 353.229 37.8858 353.096 38.1529 353.002C38.4199 352.908 38.7026 352.861 39.0009 352.861C39.5009 352.861 39.9583 352.986 40.373 353.236C40.7878 353.483 41.1202 353.826 41.3702 354.263C41.6202 354.698 41.7452 355.196 41.7452 355.759C41.7452 356.299 41.6245 356.793 41.383 357.242C41.1415 357.688 40.802 358.043 40.3645 358.307C39.9299 358.569 39.4185 358.696 38.8304 358.691ZM38.8304 357.753C39.1884 357.753 39.5094 357.664 39.7935 357.485C40.0804 357.306 40.3063 357.066 40.4711 356.765C40.6387 356.463 40.7225 356.128 40.7225 355.759C40.7225 355.398 40.6415 355.07 40.4796 354.775C40.3205 354.476 40.1003 354.239 39.8191 354.063C39.5407 353.887 39.2225 353.799 38.8645 353.799C38.5946 353.799 38.3432 353.853 38.1103 353.961C37.8773 354.066 37.6728 354.211 37.4966 354.395C37.3233 354.58 37.187 354.792 37.0875 355.03C36.9881 355.266 36.9384 355.515 36.9384 355.776C36.9384 356.123 37.0194 356.446 37.1813 356.748C37.3461 357.049 37.5705 357.292 37.8546 357.476C38.1415 357.661 38.4668 357.753 38.8304 357.753ZM43.5744 358.571V349.844H44.5801V353.066H44.6653C44.7392 352.952 44.8414 352.807 44.9721 352.631C45.1056 352.452 45.296 352.293 45.5431 352.154C45.7931 352.012 46.1312 351.941 46.5574 351.941C47.1085 351.941 47.5943 352.079 48.0147 352.354C48.4352 352.63 48.7633 353.02 48.9991 353.526C49.2349 354.032 49.3528 354.628 49.3528 355.316C49.3528 356.009 49.2349 356.61 48.9991 357.118C48.7633 357.624 48.4366 358.016 48.019 358.294C47.6014 358.57 47.1199 358.708 46.5744 358.708C46.1539 358.708 45.8173 358.638 45.5645 358.499C45.3116 358.357 45.117 358.196 44.9806 358.017C44.8443 357.836 44.7392 357.685 44.6653 357.566H44.546V358.571H43.5744ZM44.563 355.299C44.563 355.793 44.6355 356.229 44.7804 356.607C44.9252 356.982 45.1369 357.276 45.4153 357.489C45.6937 357.699 46.0346 357.804 46.438 357.804C46.8585 357.804 47.2093 357.694 47.4906 357.472C47.7747 357.248 47.9877 356.946 48.1298 356.569C48.2747 356.188 48.3471 355.765 48.3471 355.299C48.3471 354.838 48.2761 354.424 48.1341 354.054C47.9949 353.682 47.7832 353.388 47.4991 353.172C47.2179 352.954 46.8642 352.844 46.438 352.844C46.0289 352.844 45.6852 352.948 45.4068 353.155C45.1284 353.36 44.9181 353.647 44.7761 354.016C44.6341 354.383 44.563 354.81 44.563 355.299Z" fill="white"/>
<rect width="85" height="36" transform="translate(0 367)" fill="#257618"/>
<rect x="0.5" y="367.5" width="84" height="35" stroke="black"/>
<path d="M39.2054 384.262C38.8475 384.256 38.4895 384.188 38.1316 384.058C37.7736 383.927 37.4469 383.707 37.1515 383.397C36.856 383.085 36.6188 382.663 36.4398 382.131C36.2608 381.597 36.1713 380.927 36.1713 380.12C36.1713 379.347 36.2438 378.663 36.3887 378.066C36.5336 377.467 36.7438 376.962 37.0194 376.553C37.2949 376.141 37.6273 375.829 38.0165 375.616C38.4086 375.403 38.8503 375.296 39.3418 375.296C39.8304 375.296 40.2651 375.394 40.6458 375.59C41.0293 375.783 41.3418 376.053 41.5833 376.4C41.8248 376.747 41.981 377.146 42.052 377.597H41.0123C40.9157 377.205 40.7282 376.88 40.4498 376.622C40.1713 376.363 39.802 376.234 39.3418 376.234C38.6657 376.234 38.133 376.528 37.7438 377.116C37.3574 377.704 37.1628 378.529 37.16 379.592H37.2282C37.3873 379.35 37.5762 379.144 37.7949 378.974C38.0165 378.801 38.2608 378.667 38.5279 378.573C38.7949 378.48 39.0776 378.433 39.3759 378.433C39.8759 378.433 40.3333 378.558 40.748 378.808C41.1628 379.055 41.4952 379.397 41.7452 379.835C41.9952 380.269 42.1202 380.768 42.1202 381.33C42.1202 381.87 41.9995 382.364 41.758 382.813C41.5165 383.259 41.177 383.614 40.7395 383.879C40.3049 384.14 39.7935 384.268 39.2054 384.262ZM39.2054 383.325C39.5634 383.325 39.8844 383.235 40.1685 383.056C40.4554 382.877 40.6813 382.637 40.8461 382.336C41.0137 382.035 41.0975 381.7 41.0975 381.33C41.0975 380.97 41.0165 380.641 40.8546 380.346C40.6955 380.048 40.4753 379.81 40.1941 379.634C39.9157 379.458 39.5975 379.37 39.2395 379.37C38.9696 379.37 38.7182 379.424 38.4853 379.532C38.2523 379.637 38.0478 379.782 37.8716 379.967C37.6983 380.151 37.562 380.363 37.4625 380.602C37.3631 380.837 37.3134 381.086 37.3134 381.347C37.3134 381.694 37.3944 382.018 37.5563 382.319C37.7211 382.62 37.9455 382.863 38.2296 383.048C38.5165 383.232 38.8418 383.325 39.2054 383.325ZM46.4721 384.279C45.8585 384.279 45.3301 384.134 44.8869 383.845C44.4437 383.555 44.1028 383.156 43.8642 382.647C43.6255 382.139 43.5062 381.558 43.5062 380.904C43.5062 380.239 43.6284 379.653 43.8727 379.144C44.1199 378.633 44.4636 378.234 44.9039 377.947C45.3471 377.657 45.8642 377.512 46.4551 377.512C46.9153 377.512 47.3301 377.597 47.6994 377.768C48.0687 377.938 48.3713 378.177 48.6071 378.484C48.8429 378.791 48.9892 379.149 49.046 379.558H48.0403C47.9636 379.259 47.7931 378.995 47.5289 378.765C47.2676 378.532 46.9153 378.416 46.4721 378.416C46.0801 378.416 45.7363 378.518 45.4409 378.722C45.1483 378.924 44.9196 379.21 44.7548 379.579C44.5929 379.945 44.5119 380.376 44.5119 380.87C44.5119 381.376 44.5914 381.816 44.7505 382.191C44.9125 382.566 45.1397 382.857 45.4324 383.065C45.7278 383.272 46.0744 383.376 46.4721 383.376C46.7335 383.376 46.9707 383.33 47.1838 383.239C47.3968 383.149 47.5772 383.018 47.725 382.847C47.8727 382.677 47.9778 382.472 48.0403 382.234H49.046C48.9892 382.62 48.8485 382.968 48.6241 383.278C48.4025 383.585 48.1085 383.829 47.742 384.011C47.3784 384.19 46.9551 384.279 46.4721 384.279Z" fill="white"/>
<rect width="85" height="36" transform="translate(0 402)" fill="#59B54A"/>
<rect x="0.5" y="402.5" width="84" height="35" stroke="black"/>
<path d="M37.1429 419.143L41.0463 411.421V411.353H36.5463V410.416H42.1373V411.404L38.2509 419.143H37.1429ZM45.1181 419.296C44.7033 419.296 44.3269 419.218 43.9888 419.062C43.6507 418.903 43.3823 418.674 43.1834 418.376C42.9846 418.075 42.8851 417.711 42.8851 417.285C42.8851 416.91 42.959 416.606 43.1067 416.373C43.2544 416.137 43.4519 415.953 43.699 415.819C43.9462 415.685 44.2189 415.586 44.5172 415.521C44.8184 415.453 45.1209 415.399 45.4249 415.359C45.8226 415.308 46.1451 415.269 46.3922 415.244C46.6422 415.215 46.824 415.168 46.9377 415.103C47.0542 415.038 47.1124 414.924 47.1124 414.762V414.728C47.1124 414.308 46.9973 413.981 46.7672 413.748C46.54 413.515 46.1948 413.399 45.7317 413.399C45.2516 413.399 44.8752 413.504 44.6025 413.714C44.3297 413.924 44.138 414.149 44.0272 414.387L43.0726 414.046C43.2431 413.649 43.4703 413.339 43.7544 413.117C44.0414 412.893 44.3539 412.737 44.6919 412.649C45.0328 412.558 45.3681 412.512 45.6976 412.512C45.9078 412.512 46.1493 412.538 46.4221 412.589C46.6976 412.637 46.9632 412.738 47.2189 412.891C47.4775 413.045 47.6919 413.276 47.8624 413.586C48.0328 413.896 48.1181 414.31 48.1181 414.83V419.143H47.1124V418.256H47.0613C46.9931 418.399 46.8794 418.551 46.7203 418.712C46.5613 418.874 46.3496 419.012 46.0854 419.126C45.8212 419.239 45.4988 419.296 45.1181 419.296ZM45.2715 418.393C45.6692 418.393 46.0044 418.315 46.2772 418.158C46.5527 418.002 46.7601 417.801 46.8993 417.553C47.0414 417.306 47.1124 417.046 47.1124 416.774V415.853C47.0698 415.904 46.976 415.951 46.8311 415.994C46.6891 416.033 46.5243 416.069 46.3368 416.1C46.1522 416.129 45.9718 416.154 45.7956 416.177C45.6223 416.197 45.4817 416.214 45.3738 416.228C45.1124 416.262 44.8681 416.318 44.6408 416.394C44.4164 416.468 44.2346 416.58 44.0953 416.731C43.959 416.879 43.8908 417.08 43.8908 417.336C43.8908 417.685 44.0201 417.95 44.2786 418.129C44.54 418.305 44.8709 418.393 45.2715 418.393Z" fill="white"/>
<rect width="85" height="24" transform="translate(0 437)" fill="#59B54A"/>
<rect x="0.5" y="437.5" width="84" height="23" stroke="black"/>
<path d="M36.5218 452.429L40.4252 444.707V444.639H35.9252V443.701H41.5162V444.69L37.6298 452.429H36.5218ZM43.258 452.429V443.701H44.2637V446.923H44.3489C44.4228 446.809 44.525 446.664 44.6557 446.488C44.7892 446.309 44.9796 446.15 45.2267 446.011C45.4767 445.869 45.8148 445.798 46.2409 445.798C46.7921 445.798 47.2779 445.936 47.6983 446.211C48.1188 446.487 48.4469 446.877 48.6827 447.383C48.9185 447.889 49.0364 448.485 49.0364 449.173C49.0364 449.866 48.9185 450.467 48.6827 450.975C48.4469 451.481 48.1202 451.873 47.7026 452.152C47.285 452.427 46.8034 452.565 46.258 452.565C45.8375 452.565 45.5009 452.495 45.248 452.356C44.9952 452.214 44.8006 452.054 44.6642 451.875C44.5279 451.693 44.4228 451.542 44.3489 451.423H44.2296V452.429H43.258ZM44.2466 449.156C44.2466 449.65 44.3191 450.086 44.464 450.464C44.6088 450.839 44.8205 451.133 45.0989 451.346C45.3773 451.556 45.7182 451.662 46.1216 451.662C46.5421 451.662 46.8929 451.551 47.1742 451.329C47.4583 451.105 47.6713 450.804 47.8134 450.426C47.9583 450.045 48.0307 449.622 48.0307 449.156C48.0307 448.696 47.9597 448.281 47.8176 447.912C47.6784 447.539 47.4668 447.245 47.1827 447.029C46.9015 446.811 46.5478 446.701 46.1216 446.701C45.7125 446.701 45.3688 446.805 45.0904 447.012C44.812 447.217 44.6017 447.504 44.4597 447.873C44.3176 448.24 44.2466 448.667 44.2466 449.156Z" fill="white"/>
<rect width="85" height="35" transform="translate(0 460)" fill="#59B54A"/>
<rect x="0.5" y="460.5" width="84" height="34" stroke="black"/>
<path d="M37.2015 477L41.1049 469.278V469.21H36.6049V468.273H42.1958V469.261L38.3095 477H37.2015ZM45.851 477.136C45.2374 477.136 44.709 476.991 44.2658 476.702C43.8226 476.412 43.4817 476.013 43.2431 475.504C43.0044 474.996 42.8851 474.415 42.8851 473.761C42.8851 473.097 43.0073 472.51 43.2516 472.001C43.4988 471.49 43.8425 471.091 44.2828 470.804C44.726 470.514 45.2431 470.369 45.834 470.369C46.2942 470.369 46.709 470.455 47.0783 470.625C47.4476 470.795 47.7502 471.034 47.986 471.341C48.2218 471.648 48.3681 472.006 48.4249 472.415H47.4192C47.3425 472.116 47.1721 471.852 46.9078 471.622C46.6465 471.389 46.2942 471.273 45.851 471.273C45.459 471.273 45.1152 471.375 44.8198 471.58C44.5272 471.781 44.2985 472.067 44.1337 472.436C43.9718 472.803 43.8908 473.233 43.8908 473.727C43.8908 474.233 43.9703 474.673 44.1294 475.048C44.2914 475.423 44.5186 475.714 44.8113 475.922C45.1067 476.129 45.4533 476.233 45.851 476.233C46.1124 476.233 46.3496 476.188 46.5627 476.097C46.7757 476.006 46.9561 475.875 47.1039 475.705C47.2516 475.534 47.3567 475.33 47.4192 475.091H48.4249C48.3681 475.477 48.2275 475.825 48.003 476.135C47.7814 476.442 47.4874 476.686 47.1209 476.868C46.7573 477.047 46.334 477.136 45.851 477.136Z" fill="white"/>
<rect width="85" height="26" transform="translate(0 494)" fill="#257618"/>
<rect x="0.5" y="494.5" width="84" height="25" stroke="black"/>
<path d="M39.1207 509.834C38.5355 509.834 38.0185 509.73 37.5696 509.523C37.1236 509.312 36.7756 509.024 36.5256 508.657C36.2756 508.288 36.152 507.868 36.1548 507.396C36.152 507.027 36.2244 506.686 36.3722 506.373C36.5199 506.058 36.7216 505.795 36.9773 505.585C37.2358 505.372 37.5241 505.237 37.8423 505.18V505.129C37.4247 505.021 37.0923 504.787 36.8452 504.426C36.598 504.062 36.4759 503.649 36.4787 503.186C36.4759 502.743 36.5881 502.346 36.8153 501.997C37.0426 501.648 37.3551 501.372 37.7528 501.17C38.1534 500.969 38.6094 500.868 39.1207 500.868C39.6264 500.868 40.0781 500.969 40.4759 501.17C40.8736 501.372 41.1861 501.648 41.4134 501.997C41.6435 502.346 41.7599 502.743 41.7628 503.186C41.7599 503.649 41.6335 504.062 41.3835 504.426C41.1364 504.787 40.8082 505.021 40.3991 505.129V505.18C40.7145 505.237 40.9986 505.372 41.2514 505.585C41.5043 505.795 41.706 506.058 41.8565 506.373C42.0071 506.686 42.0838 507.027 42.0866 507.396C42.0838 507.868 41.956 508.288 41.7031 508.657C41.4531 509.024 41.1051 509.312 40.6591 509.523C40.2159 509.73 39.7031 509.834 39.1207 509.834ZM39.1207 508.896C39.5156 508.896 39.8565 508.832 40.1435 508.704C40.4304 508.577 40.652 508.396 40.8082 508.163C40.9645 507.93 41.044 507.657 41.0469 507.345C41.044 507.015 40.9588 506.724 40.7912 506.471C40.6236 506.219 40.3949 506.02 40.1051 505.875C39.8182 505.73 39.4901 505.657 39.1207 505.657C38.7486 505.657 38.4162 505.73 38.1236 505.875C37.8338 506.02 37.6051 506.219 37.4375 506.471C37.2727 506.724 37.1918 507.015 37.1946 507.345C37.1918 507.657 37.267 507.93 37.4205 508.163C37.5767 508.396 37.7997 508.577 38.0895 508.704C38.3793 508.832 38.723 508.896 39.1207 508.896ZM39.1207 504.754C39.4332 504.754 39.7102 504.692 39.9517 504.567C40.196 504.442 40.3878 504.267 40.527 504.042C40.6662 503.818 40.7372 503.555 40.7401 503.254C40.7372 502.959 40.6676 502.702 40.5312 502.483C40.3949 502.261 40.206 502.091 39.9645 501.971C39.723 501.849 39.4418 501.788 39.1207 501.788C38.794 501.788 38.5085 501.849 38.2642 501.971C38.0199 502.091 37.831 502.261 37.6974 502.483C37.5639 502.702 37.4986 502.959 37.5014 503.254C37.4986 503.555 37.5653 503.818 37.7017 504.042C37.8409 504.267 38.0327 504.442 38.277 504.567C38.5213 504.692 38.8026 504.754 39.1207 504.754ZM45.663 509.868C45.2482 509.868 44.8718 509.79 44.5337 509.633C44.1957 509.474 43.9272 509.246 43.7283 508.947C43.5295 508.646 43.43 508.282 43.43 507.856C43.43 507.481 43.5039 507.177 43.6516 506.944C43.7994 506.709 43.9968 506.524 44.244 506.39C44.4911 506.257 44.7638 506.157 45.0621 506.092C45.3633 506.024 45.6658 505.97 45.9698 505.93C46.3675 505.879 46.69 505.841 46.9371 505.815C47.1871 505.787 47.369 505.74 47.4826 505.675C47.5991 505.609 47.6573 505.496 47.6573 505.334V505.3C47.6573 504.879 47.5423 504.552 47.3121 504.319C47.0849 504.086 46.7397 503.97 46.2766 503.97C45.7965 503.97 45.4201 504.075 45.1474 504.285C44.8746 504.496 44.6829 504.72 44.5721 504.959L43.6175 504.618C43.788 504.22 44.0153 503.91 44.2994 503.689C44.5863 503.464 44.8988 503.308 45.2369 503.22C45.5778 503.129 45.913 503.084 46.2425 503.084C46.4528 503.084 46.6942 503.109 46.967 503.16C47.2425 503.209 47.5082 503.309 47.7638 503.463C48.0224 503.616 48.2369 503.848 48.4073 504.157C48.5778 504.467 48.663 504.882 48.663 505.402V509.714H47.6573V508.828H47.6062C47.538 508.97 47.4244 509.122 47.2653 509.284C47.1062 509.446 46.8945 509.584 46.6303 509.697C46.3661 509.811 46.0437 509.868 45.663 509.868ZM45.8164 508.964C46.2141 508.964 46.5494 508.886 46.8221 508.73C47.0977 508.574 47.305 508.372 47.4442 508.125C47.5863 507.878 47.6573 507.618 47.6573 507.345V506.425C47.6147 506.476 47.521 506.523 47.3761 506.565C47.234 506.605 47.0692 506.64 46.8817 506.672C46.6971 506.7 46.5167 506.726 46.3406 506.748C46.1673 506.768 46.0266 506.785 45.9187 506.8C45.6573 506.834 45.413 506.889 45.1857 506.966C44.9613 507.04 44.7795 507.152 44.6403 507.302C44.5039 507.45 44.4357 507.652 44.4357 507.907C44.4357 508.257 44.565 508.521 44.8235 508.7C45.0849 508.876 45.4158 508.964 45.8164 508.964Z" fill="white"/>
<rect width="85" height="24" transform="translate(0 519)" fill="#257618"/>
<rect x="0.5" y="519.5" width="84" height="23" stroke="black"/>
<path d="M38.775 534.548C38.1898 534.548 37.6728 534.444 37.2239 534.237C36.7779 534.027 36.4299 533.738 36.1799 533.372C35.9299 533.002 35.8063 532.582 35.8091 532.11C35.8063 531.741 35.8787 531.4 36.0265 531.088C36.1742 530.772 36.3759 530.51 36.6316 530.299C36.8901 530.086 37.1784 529.951 37.4966 529.894V529.843C37.079 529.735 36.7466 529.501 36.4995 529.14C36.2523 528.777 36.1301 528.363 36.133 527.9C36.1301 527.457 36.2424 527.061 36.4696 526.711C36.6969 526.362 37.0094 526.086 37.4071 525.885C37.8077 525.683 38.2637 525.582 38.775 525.582C39.2807 525.582 39.7324 525.683 40.1301 525.885C40.5279 526.086 40.8404 526.362 41.0676 526.711C41.2978 527.061 41.4142 527.457 41.4171 527.9C41.4142 528.363 41.2878 528.777 41.0378 529.14C40.7907 529.501 40.4625 529.735 40.0534 529.843V529.894C40.3688 529.951 40.6529 530.086 40.9057 530.299C41.1586 530.51 41.3603 530.772 41.5108 531.088C41.6614 531.4 41.7381 531.741 41.7409 532.11C41.7381 532.582 41.6103 533.002 41.3574 533.372C41.1074 533.738 40.7594 534.027 40.3134 534.237C39.8702 534.444 39.3574 534.548 38.775 534.548ZM38.775 533.61C39.1699 533.61 39.5108 533.546 39.7978 533.419C40.0847 533.291 40.3063 533.11 40.4625 532.877C40.6188 532.644 40.6983 532.372 40.7012 532.059C40.6983 531.73 40.6131 531.439 40.4455 531.186C40.2779 530.933 40.0492 530.734 39.7594 530.589C39.4725 530.444 39.1444 530.372 38.775 530.372C38.4029 530.372 38.0705 530.444 37.7779 530.589C37.4881 530.734 37.2594 530.933 37.0918 531.186C36.927 531.439 36.8461 531.73 36.8489 532.059C36.8461 532.372 36.9213 532.644 37.0748 532.877C37.231 533.11 37.454 533.291 37.7438 533.419C38.0336 533.546 38.3773 533.61 38.775 533.61ZM38.775 529.468C39.0875 529.468 39.3645 529.406 39.606 529.281C39.8503 529.156 40.0421 528.981 40.1813 528.757C40.3205 528.532 40.3915 528.269 40.3944 527.968C40.3915 527.673 40.3219 527.416 40.1855 527.197C40.0492 526.975 39.8603 526.805 39.6188 526.686C39.3773 526.564 39.0961 526.502 38.775 526.502C38.4483 526.502 38.1628 526.564 37.9185 526.686C37.6742 526.805 37.4853 526.975 37.3517 527.197C37.2182 527.416 37.1529 527.673 37.1557 527.968C37.1529 528.269 37.2196 528.532 37.356 528.757C37.4952 528.981 37.687 529.156 37.9313 529.281C38.1756 529.406 38.4569 529.468 38.775 529.468ZM43.5275 534.429V525.701H44.5332V528.923H44.6184C44.6923 528.809 44.7946 528.664 44.9252 528.488C45.0588 528.309 45.2491 528.15 45.4963 528.011C45.7463 527.869 46.0843 527.798 46.5105 527.798C47.0616 527.798 47.5474 527.936 47.9679 528.211C48.3883 528.487 48.7164 528.877 48.9522 529.383C49.188 529.889 49.3059 530.485 49.3059 531.173C49.3059 531.866 49.188 532.467 48.9522 532.975C48.7164 533.481 48.3897 533.873 47.9721 534.152C47.5545 534.427 47.073 534.565 46.5275 534.565C46.1071 534.565 45.7704 534.495 45.5176 534.356C45.2647 534.214 45.0701 534.054 44.9338 533.875C44.7974 533.693 44.6923 533.542 44.6184 533.423H44.4991V534.429H43.5275ZM44.5162 531.156C44.5162 531.65 44.5886 532.086 44.7335 532.464C44.8784 532.839 45.09 533.133 45.3684 533.346C45.6468 533.556 45.9877 533.662 46.3912 533.662C46.8116 533.662 47.1625 533.551 47.4437 533.329C47.7278 533.105 47.9409 532.804 48.0829 532.426C48.2278 532.045 48.3002 531.622 48.3002 531.156C48.3002 530.696 48.2292 530.281 48.0872 529.912C47.948 529.539 47.7363 529.245 47.4522 529.029C47.171 528.811 46.8173 528.701 46.3912 528.701C45.9821 528.701 45.6383 528.805 45.3599 529.012C45.0815 529.217 44.8713 529.504 44.7292 529.873C44.5872 530.24 44.5162 530.667 44.5162 531.156Z" fill="white"/>
<rect width="85" height="24" transform="translate(0 542)" fill="#257618"/>
<rect x="0.5" y="542.5" width="84" height="23" stroke="black"/>
<path d="M39.15 557.548C38.5648 557.548 38.0478 557.444 37.5989 557.237C37.1529 557.027 36.8049 556.738 36.5549 556.372C36.3049 556.002 36.1813 555.582 36.1841 555.11C36.1813 554.741 36.2537 554.4 36.4015 554.088C36.5492 553.772 36.7509 553.51 37.0066 553.299C37.2651 553.086 37.5534 552.951 37.8716 552.894V552.843C37.454 552.735 37.1216 552.501 36.8745 552.14C36.6273 551.777 36.5051 551.363 36.508 550.9C36.5051 550.457 36.6174 550.061 36.8446 549.711C37.0719 549.362 37.3844 549.086 37.7821 548.885C38.1827 548.683 38.6387 548.582 39.15 548.582C39.6557 548.582 40.1074 548.683 40.5051 548.885C40.9029 549.086 41.2154 549.362 41.4426 549.711C41.6728 550.061 41.7892 550.457 41.7921 550.9C41.7892 551.363 41.6628 551.777 41.4128 552.14C41.1657 552.501 40.8375 552.735 40.4284 552.843V552.894C40.7438 552.951 41.0279 553.086 41.2807 553.299C41.5336 553.51 41.7353 553.772 41.8858 554.088C42.0364 554.4 42.1131 554.741 42.1159 555.11C42.1131 555.582 41.9853 556.002 41.7324 556.372C41.4824 556.738 41.1344 557.027 40.6884 557.237C40.2452 557.444 39.7324 557.548 39.15 557.548ZM39.15 556.61C39.5449 556.61 39.8858 556.546 40.1728 556.419C40.4597 556.291 40.6813 556.11 40.8375 555.877C40.9938 555.644 41.0733 555.372 41.0762 555.059C41.0733 554.73 40.9881 554.439 40.8205 554.186C40.6529 553.933 40.4242 553.734 40.1344 553.589C39.8475 553.444 39.5194 553.372 39.15 553.372C38.7779 553.372 38.4455 553.444 38.1529 553.589C37.8631 553.734 37.6344 553.933 37.4668 554.186C37.302 554.439 37.2211 554.73 37.2239 555.059C37.2211 555.372 37.2963 555.644 37.4498 555.877C37.606 556.11 37.829 556.291 38.1188 556.419C38.4086 556.546 38.7523 556.61 39.15 556.61ZM39.15 552.468C39.4625 552.468 39.7395 552.406 39.981 552.281C40.2253 552.156 40.4171 551.981 40.5563 551.757C40.6955 551.532 40.7665 551.269 40.7694 550.968C40.7665 550.673 40.6969 550.416 40.5605 550.197C40.4242 549.975 40.2353 549.805 39.9938 549.686C39.7523 549.564 39.4711 549.502 39.15 549.502C38.8233 549.502 38.5378 549.564 38.2935 549.686C38.0492 549.805 37.8603 549.975 37.7267 550.197C37.5932 550.416 37.5279 550.673 37.5307 550.968C37.5279 551.269 37.5946 551.532 37.731 551.757C37.8702 551.981 38.062 552.156 38.3063 552.281C38.5506 552.406 38.8319 552.468 39.15 552.468ZM46.4252 557.565C45.8116 557.565 45.2832 557.42 44.84 557.13C44.3968 556.841 44.0559 556.441 43.8173 555.933C43.5787 555.424 43.4593 554.843 43.4593 554.19C43.4593 553.525 43.5815 552.939 43.8258 552.43C44.073 551.919 44.4167 551.519 44.8571 551.233C45.3002 550.943 45.8173 550.798 46.4082 550.798C46.8684 550.798 47.2832 550.883 47.6525 551.054C48.0218 551.224 48.3244 551.463 48.5602 551.769C48.796 552.076 48.9423 552.434 48.9991 552.843H47.9934C47.9167 552.545 47.7463 552.281 47.4821 552.051C47.2207 551.818 46.8684 551.701 46.4252 551.701C46.0332 551.701 45.6895 551.804 45.394 552.008C45.1014 552.21 44.8727 552.495 44.7079 552.865C44.546 553.231 44.465 553.662 44.465 554.156C44.465 554.662 44.5446 555.102 44.7037 555.477C44.8656 555.852 45.0929 556.143 45.3855 556.35C45.6809 556.558 46.0275 556.662 46.4252 556.662C46.6866 556.662 46.9238 556.616 47.1369 556.525C47.35 556.434 47.5304 556.304 47.6781 556.133C47.8258 555.963 47.9309 555.758 47.9934 555.519H48.9991C48.9423 555.906 48.8017 556.254 48.5772 556.564C48.3556 556.87 48.0616 557.115 47.6951 557.296C47.3315 557.475 46.9082 557.565 46.4252 557.565Z" fill="white"/>
<rect width="85" height="23" transform="translate(0 565)" fill="#59B54A"/>
<rect x="0.5" y="565.5" width="84" height="22" stroke="black"/>
<path d="M39.0568 571.439C39.4148 571.442 39.7727 571.51 40.1307 571.644C40.4886 571.777 40.8153 571.999 41.1108 572.308C41.4063 572.615 41.6435 573.034 41.8224 573.566C42.0014 574.097 42.0909 574.763 42.0909 575.564C42.0909 576.34 42.017 577.029 41.8693 577.631C41.7244 578.23 41.5142 578.736 41.2386 579.148C40.9659 579.56 40.6335 579.872 40.2415 580.085C39.8523 580.299 39.4119 580.405 38.9205 580.405C38.4318 580.405 37.9957 580.308 37.6122 580.115C37.2315 579.919 36.919 579.648 36.6747 579.301C36.4332 578.952 36.2784 578.547 36.2102 578.087H37.25C37.3438 578.487 37.5298 578.818 37.8082 579.08C38.0895 579.338 38.4602 579.468 38.9205 579.468C39.5938 579.468 40.125 579.174 40.5142 578.585C40.9063 577.997 41.1023 577.166 41.1023 576.093H41.0341C40.875 576.331 40.6861 576.537 40.4673 576.71C40.2486 576.884 40.0057 577.017 39.7386 577.111C39.4716 577.205 39.1875 577.252 38.8864 577.252C38.3864 577.252 37.9276 577.128 37.5099 576.881C37.0952 576.631 36.7628 576.289 36.5128 575.854C36.2656 575.416 36.142 574.916 36.142 574.354C36.142 573.82 36.2614 573.331 36.5 572.888C36.7415 572.442 37.0795 572.087 37.5142 571.823C37.9517 571.558 38.4659 571.431 39.0568 571.439ZM39.0568 572.377C38.6989 572.377 38.3764 572.466 38.0895 572.645C37.8054 572.821 37.5795 573.06 37.4119 573.361C37.2472 573.659 37.1648 573.99 37.1648 574.354C37.1648 574.718 37.2443 575.049 37.4034 575.347C37.5653 575.642 37.7855 575.878 38.0639 576.054C38.3452 576.227 38.6648 576.314 39.0227 576.314C39.2926 576.314 39.544 576.262 39.777 576.156C40.0099 576.049 40.2131 575.902 40.3864 575.718C40.5625 575.53 40.7003 575.318 40.7997 575.083C40.8991 574.844 40.9489 574.595 40.9489 574.337C40.9489 573.996 40.8665 573.676 40.7017 573.378C40.5398 573.08 40.3153 572.838 40.0284 572.654C39.7443 572.469 39.4205 572.377 39.0568 572.377ZM45.7099 580.439C45.2951 580.439 44.9187 580.361 44.5806 580.205C44.2425 580.046 43.9741 579.817 43.7752 579.519C43.5763 579.218 43.4769 578.854 43.4769 578.428C43.4769 578.053 43.5508 577.749 43.6985 577.516C43.8462 577.28 44.0437 577.095 44.2908 576.962C44.538 576.828 44.8107 576.729 45.109 576.664C45.4102 576.595 45.7127 576.541 46.0167 576.502C46.4144 576.45 46.7369 576.412 46.984 576.387C47.234 576.358 47.4158 576.311 47.5295 576.246C47.646 576.181 47.7042 576.067 47.7042 575.905V575.871C47.7042 575.45 47.5891 575.124 47.359 574.891C47.1317 574.658 46.7866 574.541 46.3235 574.541C45.8434 574.541 45.467 574.647 45.1942 574.857C44.9215 575.067 44.7298 575.291 44.619 575.53L43.6644 575.189C43.8349 574.791 44.0621 574.482 44.3462 574.26C44.6332 574.036 44.9457 573.879 45.2837 573.791C45.6246 573.7 45.9599 573.655 46.2894 573.655C46.4996 573.655 46.7411 573.681 47.0138 573.732C47.2894 573.78 47.555 573.881 47.8107 574.034C48.0692 574.188 48.2837 574.419 48.4542 574.729C48.6246 575.039 48.7099 575.453 48.7099 575.973V580.286H47.7042V579.399H47.6531C47.5849 579.541 47.4712 579.693 47.3121 579.855C47.1531 580.017 46.9414 580.155 46.6772 580.269C46.413 580.382 46.0906 580.439 45.7099 580.439ZM45.8633 579.536C46.261 579.536 46.5962 579.458 46.869 579.301C47.1445 579.145 47.3519 578.943 47.4911 578.696C47.6332 578.449 47.7042 578.189 47.7042 577.916V576.996C47.6616 577.047 47.5678 577.094 47.4229 577.137C47.2809 577.176 47.1161 577.212 46.9286 577.243C46.744 577.272 46.5636 577.297 46.3874 577.32C46.2141 577.34 46.0735 577.357 45.9656 577.371C45.7042 577.405 45.4599 577.46 45.2326 577.537C45.0082 577.611 44.8263 577.723 44.6871 577.874C44.5508 578.022 44.4826 578.223 44.4826 578.479C44.4826 578.828 44.6119 579.093 44.8704 579.272C45.1317 579.448 45.4627 579.536 45.8633 579.536Z" fill="white"/>
<rect width="85" height="25" transform="translate(0 587)" fill="#59B54A"/>
<rect x="0.5" y="587.5" width="84" height="24" stroke="black"/>
<path d="M38.7111 593.725C39.0691 593.728 39.427 593.796 39.785 593.929C40.1429 594.063 40.4696 594.284 40.7651 594.594C41.0605 594.901 41.2978 595.32 41.4767 595.851C41.6557 596.383 41.7452 597.049 41.7452 597.85C41.7452 598.625 41.6713 599.314 41.5236 599.917C41.3787 600.516 41.1685 601.022 40.8929 601.434C40.6202 601.846 40.2878 602.158 39.8958 602.371C39.5066 602.584 39.0662 602.691 38.5748 602.691C38.0861 602.691 37.65 602.594 37.2665 602.401C36.8858 602.205 36.5733 601.934 36.329 601.587C36.0875 601.238 35.9327 600.833 35.8645 600.373H36.9043C36.998 600.773 37.1841 601.104 37.4625 601.365C37.7438 601.624 38.1145 601.753 38.5748 601.753C39.248 601.753 39.7793 601.459 40.1685 600.871C40.5605 600.283 40.7566 599.452 40.7566 598.378H40.6884C40.5293 598.617 40.3404 598.823 40.1216 598.996C39.9029 599.169 39.66 599.303 39.3929 599.397C39.1259 599.49 38.8418 599.537 38.5407 599.537C38.0407 599.537 37.5819 599.414 37.1642 599.167C36.7495 598.917 36.4171 598.574 36.1671 598.14C35.9199 597.702 35.7963 597.202 35.7963 596.64C35.7963 596.106 35.9157 595.617 36.1543 595.174C36.3958 594.728 36.7338 594.373 37.1685 594.108C37.606 593.844 38.1202 593.716 38.7111 593.725ZM38.7111 594.662C38.3532 594.662 38.0307 594.752 37.7438 594.931C37.4597 595.107 37.2338 595.346 37.0662 595.647C36.9015 595.945 36.8191 596.276 36.8191 596.64C36.8191 597.003 36.8986 597.334 37.0577 597.633C37.2196 597.928 37.4398 598.164 37.7182 598.34C37.9995 598.513 38.3191 598.6 38.677 598.6C38.9469 598.6 39.1983 598.547 39.4313 598.442C39.6642 598.334 39.8674 598.188 40.0407 598.003C40.2168 597.816 40.3546 597.604 40.454 597.368C40.5534 597.13 40.6032 596.881 40.6032 596.623C40.6032 596.282 40.5208 595.962 40.356 595.664C40.1941 595.365 39.9696 595.124 39.6827 594.939C39.3986 594.755 39.0748 594.662 38.7111 594.662ZM43.5744 602.571V593.844H44.5801V597.066H44.6653C44.7392 596.952 44.8414 596.807 44.9721 596.631C45.1056 596.452 45.296 596.293 45.5431 596.154C45.7931 596.012 46.1312 595.941 46.5574 595.941C47.1085 595.941 47.5943 596.079 48.0147 596.354C48.4352 596.63 48.7633 597.02 48.9991 597.526C49.2349 598.032 49.3528 598.628 49.3528 599.316C49.3528 600.009 49.2349 600.61 48.9991 601.118C48.7633 601.624 48.4366 602.016 48.019 602.294C47.6014 602.57 47.1199 602.708 46.5744 602.708C46.1539 602.708 45.8173 602.638 45.5645 602.499C45.3116 602.357 45.117 602.196 44.9806 602.017C44.8443 601.836 44.7392 601.685 44.6653 601.566H44.546V602.571H43.5744ZM44.563 599.299C44.563 599.793 44.6355 600.229 44.7804 600.607C44.9252 600.982 45.1369 601.276 45.4153 601.489C45.6937 601.699 46.0346 601.804 46.438 601.804C46.8585 601.804 47.2093 601.694 47.4906 601.472C47.7747 601.248 47.9877 600.946 48.1298 600.569C48.2747 600.188 48.3471 599.765 48.3471 599.299C48.3471 598.838 48.2761 598.424 48.1341 598.054C47.9949 597.682 47.7832 597.388 47.4991 597.172C47.2179 596.954 46.8642 596.844 46.438 596.844C46.0289 596.844 45.6852 596.948 45.4068 597.155C45.1284 597.36 44.9181 597.647 44.7761 598.016C44.6341 598.383 44.563 598.81 44.563 599.299Z" fill="white"/>
<rect width="85" height="25" transform="translate(0 611)" fill="#59B54A"/>
<rect x="0.5" y="611.5" width="84" height="24" stroke="black"/>
<path d="M39.0861 617.725C39.4441 617.728 39.802 617.796 40.16 617.929C40.5179 618.063 40.8446 618.284 41.1401 618.594C41.4355 618.901 41.6728 619.32 41.8517 619.851C42.0307 620.383 42.1202 621.049 42.1202 621.85C42.1202 622.625 42.0463 623.314 41.8986 623.917C41.7537 624.516 41.5435 625.022 41.2679 625.434C40.9952 625.846 40.6628 626.158 40.2708 626.371C39.8816 626.584 39.4412 626.691 38.9498 626.691C38.4611 626.691 38.025 626.594 37.6415 626.401C37.2608 626.205 36.9483 625.934 36.704 625.587C36.4625 625.238 36.3077 624.833 36.2395 624.373H37.2793C37.373 624.773 37.5591 625.104 37.8375 625.365C38.1188 625.624 38.4895 625.753 38.9498 625.753C39.623 625.753 40.1543 625.459 40.5435 624.871C40.9355 624.283 41.1316 623.452 41.1316 622.378H41.0634C40.9043 622.617 40.7154 622.823 40.4966 622.996C40.2779 623.169 40.035 623.303 39.7679 623.397C39.5009 623.49 39.2168 623.537 38.9157 623.537C38.4157 623.537 37.9569 623.414 37.5392 623.167C37.1245 622.917 36.7921 622.574 36.5421 622.14C36.2949 621.702 36.1713 621.202 36.1713 620.64C36.1713 620.106 36.2907 619.617 36.5293 619.174C36.7708 618.728 37.1088 618.373 37.5435 618.108C37.981 617.844 38.4952 617.716 39.0861 617.725ZM39.0861 618.662C38.7282 618.662 38.4057 618.752 38.1188 618.931C37.8347 619.107 37.6088 619.346 37.4412 619.647C37.2765 619.945 37.1941 620.276 37.1941 620.64C37.1941 621.003 37.2736 621.334 37.4327 621.633C37.5946 621.928 37.8148 622.164 38.0932 622.34C38.3745 622.513 38.6941 622.6 39.052 622.6C39.3219 622.6 39.5733 622.547 39.8063 622.442C40.0392 622.334 40.2424 622.188 40.4157 622.003C40.5918 621.816 40.7296 621.604 40.829 621.368C40.9284 621.13 40.9782 620.881 40.9782 620.623C40.9782 620.282 40.8958 619.962 40.731 619.664C40.5691 619.365 40.3446 619.124 40.0577 618.939C39.7736 618.755 39.4498 618.662 39.0861 618.662ZM46.4721 626.708C45.8585 626.708 45.3301 626.563 44.8869 626.273C44.4437 625.983 44.1028 625.584 43.8642 625.076C43.6255 624.567 43.5062 623.986 43.5062 623.333C43.5062 622.668 43.6284 622.081 43.8727 621.573C44.1199 621.061 44.4636 620.662 44.9039 620.375C45.3471 620.086 45.8642 619.941 46.4551 619.941C46.9153 619.941 47.3301 620.026 47.6994 620.196C48.0687 620.367 48.3713 620.606 48.6071 620.912C48.8429 621.219 48.9892 621.577 49.046 621.986H48.0403C47.9636 621.688 47.7931 621.424 47.5289 621.194C47.2676 620.961 46.9153 620.844 46.4721 620.844C46.0801 620.844 45.7363 620.946 45.4409 621.151C45.1483 621.353 44.9196 621.638 44.7548 622.008C44.5929 622.374 44.5119 622.804 44.5119 623.299C44.5119 623.804 44.5914 624.245 44.7505 624.62C44.9125 624.995 45.1397 625.286 45.4324 625.493C45.7278 625.701 46.0744 625.804 46.4721 625.804C46.7335 625.804 46.9707 625.759 47.1838 625.668C47.3968 625.577 47.5772 625.446 47.725 625.276C47.8727 625.106 47.9778 624.901 48.0403 624.662H49.046C48.9892 625.049 48.8485 625.397 48.6241 625.706C48.4025 626.013 48.1085 626.258 47.742 626.439C47.3784 626.618 46.9551 626.708 46.4721 626.708Z" fill="white"/>
<rect width="85" height="641" transform="translate(0 704)" fill="#59B54A"/>
<rect x="0.5" y="704.5" width="84" height="640" stroke="black"/>
<rect width="85" height="24" transform="translate(0 635)" fill="#257618"/>
<rect x="0.5" y="635.5" width="84" height="23" stroke="black"/>
<path d="M36.5517 641.701V650.429H35.4949V642.809H35.4437L33.313 644.224V643.15L35.4949 641.701H36.5517ZM41.9082 650.548C41.2662 650.548 40.7193 650.373 40.2676 650.024C39.8159 649.671 39.4707 649.162 39.2321 648.494C38.9934 647.823 38.8741 647.014 38.8741 646.065C38.8741 645.122 38.9934 644.316 39.2321 643.649C39.4735 642.978 39.8201 642.467 40.2718 642.115C40.7264 641.76 41.2718 641.582 41.9082 641.582C42.5446 641.582 43.0886 641.76 43.5403 642.115C43.9949 642.467 44.3414 642.978 44.5801 643.649C44.8216 644.316 44.9423 645.122 44.9423 646.065C44.9423 647.014 44.823 647.823 44.5843 648.494C44.3457 649.162 44.0005 649.671 43.5488 650.024C43.0971 650.373 42.5502 650.548 41.9082 650.548ZM41.9082 649.61C42.5446 649.61 43.0389 649.304 43.3912 648.69C43.7434 648.076 43.9196 647.201 43.9196 646.065C43.9196 645.309 43.8386 644.666 43.6767 644.135C43.5176 643.603 43.2875 643.198 42.9863 642.92C42.688 642.642 42.3287 642.502 41.9082 642.502C41.2775 642.502 40.7846 642.814 40.4295 643.436C40.0744 644.055 39.8968 644.931 39.8968 646.065C39.8968 646.821 39.9764 647.463 40.1355 647.991C40.2946 648.519 40.5233 648.921 40.8216 649.197C41.1227 649.473 41.4849 649.61 41.9082 649.61ZM48.5048 650.582C48.09 650.582 47.7136 650.504 47.3755 650.348C47.0375 650.189 46.769 649.96 46.5701 649.662C46.3713 649.36 46.2718 648.997 46.2718 648.571C46.2718 648.196 46.3457 647.892 46.4934 647.659C46.6412 647.423 46.8386 647.238 47.0858 647.105C47.3329 646.971 47.6056 646.872 47.9039 646.806C48.2051 646.738 48.5076 646.684 48.8116 646.644C49.2093 646.593 49.5318 646.555 49.7789 646.529C50.0289 646.501 50.2108 646.454 50.3244 646.389C50.4409 646.323 50.4991 646.21 50.4991 646.048V646.014C50.4991 645.593 50.3841 645.267 50.1539 645.034C49.9267 644.801 49.5815 644.684 49.1184 644.684C48.6383 644.684 48.2619 644.789 47.9892 645C47.7164 645.21 47.5247 645.434 47.4139 645.673L46.4593 645.332C46.6298 644.934 46.8571 644.625 47.1412 644.403C47.4281 644.179 47.7406 644.022 48.0787 643.934C48.4196 643.843 48.7548 643.798 49.0843 643.798C49.2946 643.798 49.536 643.823 49.8088 643.875C50.0843 643.923 50.35 644.024 50.6056 644.177C50.8642 644.331 51.0787 644.562 51.2491 644.872C51.4196 645.181 51.5048 645.596 51.5048 646.116V650.429H50.4991V649.542H50.448C50.3798 649.684 50.2662 649.836 50.1071 649.998C49.948 650.16 49.7363 650.298 49.4721 650.412C49.2079 650.525 48.8855 650.582 48.5048 650.582ZM48.6582 649.679C49.0559 649.679 49.3912 649.6 49.6639 649.444C49.9395 649.288 50.1468 649.086 50.286 648.839C50.4281 648.592 50.4991 648.332 50.4991 648.059V647.139C50.4565 647.19 50.3627 647.237 50.2179 647.279C50.0758 647.319 49.911 647.355 49.7235 647.386C49.5389 647.414 49.3585 647.44 49.1824 647.463C49.0091 647.483 48.8684 647.5 48.7605 647.514C48.4991 647.548 48.2548 647.603 48.0275 647.68C47.8031 647.754 47.6213 647.866 47.4821 648.017C47.3457 648.164 47.2775 648.366 47.2775 648.622C47.2775 648.971 47.4068 649.235 47.6653 649.414C47.9267 649.59 48.2576 649.679 48.6582 649.679Z" fill="white"/>
<rect width="85" height="24" transform="translate(0 658)" fill="#257618"/>
<rect x="0.5" y="658.5" width="84" height="23" stroke="black"/>
<path d="M36.206 664.701V673.429H35.1491V665.809H35.098L32.9673 667.224V666.15L35.1491 664.701H36.206ZM41.5625 673.548C40.9205 673.548 40.3736 673.373 39.9219 673.024C39.4702 672.671 39.125 672.162 38.8864 671.494C38.6477 670.823 38.5284 670.014 38.5284 669.065C38.5284 668.122 38.6477 667.316 38.8864 666.649C39.1278 665.978 39.4744 665.467 39.9261 665.115C40.3807 664.76 40.9261 664.582 41.5625 664.582C42.1989 664.582 42.7429 664.76 43.1946 665.115C43.6491 665.467 43.9957 665.978 44.2344 666.649C44.4759 667.316 44.5966 668.122 44.5966 669.065C44.5966 670.014 44.4773 670.823 44.2386 671.494C44 672.162 43.6548 672.671 43.2031 673.024C42.7514 673.373 42.2045 673.548 41.5625 673.548ZM41.5625 672.61C42.1989 672.61 42.6932 672.304 43.0455 671.69C43.3977 671.076 43.5739 670.201 43.5739 669.065C43.5739 668.309 43.4929 667.666 43.331 667.135C43.1719 666.603 42.9418 666.198 42.6406 665.92C42.3423 665.642 41.983 665.502 41.5625 665.502C40.9318 665.502 40.4389 665.814 40.0838 666.436C39.7287 667.055 39.5511 667.931 39.5511 669.065C39.5511 669.821 39.6307 670.463 39.7898 670.991C39.9489 671.519 40.1776 671.921 40.4759 672.197C40.777 672.473 41.1392 672.61 41.5625 672.61ZM46.3693 673.429V664.701H47.375V667.923H47.4602C47.5341 667.809 47.6364 667.664 47.767 667.488C47.9006 667.309 48.0909 667.15 48.3381 667.011C48.5881 666.869 48.9261 666.798 49.3523 666.798C49.9034 666.798 50.3892 666.936 50.8097 667.211C51.2301 667.487 51.5582 667.877 51.794 668.383C52.0298 668.889 52.1477 669.485 52.1477 670.173C52.1477 670.866 52.0298 671.467 51.794 671.975C51.5582 672.481 51.2315 672.873 50.8139 673.152C50.3963 673.427 49.9148 673.565 49.3693 673.565C48.9489 673.565 48.6122 673.495 48.3594 673.356C48.1065 673.214 47.9119 673.054 47.7756 672.875C47.6392 672.693 47.5341 672.542 47.4602 672.423H47.3409V673.429H46.3693ZM47.358 670.156C47.358 670.65 47.4304 671.086 47.5753 671.464C47.7202 671.839 47.9318 672.133 48.2102 672.346C48.4886 672.556 48.8295 672.662 49.233 672.662C49.6534 672.662 50.0043 672.551 50.2855 672.329C50.5696 672.105 50.7827 671.804 50.9247 671.426C51.0696 671.045 51.142 670.622 51.142 670.156C51.142 669.696 51.071 669.281 50.929 668.912C50.7898 668.539 50.5781 668.245 50.294 668.029C50.0128 667.811 49.6591 667.701 49.233 667.701C48.8239 667.701 48.4801 667.805 48.2017 668.012C47.9233 668.217 47.7131 668.504 47.571 668.873C47.429 669.24 47.358 669.667 47.358 670.156Z" fill="white"/>
<rect width="85" height="24" transform="translate(0 681)" fill="#257618"/>
<rect x="0.5" y="681.5" width="84" height="23" stroke="black"/>
<path d="M36.581 687.701V696.429H35.5241V688.809H35.473L33.3423 690.224V689.15L35.5241 687.701H36.581ZM41.9375 696.548C41.2955 696.548 40.7486 696.373 40.2969 696.024C39.8452 695.671 39.5 695.162 39.2614 694.494C39.0227 693.823 38.9034 693.014 38.9034 692.065C38.9034 691.122 39.0227 690.316 39.2614 689.649C39.5028 688.978 39.8494 688.467 40.3011 688.115C40.7557 687.76 41.3011 687.582 41.9375 687.582C42.5739 687.582 43.1179 687.76 43.5696 688.115C44.0241 688.467 44.3707 688.978 44.6094 689.649C44.8509 690.316 44.9716 691.122 44.9716 692.065C44.9716 693.014 44.8523 693.823 44.6136 694.494C44.375 695.162 44.0298 695.671 43.5781 696.024C43.1264 696.373 42.5795 696.548 41.9375 696.548ZM41.9375 695.61C42.5739 695.61 43.0682 695.304 43.4205 694.69C43.7727 694.076 43.9489 693.201 43.9489 692.065C43.9489 691.309 43.8679 690.666 43.706 690.135C43.5469 689.603 43.3168 689.198 43.0156 688.92C42.7173 688.642 42.358 688.502 41.9375 688.502C41.3068 688.502 40.8139 688.814 40.4588 689.436C40.1037 690.055 39.9261 690.931 39.9261 692.065C39.9261 692.821 40.0057 693.463 40.1648 693.991C40.3239 694.519 40.5526 694.921 40.8509 695.197C41.152 695.473 41.5142 695.61 41.9375 695.61ZM49.267 696.565C48.6534 696.565 48.125 696.42 47.6818 696.13C47.2386 695.84 46.8977 695.441 46.6591 694.933C46.4205 694.424 46.3011 693.843 46.3011 693.19C46.3011 692.525 46.4233 691.939 46.6676 691.43C46.9148 690.919 47.2585 690.519 47.6989 690.233C48.142 689.943 48.6591 689.798 49.25 689.798C49.7102 689.798 50.125 689.883 50.4943 690.054C50.8636 690.224 51.1662 690.463 51.402 690.769C51.6378 691.076 51.7841 691.434 51.8409 691.843H50.8352C50.7585 691.545 50.5881 691.281 50.3239 691.051C50.0625 690.818 49.7102 690.701 49.267 690.701C48.875 690.701 48.5313 690.804 48.2358 691.008C47.9432 691.21 47.7145 691.495 47.5497 691.865C47.3878 692.231 47.3068 692.662 47.3068 693.156C47.3068 693.662 47.3864 694.102 47.5455 694.477C47.7074 694.852 47.9347 695.143 48.2273 695.35C48.5227 695.558 48.8693 695.662 49.267 695.662C49.5284 695.662 49.7656 695.616 49.9787 695.525C50.1918 695.434 50.3722 695.304 50.5199 695.133C50.6676 694.963 50.7727 694.758 50.8352 694.519H51.8409C51.7841 694.906 51.6435 695.254 51.419 695.564C51.1974 695.87 50.9034 696.115 50.5369 696.296C50.1733 696.475 49.75 696.565 49.267 696.565Z" fill="white"/>
</svg>
