<svg width="85" height="21" viewBox="0 0 85 21" fill="none" xmlns="http://www.w3.org/2000/svg">
<rect width="85" height="21" fill="#59B54A"/>
<rect x="0.5" y="0.5" width="84" height="20" stroke="black"/>
<path d="M27.9474 15V6.27273H30.9986C31.6065 6.27273 32.108 6.37784 32.5028 6.58807C32.8977 6.79545 33.1918 7.07528 33.3849 7.42756C33.5781 7.77699 33.6747 8.16477 33.6747 8.59091C33.6747 8.96591 33.608 9.27557 33.4744 9.51989C33.3438 9.7642 33.1705 9.95739 32.9545 10.0994C32.7415 10.2415 32.5099 10.3466 32.2599 10.4148V10.5C32.527 10.517 32.7955 10.6108 33.0653 10.7812C33.3352 10.9517 33.5611 11.196 33.7429 11.5142C33.9247 11.8324 34.0156 12.2216 34.0156 12.6818C34.0156 13.1193 33.9162 13.5128 33.7173 13.8622C33.5185 14.2116 33.2045 14.4886 32.7756 14.6932C32.3466 14.8977 31.7884 15 31.1009 15H27.9474ZM29.0043 14.0625H31.1009C31.7912 14.0625 32.2813 13.929 32.571 13.6619C32.8636 13.392 33.0099 13.0653 33.0099 12.6818C33.0099 12.3864 32.9347 12.1136 32.7841 11.8636C32.6335 11.6108 32.419 11.4091 32.1406 11.2585C31.8622 11.1051 31.5327 11.0284 31.152 11.0284H29.0043V14.0625ZM29.0043 10.108H30.9645C31.2827 10.108 31.5696 10.0455 31.8253 9.92045C32.0838 9.79545 32.2884 9.61932 32.4389 9.39205C32.5923 9.16477 32.669 8.89773 32.669 8.59091C32.669 8.20739 32.5355 7.8821 32.2685 7.61506C32.0014 7.34517 31.5781 7.21023 30.9986 7.21023H29.0043V10.108ZM35.6158 15V8.45455H36.5874V9.44318H36.6555C36.7749 9.11932 36.9908 8.85653 37.3033 8.65483C37.6158 8.45312 37.968 8.35227 38.3601 8.35227C38.4339 8.35227 38.5263 8.35369 38.6371 8.35653C38.7479 8.35937 38.8317 8.36364 38.8885 8.36932V9.39205C38.8544 9.38352 38.7763 9.37074 38.6541 9.35369C38.5348 9.33381 38.4084 9.32386 38.2749 9.32386C37.9567 9.32386 37.6726 9.39062 37.4226 9.52415C37.1754 9.65483 36.9794 9.83665 36.8345 10.0696C36.6925 10.2997 36.6214 10.5625 36.6214 10.858V15H35.6158ZM42.0067 15.1534C41.592 15.1534 41.2156 15.0753 40.8775 14.919C40.5394 14.7599 40.271 14.5312 40.0721 14.233C39.8732 13.9318 39.7738 13.5682 39.7738 13.142C39.7738 12.767 39.8477 12.4631 39.9954 12.2301C40.1431 11.9943 40.3406 11.8097 40.5877 11.6761C40.8349 11.5426 41.1076 11.4432 41.4059 11.3778C41.707 11.3097 42.0096 11.2557 42.3136 11.2159C42.7113 11.1648 43.0337 11.1264 43.2809 11.1009C43.5309 11.0724 43.7127 11.0256 43.8263 10.9602C43.9428 10.8949 44.0011 10.7812 44.0011 10.6193V10.5852C44.0011 10.1648 43.886 9.83807 43.6559 9.60511C43.4286 9.37216 43.0835 9.25568 42.6204 9.25568C42.1403 9.25568 41.7638 9.3608 41.4911 9.57102C41.2184 9.78125 41.0266 10.0057 40.9158 10.2443L39.9613 9.90341C40.1317 9.50568 40.359 9.19602 40.6431 8.97443C40.93 8.75 41.2425 8.59375 41.5806 8.50568C41.9215 8.41477 42.2567 8.36932 42.5863 8.36932C42.7965 8.36932 43.038 8.39489 43.3107 8.44602C43.5863 8.49432 43.8519 8.59517 44.1076 8.74858C44.3661 8.90199 44.5806 9.13352 44.7511 9.44318C44.9215 9.75284 45.0067 10.1676 45.0067 10.6875V15H44.0011V14.1136H43.9499C43.8817 14.2557 43.7681 14.4077 43.609 14.5696C43.4499 14.7315 43.2383 14.8693 42.9741 14.983C42.7099 15.0966 42.3874 15.1534 42.0067 15.1534ZM42.1602 14.25C42.5579 14.25 42.8931 14.1719 43.1658 14.0156C43.4414 13.8594 43.6488 13.6577 43.788 13.4105C43.93 13.1634 44.0011 12.9034 44.0011 12.6307V11.7102C43.9585 11.7614 43.8647 11.8082 43.7198 11.8509C43.5778 11.8906 43.413 11.9261 43.2255 11.9574C43.0408 11.9858 42.8604 12.0114 42.6843 12.0341C42.511 12.054 42.3704 12.071 42.2624 12.0852C42.0011 12.1193 41.7567 12.1747 41.5295 12.2514C41.305 12.3253 41.1232 12.4375 40.984 12.5881C40.8477 12.7358 40.7795 12.9375 40.7795 13.1932C40.7795 13.5426 40.9087 13.8068 41.1673 13.9858C41.4286 14.1619 41.7596 14.25 42.1602 14.25ZM46.6548 15V14.233L50.3707 9.46023V9.39205H46.7741V8.45455H51.6662V9.25568L48.0526 13.9943V14.0625H51.7855V15H46.6548ZM53.3345 15V8.45455H54.3402V15H53.3345ZM53.8459 7.36364C53.6499 7.36364 53.4808 7.29688 53.3388 7.16335C53.1996 7.02983 53.13 6.86932 53.13 6.68182C53.13 6.49432 53.1996 6.33381 53.3388 6.20028C53.4808 6.06676 53.6499 6 53.8459 6C54.0419 6 54.2095 6.06676 54.3487 6.20028C54.4908 6.33381 54.5618 6.49432 54.5618 6.68182C54.5618 6.86932 54.4908 7.02983 54.3487 7.16335C54.2095 7.29688 54.0419 7.36364 53.8459 7.36364ZM57.1879 6.27273V15H56.1822V6.27273H57.1879Z" fill="white"/>
</svg>
