<svg width="85" height="1345" viewBox="0 0 85 1345" fill="none" xmlns="http://www.w3.org/2000/svg">
<rect width="85" height="21" transform="translate(0 250)" fill="#801A1A"/>
<rect x="0.5" y="250.5" width="84" height="20" stroke="black"/>
<path d="M39.3493 263.21V262.341L43.1845 256.273H43.8152V257.619H43.389L40.4913 262.205V262.273H45.6561V263.21H39.3493ZM43.4572 265V262.946V262.541V256.273H44.4629V265H43.4572Z" fill="white"/>
<rect width="85" height="22" transform="translate(0 270)" fill="#801A1A"/>
<rect x="0.5" y="270.5" width="84" height="21" stroke="black"/>
<path d="M35.3942 283.353V282.484L39.2294 276.416H39.8601V277.762H39.4339L36.5362 282.347V282.416H41.701V283.353H35.3942ZM39.5021 285.143V283.089V282.684V276.416H40.5078V285.143H39.5021ZM45.8718 283.609V277.984H46.8263V283.609H45.8718ZM43.5366 281.274V280.319H49.1616V281.274H43.5366Z" fill="white"/>
<rect width="85" height="23" transform="translate(0 291)" fill="#AE4242"/>
<rect x="0.5" y="291.5" width="84" height="22" stroke="black"/>
<path d="M42.4803 306.405C41.9803 306.405 41.53 306.306 41.1294 306.107C40.7289 305.908 40.4078 305.635 40.1664 305.289C39.9249 304.942 39.7928 304.547 39.7701 304.104H40.7928C40.8326 304.499 41.0115 304.825 41.3297 305.084C41.6507 305.34 42.0343 305.468 42.4803 305.468C42.8382 305.468 43.1564 305.384 43.4348 305.216C43.7161 305.048 43.9363 304.818 44.0953 304.526C44.2573 304.23 44.3382 303.897 44.3382 303.524C44.3382 303.144 44.2544 302.804 44.0868 302.506C43.9221 302.205 43.6948 301.968 43.405 301.794C43.1152 301.621 42.7843 301.533 42.4121 301.53C42.1451 301.527 41.8709 301.568 41.5897 301.654C41.3084 301.736 41.0769 301.843 40.8951 301.973L39.9064 301.854L40.4348 297.558H44.9689V298.496H41.3212L41.0144 301.07H41.0655C41.2445 300.928 41.4689 300.81 41.7388 300.716C42.0087 300.622 42.29 300.575 42.5826 300.575C43.1167 300.575 43.5925 300.703 44.0101 300.959C44.4306 301.212 44.7601 301.558 44.9988 301.999C45.2402 302.439 45.361 302.942 45.361 303.507C45.361 304.064 45.236 304.561 44.986 304.999C44.7388 305.433 44.3979 305.777 43.9632 306.03C43.5286 306.28 43.0343 306.405 42.4803 306.405Z" fill="white"/>
<rect width="85" height="251" fill="#AE4242"/>
<rect x="0.5" y="0.5" width="84" height="250" stroke="black"/>
<rect width="85" height="23" transform="translate(0 313)" fill="#AE4242"/>
<rect x="0.5" y="313.5" width="84" height="22" stroke="black"/>
<path d="M38.5252 328.405C38.0252 328.405 37.5749 328.306 37.1744 328.107C36.7738 327.908 36.4528 327.635 36.2113 327.289C35.9698 326.942 35.8377 326.547 35.815 326.104H36.8377C36.8775 326.499 37.0565 326.825 37.3746 327.084C37.6957 327.34 38.0792 327.468 38.5252 327.468C38.8832 327.468 39.2013 327.384 39.4798 327.216C39.761 327.048 39.9812 326.818 40.1403 326.526C40.3022 326.23 40.3832 325.897 40.3832 325.524C40.3832 325.144 40.2994 324.804 40.1317 324.506C39.967 324.205 39.7397 323.968 39.4499 323.794C39.1602 323.621 38.8292 323.533 38.457 323.53C38.19 323.527 37.9158 323.568 37.6346 323.654C37.3533 323.736 37.1218 323.843 36.94 323.973L35.9513 323.854L36.4798 319.558H41.0138V320.496H37.3661L37.0593 323.07H37.1104C37.2894 322.928 37.5138 322.81 37.7837 322.716C38.0536 322.622 38.3349 322.575 38.6275 322.575C39.1616 322.575 39.6374 322.703 40.055 322.959C40.4755 323.212 40.805 323.558 41.0437 323.999C41.2852 324.439 41.4059 324.942 41.4059 325.507C41.4059 326.064 41.2809 326.561 41.0309 326.999C40.7837 327.433 40.4428 327.777 40.0082 328.03C39.5735 328.28 39.0792 328.405 38.5252 328.405ZM45.6726 326.752V321.127H46.6271V326.752H45.6726ZM43.3374 324.416V323.462H48.9624V324.416H43.3374Z" fill="white"/>
<rect width="85" height="25" transform="translate(0 335)" fill="#801A1A"/>
<rect x="0.5" y="335.5" width="84" height="24" stroke="black"/>
<path d="M39.1761 350.691C38.8182 350.685 38.4602 350.617 38.1023 350.486C37.7443 350.356 37.4176 350.135 37.1222 349.826C36.8267 349.513 36.5895 349.091 36.4105 348.56C36.2315 348.026 36.142 347.356 36.142 346.549C36.142 345.776 36.2145 345.091 36.3594 344.495C36.5043 343.895 36.7145 343.391 36.9901 342.982C37.2656 342.57 37.598 342.258 37.9872 342.044C38.3793 341.831 38.821 341.725 39.3125 341.725C39.8011 341.725 40.2358 341.823 40.6165 342.019C41 342.212 41.3125 342.482 41.554 342.829C41.7955 343.175 41.9517 343.574 42.0227 344.026H40.983C40.8864 343.634 40.6989 343.309 40.4205 343.05C40.142 342.792 39.7727 342.662 39.3125 342.662C38.6364 342.662 38.1037 342.956 37.7145 343.544C37.3281 344.133 37.1335 344.958 37.1307 346.02H37.1989C37.358 345.779 37.5469 345.573 37.7656 345.402C37.9872 345.229 38.2315 345.096 38.4986 345.002C38.7656 344.908 39.0483 344.861 39.3466 344.861C39.8466 344.861 40.304 344.986 40.7188 345.236C41.1335 345.483 41.4659 345.826 41.7159 346.263C41.9659 346.698 42.0909 347.196 42.0909 347.759C42.0909 348.299 41.9702 348.793 41.7287 349.242C41.4872 349.688 41.1477 350.043 40.7102 350.307C40.2756 350.569 39.7642 350.696 39.1761 350.691ZM39.1761 349.753C39.5341 349.753 39.8551 349.664 40.1392 349.485C40.4261 349.306 40.652 349.066 40.8168 348.765C40.9844 348.463 41.0682 348.128 41.0682 347.759C41.0682 347.398 40.9872 347.07 40.8253 346.775C40.6662 346.476 40.446 346.239 40.1648 346.063C39.8864 345.887 39.5682 345.799 39.2102 345.799C38.9403 345.799 38.6889 345.853 38.456 345.961C38.223 346.066 38.0185 346.211 37.8423 346.395C37.669 346.58 37.5327 346.792 37.4332 347.03C37.3338 347.266 37.2841 347.515 37.2841 347.776C37.2841 348.123 37.3651 348.446 37.527 348.748C37.6918 349.049 37.9162 349.292 38.2003 349.476C38.4872 349.661 38.8125 349.753 39.1761 349.753ZM45.7099 350.725C45.2951 350.725 44.9187 350.647 44.5806 350.49C44.2425 350.331 43.9741 350.103 43.7752 349.804C43.5763 349.503 43.4769 349.14 43.4769 348.713C43.4769 348.338 43.5508 348.034 43.6985 347.802C43.8462 347.566 44.0437 347.381 44.2908 347.248C44.538 347.114 44.8107 347.015 45.109 346.949C45.4102 346.881 45.7127 346.827 46.0167 346.787C46.4144 346.736 46.7369 346.698 46.984 346.672C47.234 346.644 47.4158 346.597 47.5295 346.532C47.646 346.466 47.7042 346.353 47.7042 346.191V346.157C47.7042 345.736 47.5891 345.409 47.359 345.177C47.1317 344.944 46.7866 344.827 46.3235 344.827C45.8434 344.827 45.467 344.932 45.1942 345.142C44.9215 345.353 44.7298 345.577 44.619 345.816L43.6644 345.475C43.8349 345.077 44.0621 344.767 44.3462 344.546C44.6332 344.321 44.9457 344.165 45.2837 344.077C45.6246 343.986 45.9599 343.941 46.2894 343.941C46.4996 343.941 46.7411 343.966 47.0138 344.017C47.2894 344.066 47.555 344.167 47.8107 344.32C48.0692 344.473 48.2837 344.705 48.4542 345.015C48.6246 345.324 48.7099 345.739 48.7099 346.259V350.571H47.7042V349.685H47.6531C47.5849 349.827 47.4712 349.979 47.3121 350.141C47.1531 350.303 46.9414 350.441 46.6772 350.554C46.413 350.668 46.0906 350.725 45.7099 350.725ZM45.8633 349.821C46.261 349.821 46.5962 349.743 46.869 349.587C47.1445 349.431 47.3519 349.229 47.4911 348.982C47.6332 348.735 47.7042 348.475 47.7042 348.202V347.282C47.6616 347.333 47.5678 347.38 47.4229 347.422C47.2809 347.462 47.1161 347.498 46.9286 347.529C46.744 347.557 46.5636 347.583 46.3874 347.606C46.2141 347.625 46.0735 347.642 45.9656 347.657C45.7042 347.691 45.4599 347.746 45.2326 347.823C45.0082 347.897 44.8263 348.009 44.6871 348.159C44.5508 348.307 44.4826 348.509 44.4826 348.765C44.4826 349.114 44.6119 349.378 44.8704 349.557C45.1317 349.733 45.4627 349.821 45.8633 349.821Z" fill="white"/>
<rect width="85" height="25" transform="translate(0 359)" fill="#801A1A"/>
<rect x="0.5" y="359.5" width="84" height="24" stroke="black"/>
<path d="M35.2211 374.691C34.8631 374.685 34.5051 374.617 34.1472 374.486C33.7892 374.356 33.4625 374.135 33.1671 373.826C32.8716 373.513 32.6344 373.091 32.4554 372.56C32.2765 372.026 32.187 371.356 32.187 370.549C32.187 369.776 32.2594 369.091 32.4043 368.495C32.5492 367.895 32.7594 367.391 33.035 366.982C33.3105 366.57 33.6429 366.258 34.0321 366.044C34.4242 365.831 34.8659 365.725 35.3574 365.725C35.8461 365.725 36.2807 365.823 36.6614 366.019C37.0449 366.212 37.3574 366.482 37.5989 366.829C37.8404 367.175 37.9966 367.574 38.0676 368.026H37.0279C36.9313 367.634 36.7438 367.309 36.4654 367.05C36.187 366.792 35.8176 366.662 35.3574 366.662C34.6813 366.662 34.1486 366.956 33.7594 367.544C33.373 368.133 33.1784 368.958 33.1756 370.02H33.2438C33.4029 369.779 33.5918 369.573 33.8105 369.402C34.0321 369.229 34.2765 369.096 34.5435 369.002C34.8105 368.908 35.0932 368.861 35.3915 368.861C35.8915 368.861 36.3489 368.986 36.7637 369.236C37.1784 369.483 37.5108 369.826 37.7608 370.263C38.0108 370.698 38.1358 371.196 38.1358 371.759C38.1358 372.299 38.0151 372.793 37.7736 373.242C37.5321 373.688 37.1926 374.043 36.7551 374.307C36.3205 374.569 35.8091 374.696 35.2211 374.691ZM35.2211 373.753C35.579 373.753 35.9 373.664 36.1841 373.485C36.4711 373.306 36.6969 373.066 36.8617 372.765C37.0293 372.463 37.1131 372.128 37.1131 371.759C37.1131 371.398 37.0321 371.07 36.8702 370.775C36.7111 370.476 36.4909 370.239 36.2097 370.063C35.9313 369.887 35.6131 369.799 35.2551 369.799C34.9853 369.799 34.7338 369.853 34.5009 369.961C34.2679 370.066 34.0634 370.211 33.8873 370.395C33.714 370.58 33.5776 370.792 33.4782 371.03C33.3787 371.266 33.329 371.515 33.329 371.776C33.329 372.123 33.41 372.446 33.5719 372.748C33.7367 373.049 33.9611 373.292 34.2452 373.476C34.5321 373.661 34.8574 373.753 35.2211 373.753ZM41.7548 374.725C41.34 374.725 40.9636 374.647 40.6255 374.49C40.2875 374.331 40.019 374.103 39.8201 373.804C39.6213 373.503 39.5218 373.14 39.5218 372.713C39.5218 372.338 39.5957 372.034 39.7434 371.802C39.8912 371.566 40.0886 371.381 40.3358 371.248C40.5829 371.114 40.8556 371.015 41.1539 370.949C41.4551 370.881 41.7576 370.827 42.0616 370.787C42.4593 370.736 42.7818 370.698 43.0289 370.672C43.2789 370.644 43.4608 370.597 43.5744 370.532C43.6909 370.466 43.7491 370.353 43.7491 370.191V370.157C43.7491 369.736 43.6341 369.409 43.4039 369.177C43.1767 368.944 42.8315 368.827 42.3684 368.827C41.8883 368.827 41.5119 368.932 41.2392 369.142C40.9664 369.353 40.7747 369.577 40.6639 369.816L39.7093 369.475C39.8798 369.077 40.1071 368.767 40.3912 368.546C40.6781 368.321 40.9906 368.165 41.3287 368.077C41.6696 367.986 42.0048 367.941 42.3343 367.941C42.5446 367.941 42.786 367.966 43.0588 368.017C43.3343 368.066 43.6 368.167 43.8556 368.32C44.1142 368.473 44.3287 368.705 44.4991 369.015C44.6696 369.324 44.7548 369.739 44.7548 370.259V374.571H43.7491V373.685H43.698C43.6298 373.827 43.5162 373.979 43.3571 374.141C43.198 374.303 42.9863 374.441 42.7221 374.554C42.4579 374.668 42.1355 374.725 41.7548 374.725ZM41.9082 373.821C42.3059 373.821 42.6412 373.743 42.9139 373.587C43.1895 373.431 43.3968 373.229 43.536 372.982C43.6781 372.735 43.7491 372.475 43.7491 372.202V371.282C43.7065 371.333 43.6127 371.38 43.4679 371.422C43.3258 371.462 43.161 371.498 42.9735 371.529C42.7889 371.557 42.6085 371.583 42.4324 371.606C42.2591 371.625 42.1184 371.642 42.0105 371.657C41.7491 371.691 41.5048 371.746 41.2775 371.823C41.0531 371.897 40.8713 372.009 40.7321 372.159C40.5957 372.307 40.5275 372.509 40.5275 372.765C40.5275 373.114 40.6568 373.378 40.9153 373.557C41.1767 373.733 41.5076 373.821 41.9082 373.821ZM49.1472 373.975V368.35H50.1017V373.975H49.1472ZM46.812 371.64V370.685H52.437V371.64H46.812Z" fill="white"/>
<rect width="85" height="23" transform="translate(0 383)" fill="#AE4242"/>
<rect x="0.5" y="383.5" width="84" height="22" stroke="black"/>
<path d="M38.8304 398.405C38.4725 398.399 38.1145 398.331 37.7566 398.2C37.3986 398.07 37.0719 397.85 36.7765 397.54C36.481 397.227 36.2438 396.806 36.0648 396.274C35.8858 395.74 35.7963 395.07 35.7963 394.263C35.7963 393.49 35.8688 392.806 36.0137 392.209C36.1586 391.61 36.3688 391.105 36.6444 390.696C36.9199 390.284 37.2523 389.972 37.6415 389.759C38.0336 389.546 38.4753 389.439 38.9668 389.439C39.4554 389.439 39.8901 389.537 40.2708 389.733C40.6543 389.926 40.9668 390.196 41.2083 390.543C41.4498 390.889 41.606 391.289 41.677 391.74H40.6373C40.5407 391.348 40.3532 391.023 40.0748 390.764C39.7963 390.506 39.427 390.377 38.9668 390.377C38.2907 390.377 37.758 390.671 37.3688 391.259C36.9824 391.847 36.7878 392.672 36.785 393.735H36.8532C37.0123 393.493 37.2012 393.287 37.4199 393.117C37.6415 392.943 37.8858 392.81 38.1529 392.716C38.4199 392.622 38.7026 392.575 39.0009 392.575C39.5009 392.575 39.9583 392.7 40.373 392.95C40.7878 393.198 41.1202 393.54 41.3702 393.977C41.6202 394.412 41.7452 394.911 41.7452 395.473C41.7452 396.013 41.6245 396.507 41.383 396.956C41.1415 397.402 40.802 397.757 40.3645 398.022C39.9299 398.283 39.4185 398.411 38.8304 398.405ZM38.8304 397.468C39.1884 397.468 39.5094 397.378 39.7935 397.199C40.0804 397.02 40.3063 396.78 40.4711 396.479C40.6387 396.178 40.7225 395.843 40.7225 395.473C40.7225 395.112 40.6415 394.784 40.4796 394.489C40.3205 394.191 40.1003 393.953 39.8191 393.777C39.5407 393.601 39.2225 393.513 38.8645 393.513C38.5946 393.513 38.3432 393.567 38.1103 393.675C37.8773 393.78 37.6728 393.925 37.4966 394.11C37.3233 394.294 37.187 394.506 37.0875 394.745C36.9881 394.98 36.9384 395.229 36.9384 395.49C36.9384 395.837 37.0194 396.161 37.1813 396.462C37.3461 396.763 37.5705 397.006 37.8546 397.191C38.1415 397.375 38.4668 397.468 38.8304 397.468ZM43.5744 398.286V389.558H44.5801V392.78H44.6653C44.7392 392.666 44.8414 392.522 44.9721 392.345C45.1056 392.166 45.296 392.007 45.5431 391.868C45.7931 391.726 46.1312 391.655 46.5574 391.655C47.1085 391.655 47.5943 391.793 48.0147 392.068C48.4352 392.344 48.7633 392.735 48.9991 393.24C49.2349 393.746 49.3528 394.343 49.3528 395.03C49.3528 395.723 49.2349 396.324 48.9991 396.833C48.7633 397.338 48.4366 397.73 48.019 398.009C47.6014 398.284 47.1199 398.422 46.5744 398.422C46.1539 398.422 45.8173 398.352 45.5645 398.213C45.3116 398.071 45.117 397.911 44.9806 397.732C44.8443 397.55 44.7392 397.399 44.6653 397.28H44.546V398.286H43.5744ZM44.563 395.013C44.563 395.507 44.6355 395.943 44.7804 396.321C44.9252 396.696 45.1369 396.99 45.4153 397.203C45.6937 397.414 46.0346 397.519 46.438 397.519C46.8585 397.519 47.2093 397.408 47.4906 397.186C47.7747 396.962 47.9877 396.661 48.1298 396.283C48.2747 395.902 48.3471 395.479 48.3471 395.013C48.3471 394.553 48.2761 394.138 48.1341 393.769C47.9949 393.397 47.7832 393.102 47.4991 392.887C47.2179 392.668 46.8642 392.558 46.438 392.558C46.0289 392.558 45.6852 392.662 45.4068 392.87C45.1284 393.074 44.9181 393.361 44.7761 393.73C44.6341 394.097 44.563 394.524 44.563 395.013Z" fill="white"/>
<rect width="85" height="23" transform="translate(0 405)" fill="#AE4242"/>
<rect x="0.5" y="405.5" width="84" height="22" stroke="black"/>
<path d="M34.8754 420.405C34.5174 420.399 34.1594 420.331 33.8015 420.2C33.4435 420.07 33.1168 419.85 32.8214 419.54C32.5259 419.227 32.2887 418.806 32.1097 418.274C31.9308 417.74 31.8413 417.07 31.8413 416.263C31.8413 415.49 31.9137 414.806 32.0586 414.209C32.2035 413.61 32.4137 413.105 32.6893 412.696C32.9648 412.284 33.2972 411.972 33.6864 411.759C34.0785 411.546 34.5202 411.439 35.0117 411.439C35.5004 411.439 35.935 411.537 36.3157 411.733C36.6992 411.926 37.0117 412.196 37.2532 412.543C37.4947 412.889 37.6509 413.289 37.7219 413.74H36.6822C36.5856 413.348 36.3981 413.023 36.1197 412.764C35.8413 412.506 35.4719 412.377 35.0117 412.377C34.3356 412.377 33.8029 412.671 33.4137 413.259C33.0273 413.847 32.8327 414.672 32.8299 415.735H32.8981C33.0572 415.493 33.2461 415.287 33.4648 415.117C33.6864 414.943 33.9308 414.81 34.1978 414.716C34.4648 414.622 34.7475 414.575 35.0458 414.575C35.5458 414.575 36.0032 414.7 36.418 414.95C36.8327 415.198 37.1651 415.54 37.4151 415.977C37.6651 416.412 37.7901 416.911 37.7901 417.473C37.7901 418.013 37.6694 418.507 37.4279 418.956C37.1864 419.402 36.8469 419.757 36.4094 420.022C35.9748 420.283 35.4634 420.411 34.8754 420.405ZM34.8754 419.468C35.2333 419.468 35.5543 419.378 35.8384 419.199C36.1254 419.02 36.3512 418.78 36.516 418.479C36.6836 418.178 36.7674 417.843 36.7674 417.473C36.7674 417.112 36.6864 416.784 36.5245 416.489C36.3654 416.191 36.1452 415.953 35.864 415.777C35.5856 415.601 35.2674 415.513 34.9094 415.513C34.6396 415.513 34.3881 415.567 34.1552 415.675C33.9222 415.78 33.7177 415.925 33.5415 416.11C33.3683 416.294 33.2319 416.506 33.1325 416.745C33.033 416.98 32.9833 417.229 32.9833 417.49C32.9833 417.837 33.0643 418.161 33.2262 418.462C33.391 418.763 33.6154 419.006 33.8995 419.191C34.1864 419.375 34.5117 419.468 34.8754 419.468ZM39.6193 420.286V411.558H40.625V414.78H40.7102C40.7841 414.666 40.8864 414.522 41.017 414.345C41.1506 414.166 41.3409 414.007 41.5881 413.868C41.8381 413.726 42.1761 413.655 42.6023 413.655C43.1534 413.655 43.6392 413.793 44.0597 414.068C44.4801 414.344 44.8082 414.735 45.044 415.24C45.2798 415.746 45.3977 416.343 45.3977 417.03C45.3977 417.723 45.2798 418.324 45.044 418.833C44.8082 419.338 44.4815 419.73 44.0639 420.009C43.6463 420.284 43.1648 420.422 42.6193 420.422C42.1989 420.422 41.8622 420.352 41.6094 420.213C41.3565 420.071 41.1619 419.911 41.0256 419.732C40.8892 419.55 40.7841 419.399 40.7102 419.28H40.5909V420.286H39.6193ZM40.608 417.013C40.608 417.507 40.6804 417.943 40.8253 418.321C40.9702 418.696 41.1818 418.99 41.4602 419.203C41.7386 419.414 42.0795 419.519 42.483 419.519C42.9034 419.519 43.2543 419.408 43.5355 419.186C43.8196 418.962 44.0327 418.661 44.1747 418.283C44.3196 417.902 44.392 417.479 44.392 417.013C44.392 416.553 44.321 416.138 44.179 415.769C44.0398 415.397 43.8281 415.102 43.544 414.887C43.2628 414.668 42.9091 414.558 42.483 414.558C42.0739 414.558 41.7301 414.662 41.4517 414.87C41.1733 415.074 40.9631 415.361 40.821 415.73C40.679 416.097 40.608 416.524 40.608 417.013ZM49.4929 419.689V414.064H50.4474V419.689H49.4929ZM47.1577 417.354V416.399H52.7827V417.354H47.1577Z" fill="white"/>
<rect width="85" height="25" transform="translate(0 427)" fill="#801A1A"/>
<rect x="0.5" y="427.5" width="84" height="24" stroke="black"/>
<path d="M39.2054 442.691C38.8475 442.685 38.4895 442.617 38.1316 442.486C37.7736 442.356 37.4469 442.135 37.1515 441.826C36.856 441.513 36.6188 441.091 36.4398 440.56C36.2608 440.026 36.1713 439.356 36.1713 438.549C36.1713 437.776 36.2438 437.091 36.3887 436.495C36.5336 435.895 36.7438 435.391 37.0194 434.982C37.2949 434.57 37.6273 434.258 38.0165 434.044C38.4086 433.831 38.8503 433.725 39.3418 433.725C39.8304 433.725 40.2651 433.823 40.6458 434.019C41.0293 434.212 41.3418 434.482 41.5833 434.829C41.8248 435.175 41.981 435.574 42.052 436.026H41.0123C40.9157 435.634 40.7282 435.309 40.4498 435.05C40.1713 434.792 39.802 434.662 39.3418 434.662C38.6657 434.662 38.133 434.956 37.7438 435.544C37.3574 436.133 37.1628 436.958 37.16 438.02H37.2282C37.3873 437.779 37.5762 437.573 37.7949 437.402C38.0165 437.229 38.2608 437.096 38.5279 437.002C38.7949 436.908 39.0776 436.861 39.3759 436.861C39.8759 436.861 40.3333 436.986 40.748 437.236C41.1628 437.483 41.4952 437.826 41.7452 438.263C41.9952 438.698 42.1202 439.196 42.1202 439.759C42.1202 440.299 41.9995 440.793 41.758 441.242C41.5165 441.688 41.177 442.043 40.7395 442.307C40.3049 442.569 39.7935 442.696 39.2054 442.691ZM39.2054 441.753C39.5634 441.753 39.8844 441.664 40.1685 441.485C40.4554 441.306 40.6813 441.066 40.8461 440.765C41.0137 440.463 41.0975 440.128 41.0975 439.759C41.0975 439.398 41.0165 439.07 40.8546 438.775C40.6955 438.476 40.4753 438.239 40.1941 438.063C39.9157 437.887 39.5975 437.799 39.2395 437.799C38.9696 437.799 38.7182 437.853 38.4853 437.961C38.2523 438.066 38.0478 438.211 37.8716 438.395C37.6983 438.58 37.562 438.792 37.4625 439.03C37.3631 439.266 37.3134 439.515 37.3134 439.776C37.3134 440.123 37.3944 440.446 37.5563 440.748C37.7211 441.049 37.9455 441.292 38.2296 441.476C38.5165 441.661 38.8418 441.753 39.2054 441.753ZM46.4721 442.708C45.8585 442.708 45.3301 442.563 44.8869 442.273C44.4437 441.983 44.1028 441.584 43.8642 441.076C43.6255 440.567 43.5062 439.986 43.5062 439.333C43.5062 438.668 43.6284 438.081 43.8727 437.573C44.1199 437.061 44.4636 436.662 44.9039 436.375C45.3471 436.086 45.8642 435.941 46.4551 435.941C46.9153 435.941 47.3301 436.026 47.6994 436.196C48.0687 436.367 48.3713 436.606 48.6071 436.912C48.8429 437.219 48.9892 437.577 49.046 437.986H48.0403C47.9636 437.688 47.7931 437.424 47.5289 437.194C47.2676 436.961 46.9153 436.844 46.4721 436.844C46.0801 436.844 45.7363 436.946 45.4409 437.151C45.1483 437.353 44.9196 437.638 44.7548 438.008C44.5929 438.374 44.5119 438.804 44.5119 439.299C44.5119 439.804 44.5914 440.245 44.7505 440.62C44.9125 440.995 45.1397 441.286 45.4324 441.493C45.7278 441.701 46.0744 441.804 46.4721 441.804C46.7335 441.804 46.9707 441.759 47.1838 441.668C47.3968 441.577 47.5772 441.446 47.725 441.276C47.8727 441.106 47.9778 440.901 48.0403 440.662H49.046C48.9892 441.049 48.8485 441.397 48.6241 441.706C48.4025 442.013 48.1085 442.258 47.742 442.439C47.3784 442.618 46.9551 442.708 46.4721 442.708Z" fill="white"/>
<rect width="85" height="24" transform="translate(0 451)" fill="#801A1A"/>
<rect x="0.5" y="451.5" width="84" height="23" stroke="black"/>
<path d="M35.2504 466.548C34.8924 466.542 34.5344 466.474 34.1765 466.343C33.8185 466.213 33.4918 465.992 33.1964 465.683C32.9009 465.37 32.6637 464.948 32.4847 464.417C32.3058 463.883 32.2163 463.213 32.2163 462.406C32.2163 461.633 32.2887 460.948 32.4336 460.352C32.5785 459.752 32.7887 459.248 33.0643 458.839C33.3398 458.427 33.6722 458.115 34.0614 457.902C34.4535 457.689 34.8952 457.582 35.3867 457.582C35.8754 457.582 36.31 457.68 36.6907 457.876C37.0742 458.069 37.3867 458.339 37.6282 458.686C37.8697 459.032 38.0259 459.431 38.0969 459.883H37.0572C36.9606 459.491 36.7731 459.166 36.4947 458.907C36.2163 458.649 35.8469 458.519 35.3867 458.519C34.7106 458.519 34.1779 458.814 33.7887 459.402C33.4023 459.99 33.2077 460.815 33.2049 461.877H33.2731C33.4322 461.636 33.6211 461.43 33.8398 461.26C34.0614 461.086 34.3058 460.953 34.5728 460.859C34.8398 460.765 35.1225 460.718 35.4208 460.718C35.9208 460.718 36.3782 460.843 36.793 461.093C37.2077 461.341 37.5401 461.683 37.7901 462.12C38.0401 462.555 38.1651 463.054 38.1651 463.616C38.1651 464.156 38.0444 464.65 37.8029 465.099C37.5614 465.545 37.2219 465.9 36.7844 466.164C36.3498 466.426 35.8384 466.554 35.2504 466.548ZM35.2504 465.61C35.6083 465.61 35.9293 465.521 36.2134 465.342C36.5004 465.163 36.7262 464.923 36.891 464.622C37.0586 464.321 37.1424 463.985 37.1424 463.616C37.1424 463.255 37.0614 462.927 36.8995 462.632C36.7404 462.333 36.5202 462.096 36.239 461.92C35.9606 461.744 35.6424 461.656 35.2844 461.656C35.0146 461.656 34.7631 461.71 34.5302 461.818C34.2972 461.923 34.0927 462.068 33.9165 462.252C33.7433 462.437 33.6069 462.649 33.5075 462.887C33.408 463.123 33.3583 463.372 33.3583 463.633C33.3583 463.98 33.4393 464.304 33.6012 464.605C33.766 464.906 33.9904 465.149 34.2745 465.333C34.5614 465.518 34.8867 465.61 35.2504 465.61ZM42.517 466.565C41.9034 466.565 41.375 466.42 40.9318 466.13C40.4886 465.841 40.1477 465.441 39.9091 464.933C39.6705 464.424 39.5511 463.843 39.5511 463.19C39.5511 462.525 39.6733 461.939 39.9176 461.43C40.1648 460.919 40.5085 460.519 40.9489 460.233C41.392 459.943 41.9091 459.798 42.5 459.798C42.9602 459.798 43.375 459.883 43.7443 460.054C44.1136 460.224 44.4162 460.463 44.652 460.769C44.8878 461.076 45.0341 461.434 45.0909 461.843H44.0852C44.0085 461.545 43.8381 461.281 43.5739 461.051C43.3125 460.818 42.9602 460.701 42.517 460.701C42.125 460.701 41.7813 460.804 41.4858 461.008C41.1932 461.21 40.9645 461.495 40.7997 461.865C40.6378 462.231 40.5568 462.662 40.5568 463.156C40.5568 463.662 40.6364 464.102 40.7955 464.477C40.9574 464.852 41.1847 465.143 41.4773 465.35C41.7727 465.558 42.1193 465.662 42.517 465.662C42.7784 465.662 43.0156 465.616 43.2287 465.525C43.4418 465.434 43.6222 465.304 43.7699 465.133C43.9176 464.963 44.0227 464.758 44.0852 464.519H45.0909C45.0341 464.906 44.8935 465.254 44.669 465.564C44.4474 465.87 44.1534 466.115 43.7869 466.296C43.4233 466.475 43 466.565 42.517 466.565ZM49.1179 465.832V460.207H50.0724V465.832H49.1179ZM46.7827 463.497V462.542H52.4077V463.497H46.7827Z" fill="white"/>
<rect width="85" height="24" transform="translate(0 474)" fill="#AE4242"/>
<rect x="0.5" y="474.5" width="84" height="23" stroke="black"/>
<path d="M37.1429 489.429L41.0463 481.707V481.639H36.5463V480.701H42.1373V481.69L38.2509 489.429H37.1429ZM45.1181 489.582C44.7033 489.582 44.3269 489.504 43.9888 489.348C43.6507 489.189 43.3823 488.96 43.1834 488.662C42.9846 488.36 42.8851 487.997 42.8851 487.571C42.8851 487.196 42.959 486.892 43.1067 486.659C43.2544 486.423 43.4519 486.238 43.699 486.105C43.9462 485.971 44.2189 485.872 44.5172 485.806C44.8184 485.738 45.1209 485.684 45.4249 485.644C45.8226 485.593 46.1451 485.555 46.3922 485.529C46.6422 485.501 46.824 485.454 46.9377 485.389C47.0542 485.323 47.1124 485.21 47.1124 485.048V485.014C47.1124 484.593 46.9973 484.267 46.7672 484.034C46.54 483.801 46.1948 483.684 45.7317 483.684C45.2516 483.684 44.8752 483.789 44.6025 484C44.3297 484.21 44.138 484.434 44.0272 484.673L43.0726 484.332C43.2431 483.934 43.4703 483.625 43.7544 483.403C44.0414 483.179 44.3539 483.022 44.6919 482.934C45.0328 482.843 45.3681 482.798 45.6976 482.798C45.9078 482.798 46.1493 482.823 46.4221 482.875C46.6976 482.923 46.9632 483.024 47.2189 483.177C47.4775 483.331 47.6919 483.562 47.8624 483.872C48.0328 484.181 48.1181 484.596 48.1181 485.116V489.429H47.1124V488.542H47.0613C46.9931 488.684 46.8794 488.836 46.7203 488.998C46.5613 489.16 46.3496 489.298 46.0854 489.412C45.8212 489.525 45.4988 489.582 45.1181 489.582ZM45.2715 488.679C45.6692 488.679 46.0044 488.6 46.2772 488.444C46.5527 488.288 46.7601 488.086 46.8993 487.839C47.0414 487.592 47.1124 487.332 47.1124 487.059V486.139C47.0698 486.19 46.976 486.237 46.8311 486.279C46.6891 486.319 46.5243 486.355 46.3368 486.386C46.1522 486.414 45.9718 486.44 45.7956 486.463C45.6223 486.483 45.4817 486.5 45.3738 486.514C45.1124 486.548 44.8681 486.603 44.6408 486.68C44.4164 486.754 44.2346 486.866 44.0953 487.017C43.959 487.164 43.8908 487.366 43.8908 487.622C43.8908 487.971 44.0201 488.235 44.2786 488.414C44.54 488.591 44.8709 488.679 45.2715 488.679Z" fill="white"/>
<rect width="85" height="23" transform="translate(0 497)" fill="#AE4242"/>
<rect x="0.5" y="497.5" width="84" height="22" stroke="black"/>
<path d="M33.1879 512.286L37.0913 504.564V504.496H32.5913V503.558H38.1822V504.547L34.2958 512.286H33.1879ZM41.163 512.439C40.7482 512.439 40.3718 512.361 40.0337 512.205C39.6957 512.046 39.4272 511.817 39.2283 511.519C39.0295 511.218 38.93 510.854 38.93 510.428C38.93 510.053 39.0039 509.749 39.1516 509.516C39.2994 509.28 39.4968 509.095 39.744 508.962C39.9911 508.828 40.2638 508.729 40.5621 508.664C40.8633 508.595 41.1658 508.541 41.4698 508.502C41.8675 508.45 42.19 508.412 42.4371 508.387C42.6871 508.358 42.869 508.311 42.9826 508.246C43.0991 508.181 43.1573 508.067 43.1573 507.905V507.871C43.1573 507.45 43.0423 507.124 42.8121 506.891C42.5849 506.658 42.2397 506.541 41.7766 506.541C41.2965 506.541 40.9201 506.647 40.6474 506.857C40.3746 507.067 40.1829 507.291 40.0721 507.53L39.1175 507.189C39.288 506.791 39.5153 506.482 39.7994 506.26C40.0863 506.036 40.3988 505.879 40.7369 505.791C41.0778 505.7 41.413 505.655 41.7425 505.655C41.9528 505.655 42.1942 505.681 42.467 505.732C42.7425 505.78 43.0082 505.881 43.2638 506.034C43.5224 506.188 43.7369 506.419 43.9073 506.729C44.0778 507.039 44.163 507.453 44.163 507.973V512.286H43.1573V511.399H43.1062C43.038 511.541 42.9244 511.693 42.7653 511.855C42.6062 512.017 42.3945 512.155 42.1303 512.269C41.8661 512.382 41.5437 512.439 41.163 512.439ZM41.3164 511.536C41.7141 511.536 42.0494 511.458 42.3221 511.301C42.5977 511.145 42.805 510.943 42.9442 510.696C43.0863 510.449 43.1573 510.189 43.1573 509.916V508.996C43.1147 509.047 43.021 509.094 42.8761 509.137C42.734 509.176 42.5692 509.212 42.3817 509.243C42.1971 509.272 42.0167 509.297 41.8406 509.32C41.6673 509.34 41.5266 509.357 41.4187 509.371C41.1573 509.405 40.913 509.46 40.6857 509.537C40.4613 509.611 40.2795 509.723 40.1403 509.874C40.0039 510.022 39.9357 510.223 39.9357 510.479C39.9357 510.828 40.065 511.093 40.3235 511.272C40.5849 511.448 40.9158 511.536 41.3164 511.536ZM48.5554 511.689V506.064H49.5099V511.689H48.5554ZM46.2202 509.354V508.399H51.8452V509.354H46.2202Z" fill="white"/>
<rect width="85" height="24" transform="translate(0 519)" fill="#801A1A"/>
<rect x="0.5" y="519.5" width="84" height="23" stroke="black"/>
<path d="M36.5218 534.429L40.4252 526.707V526.639H35.9252V525.701H41.5162V526.69L37.6298 534.429H36.5218ZM43.258 534.429V525.701H44.2637V528.923H44.3489C44.4228 528.809 44.525 528.664 44.6557 528.488C44.7892 528.309 44.9796 528.15 45.2267 528.011C45.4767 527.869 45.8148 527.798 46.2409 527.798C46.7921 527.798 47.2779 527.936 47.6983 528.211C48.1188 528.487 48.4469 528.877 48.6827 529.383C48.9185 529.889 49.0364 530.485 49.0364 531.173C49.0364 531.866 48.9185 532.467 48.6827 532.975C48.4469 533.481 48.1202 533.873 47.7026 534.152C47.285 534.427 46.8034 534.565 46.258 534.565C45.8375 534.565 45.5009 534.495 45.248 534.356C44.9952 534.214 44.8006 534.054 44.6642 533.875C44.5279 533.693 44.4228 533.542 44.3489 533.423H44.2296V534.429H43.258ZM44.2466 531.156C44.2466 531.65 44.3191 532.086 44.464 532.464C44.6088 532.839 44.8205 533.133 45.0989 533.346C45.3773 533.556 45.7182 533.662 46.1216 533.662C46.5421 533.662 46.8929 533.551 47.1742 533.329C47.4583 533.105 47.6713 532.804 47.8134 532.426C47.9583 532.045 48.0307 531.622 48.0307 531.156C48.0307 530.696 47.9597 530.281 47.8176 529.912C47.6784 529.539 47.4668 529.245 47.1827 529.029C46.9015 528.811 46.5478 528.701 46.1216 528.701C45.7125 528.701 45.3688 528.805 45.0904 529.012C44.812 529.217 44.6017 529.504 44.4597 529.873C44.3176 530.24 44.2466 530.667 44.2466 531.156Z" fill="white"/>
<rect width="85" height="24" transform="translate(0 542)" fill="#801A1A"/>
<rect x="0.5" y="542.5" width="84" height="23" stroke="black"/>
<path d="M32.5668 557.429L36.4702 549.707V549.639H31.9702V548.701H37.5611V549.69L33.6747 557.429H32.5668ZM39.3029 557.429V548.701H40.3086V551.923H40.3938C40.4677 551.809 40.57 551.664 40.7006 551.488C40.8342 551.309 41.0245 551.15 41.2717 551.011C41.5217 550.869 41.8597 550.798 42.2859 550.798C42.837 550.798 43.3228 550.936 43.7433 551.211C44.1637 551.487 44.4918 551.877 44.7276 552.383C44.9634 552.889 45.0813 553.485 45.0813 554.173C45.0813 554.866 44.9634 555.467 44.7276 555.975C44.4918 556.481 44.1651 556.873 43.7475 557.152C43.3299 557.427 42.8484 557.565 42.3029 557.565C41.8825 557.565 41.5458 557.495 41.293 557.356C41.0401 557.214 40.8455 557.054 40.7092 556.875C40.5728 556.693 40.4677 556.542 40.3938 556.423H40.2745V557.429H39.3029ZM40.2915 554.156C40.2915 554.65 40.364 555.086 40.5089 555.464C40.6538 555.839 40.8654 556.133 41.1438 556.346C41.4222 556.556 41.7631 556.662 42.1665 556.662C42.587 556.662 42.9379 556.551 43.2191 556.329C43.5032 556.105 43.7163 555.804 43.8583 555.426C44.0032 555.045 44.0756 554.622 44.0756 554.156C44.0756 553.696 44.0046 553.281 43.8626 552.912C43.7234 552.539 43.5117 552.245 43.2276 552.029C42.9464 551.811 42.5927 551.701 42.1665 551.701C41.7575 551.701 41.4137 551.805 41.1353 552.012C40.8569 552.217 40.6467 552.504 40.5046 552.873C40.3626 553.24 40.2915 553.667 40.2915 554.156ZM49.1765 556.832V551.207H50.131V556.832H49.1765ZM46.8413 554.497V553.542H52.4663V554.497H46.8413Z" fill="white"/>
<rect width="85" height="25" transform="translate(0 565)" fill="#AE4242"/>
<rect x="0.5" y="565.5" width="84" height="24" stroke="black"/>
<path d="M37.2015 580.571L41.1049 572.85V572.782H36.6049V571.844H42.1958V572.833L38.3095 580.571H37.2015ZM45.851 580.708C45.2374 580.708 44.709 580.563 44.2658 580.273C43.8226 579.983 43.4817 579.584 43.2431 579.076C43.0044 578.567 42.8851 577.986 42.8851 577.333C42.8851 576.668 43.0073 576.081 43.2516 575.573C43.4988 575.061 43.8425 574.662 44.2828 574.375C44.726 574.086 45.2431 573.941 45.834 573.941C46.2942 573.941 46.709 574.026 47.0783 574.196C47.4476 574.367 47.7502 574.606 47.986 574.912C48.2218 575.219 48.3681 575.577 48.4249 575.986H47.4192C47.3425 575.688 47.1721 575.424 46.9078 575.194C46.6465 574.961 46.2942 574.844 45.851 574.844C45.459 574.844 45.1152 574.946 44.8198 575.151C44.5272 575.353 44.2985 575.638 44.1337 576.008C43.9718 576.374 43.8908 576.804 43.8908 577.299C43.8908 577.804 43.9703 578.245 44.1294 578.62C44.2914 578.995 44.5186 579.286 44.8113 579.493C45.1067 579.701 45.4533 579.804 45.851 579.804C46.1124 579.804 46.3496 579.759 46.5627 579.668C46.7757 579.577 46.9561 579.446 47.1039 579.276C47.2516 579.106 47.3567 578.901 47.4192 578.662H48.4249C48.3681 579.049 48.2275 579.397 48.003 579.706C47.7814 580.013 47.4874 580.258 47.1209 580.439C46.7573 580.618 46.334 580.708 45.851 580.708Z" fill="white"/>
<rect width="85" height="23" transform="translate(0 589)" fill="#AE4242"/>
<rect x="0.5" y="589.5" width="84" height="22" stroke="black"/>
<path d="M33.2464 604.286L37.1499 596.564V596.496H32.6499V595.558H38.2408V596.547L34.3544 604.286H33.2464ZM41.896 604.422C41.2823 604.422 40.7539 604.277 40.3107 603.987C39.8675 603.698 39.5266 603.299 39.288 602.79C39.0494 602.281 38.93 601.7 38.93 601.047C38.93 600.382 39.0522 599.796 39.2965 599.287C39.5437 598.776 39.8874 598.377 40.3278 598.09C40.771 597.8 41.288 597.655 41.8789 597.655C42.3391 597.655 42.7539 597.74 43.1232 597.911C43.4925 598.081 43.7951 598.32 44.0309 598.627C44.2667 598.933 44.413 599.291 44.4698 599.7H43.4641C43.3874 599.402 43.217 599.138 42.9528 598.908C42.6914 598.675 42.3391 598.558 41.896 598.558C41.5039 598.558 41.1602 598.661 40.8647 598.865C40.5721 599.067 40.3434 599.352 40.1786 599.722C40.0167 600.088 39.9357 600.519 39.9357 601.013C39.9357 601.519 40.0153 601.959 40.1744 602.334C40.3363 602.709 40.5636 603 40.8562 603.208C41.1516 603.415 41.4982 603.519 41.896 603.519C42.1573 603.519 42.3945 603.473 42.6076 603.382C42.8207 603.291 43.0011 603.161 43.1488 602.99C43.2965 602.82 43.4016 602.615 43.4641 602.377H44.4698C44.413 602.763 44.2724 603.111 44.0479 603.421C43.8263 603.727 43.5323 603.972 43.1658 604.154C42.8022 604.333 42.3789 604.422 41.896 604.422ZM48.4968 603.689V598.064H49.4513V603.689H48.4968ZM46.1616 601.354V600.399H51.7866V601.354H46.1616Z" fill="white"/>
<rect width="85" height="25" transform="translate(0 611)" fill="#801A1A"/>
<rect x="0.5" y="611.5" width="84" height="24" stroke="black"/>
<path d="M39.1207 626.691C38.5355 626.691 38.0185 626.587 37.5696 626.38C37.1236 626.169 36.7756 625.881 36.5256 625.515C36.2756 625.145 36.152 624.725 36.1548 624.253C36.152 623.884 36.2244 623.543 36.3722 623.231C36.5199 622.915 36.7216 622.652 36.9773 622.442C37.2358 622.229 37.5241 622.094 37.8423 622.037V621.986C37.4247 621.878 37.0923 621.644 36.8452 621.283C36.598 620.919 36.4759 620.506 36.4787 620.043C36.4759 619.6 36.5881 619.204 36.8153 618.854C37.0426 618.505 37.3551 618.229 37.7528 618.027C38.1534 617.826 38.6094 617.725 39.1207 617.725C39.6264 617.725 40.0781 617.826 40.4759 618.027C40.8736 618.229 41.1861 618.505 41.4134 618.854C41.6435 619.204 41.7599 619.6 41.7628 620.043C41.7599 620.506 41.6335 620.919 41.3835 621.283C41.1364 621.644 40.8082 621.878 40.3991 621.986V622.037C40.7145 622.094 40.9986 622.229 41.2514 622.442C41.5043 622.652 41.706 622.915 41.8565 623.231C42.0071 623.543 42.0838 623.884 42.0866 624.253C42.0838 624.725 41.956 625.145 41.7031 625.515C41.4531 625.881 41.1051 626.169 40.6591 626.38C40.2159 626.587 39.7031 626.691 39.1207 626.691ZM39.1207 625.753C39.5156 625.753 39.8565 625.689 40.1435 625.561C40.4304 625.434 40.652 625.253 40.8082 625.02C40.9645 624.787 41.044 624.515 41.0469 624.202C41.044 623.873 40.9588 623.581 40.7912 623.329C40.6236 623.076 40.3949 622.877 40.1051 622.732C39.8182 622.587 39.4901 622.515 39.1207 622.515C38.7486 622.515 38.4162 622.587 38.1236 622.732C37.8338 622.877 37.6051 623.076 37.4375 623.329C37.2727 623.581 37.1918 623.873 37.1946 624.202C37.1918 624.515 37.267 624.787 37.4205 625.02C37.5767 625.253 37.7997 625.434 38.0895 625.561C38.3793 625.689 38.723 625.753 39.1207 625.753ZM39.1207 621.611C39.4332 621.611 39.7102 621.549 39.9517 621.424C40.196 621.299 40.3878 621.124 40.527 620.9C40.6662 620.675 40.7372 620.412 40.7401 620.111C40.7372 619.816 40.6676 619.559 40.5312 619.34C40.3949 619.118 40.206 618.948 39.9645 618.829C39.723 618.706 39.4418 618.645 39.1207 618.645C38.794 618.645 38.5085 618.706 38.2642 618.829C38.0199 618.948 37.831 619.118 37.6974 619.34C37.5639 619.559 37.4986 619.816 37.5014 620.111C37.4986 620.412 37.5653 620.675 37.7017 620.9C37.8409 621.124 38.0327 621.299 38.277 621.424C38.5213 621.549 38.8026 621.611 39.1207 621.611ZM45.663 626.725C45.2482 626.725 44.8718 626.647 44.5337 626.49C44.1957 626.331 43.9272 626.103 43.7283 625.804C43.5295 625.503 43.43 625.14 43.43 624.713C43.43 624.338 43.5039 624.034 43.6516 623.802C43.7994 623.566 43.9968 623.381 44.244 623.248C44.4911 623.114 44.7638 623.015 45.0621 622.949C45.3633 622.881 45.6658 622.827 45.9698 622.787C46.3675 622.736 46.69 622.698 46.9371 622.672C47.1871 622.644 47.369 622.597 47.4826 622.532C47.5991 622.466 47.6573 622.353 47.6573 622.191V622.157C47.6573 621.736 47.5423 621.409 47.3121 621.177C47.0849 620.944 46.7397 620.827 46.2766 620.827C45.7965 620.827 45.4201 620.932 45.1474 621.142C44.8746 621.353 44.6829 621.577 44.5721 621.816L43.6175 621.475C43.788 621.077 44.0153 620.767 44.2994 620.546C44.5863 620.321 44.8988 620.165 45.2369 620.077C45.5778 619.986 45.913 619.941 46.2425 619.941C46.4528 619.941 46.6942 619.966 46.967 620.017C47.2425 620.066 47.5082 620.167 47.7638 620.32C48.0224 620.473 48.2369 620.705 48.4073 621.015C48.5778 621.324 48.663 621.739 48.663 622.259V626.571H47.6573V625.685H47.6062C47.538 625.827 47.4244 625.979 47.2653 626.141C47.1062 626.303 46.8945 626.441 46.6303 626.554C46.3661 626.668 46.0437 626.725 45.663 626.725ZM45.8164 625.821C46.2141 625.821 46.5494 625.743 46.8221 625.587C47.0977 625.431 47.305 625.229 47.4442 624.982C47.5863 624.735 47.6573 624.475 47.6573 624.202V623.282C47.6147 623.333 47.521 623.38 47.3761 623.422C47.234 623.462 47.0692 623.498 46.8817 623.529C46.6971 623.557 46.5167 623.583 46.3406 623.606C46.1673 623.625 46.0266 623.642 45.9187 623.657C45.6573 623.691 45.413 623.746 45.1857 623.823C44.9613 623.897 44.7795 624.009 44.6403 624.159C44.5039 624.307 44.4357 624.509 44.4357 624.765C44.4357 625.114 44.565 625.378 44.8235 625.557C45.0849 625.733 45.4158 625.821 45.8164 625.821Z" fill="white"/>
<rect width="85" height="24" transform="translate(0 635)" fill="#801A1A"/>
<rect x="0.5" y="635.5" width="84" height="23" stroke="black"/>
<path d="M35.1657 650.548C34.5804 650.548 34.0634 650.444 33.6145 650.237C33.1685 650.027 32.8205 649.738 32.5705 649.372C32.3205 649.002 32.1969 648.582 32.1998 648.11C32.1969 647.741 32.2694 647.4 32.4171 647.088C32.5648 646.772 32.7665 646.51 33.0222 646.299C33.2807 646.086 33.5691 645.951 33.8873 645.894V645.843C33.4696 645.735 33.1373 645.501 32.8901 645.14C32.6429 644.777 32.5208 644.363 32.5236 643.9C32.5208 643.457 32.633 643.061 32.8603 642.711C33.0875 642.362 33.4 642.086 33.7978 641.885C34.1983 641.683 34.6543 641.582 35.1657 641.582C35.6713 641.582 36.123 641.683 36.5208 641.885C36.9185 642.086 37.231 642.362 37.4583 642.711C37.6884 643.061 37.8049 643.457 37.8077 643.9C37.8049 644.363 37.6784 644.777 37.4284 645.14C37.1813 645.501 36.8532 645.735 36.4441 645.843V645.894C36.7594 645.951 37.0435 646.086 37.2963 646.299C37.5492 646.51 37.7509 646.772 37.9015 647.088C38.052 647.4 38.1287 647.741 38.1316 648.11C38.1287 648.582 38.0009 649.002 37.748 649.372C37.498 649.738 37.15 650.027 36.704 650.237C36.2608 650.444 35.748 650.548 35.1657 650.548ZM35.1657 649.61C35.5605 649.61 35.9015 649.546 36.1884 649.419C36.4753 649.291 36.6969 649.11 36.8532 648.877C37.0094 648.644 37.089 648.372 37.0918 648.059C37.089 647.73 37.0037 647.439 36.8361 647.186C36.6685 646.933 36.4398 646.734 36.15 646.589C35.8631 646.444 35.535 646.372 35.1657 646.372C34.7935 646.372 34.4611 646.444 34.1685 646.589C33.8787 646.734 33.65 646.933 33.4824 647.186C33.3176 647.439 33.2367 647.73 33.2395 648.059C33.2367 648.372 33.312 648.644 33.4654 648.877C33.6216 649.11 33.8446 649.291 34.1344 649.419C34.4242 649.546 34.7679 649.61 35.1657 649.61ZM35.1657 645.468C35.4782 645.468 35.7551 645.406 35.9966 645.281C36.2409 645.156 36.4327 644.981 36.5719 644.757C36.7111 644.532 36.7821 644.269 36.785 643.968C36.7821 643.673 36.7125 643.416 36.5762 643.197C36.4398 642.975 36.2509 642.805 36.0094 642.686C35.7679 642.564 35.4867 642.502 35.1657 642.502C34.839 642.502 34.5534 642.564 34.3091 642.686C34.0648 642.805 33.8759 642.975 33.7424 643.197C33.6088 643.416 33.5435 643.673 33.5463 643.968C33.5435 644.269 33.6103 644.532 33.7466 644.757C33.8858 644.981 34.0776 645.156 34.3219 645.281C34.5662 645.406 34.8475 645.468 35.1657 645.468ZM41.7079 650.582C41.2931 650.582 40.9167 650.504 40.5787 650.348C40.2406 650.189 39.9721 649.96 39.7733 649.662C39.5744 649.36 39.475 648.997 39.475 648.571C39.475 648.196 39.5488 647.892 39.6966 647.659C39.8443 647.423 40.0417 647.238 40.2889 647.105C40.536 646.971 40.8088 646.872 41.1071 646.806C41.4082 646.738 41.7108 646.684 42.0147 646.644C42.4125 646.593 42.7349 646.555 42.9821 646.529C43.2321 646.501 43.4139 646.454 43.5275 646.389C43.644 646.323 43.7022 646.21 43.7022 646.048V646.014C43.7022 645.593 43.5872 645.267 43.3571 645.034C43.1298 644.801 42.7846 644.684 42.3216 644.684C41.8414 644.684 41.465 644.789 41.1923 645C40.9196 645.21 40.7278 645.434 40.617 645.673L39.6625 645.332C39.8329 644.934 40.0602 644.625 40.3443 644.403C40.6312 644.179 40.9437 644.022 41.2818 643.934C41.6227 643.843 41.9579 643.798 42.2875 643.798C42.4977 643.798 42.7392 643.823 43.0119 643.875C43.2875 643.923 43.5531 644.024 43.8088 644.177C44.0673 644.331 44.2818 644.562 44.4522 644.872C44.6227 645.181 44.7079 645.596 44.7079 646.116V650.429H43.7022V649.542H43.6511C43.5829 649.684 43.4693 649.836 43.3102 649.998C43.1511 650.16 42.9395 650.298 42.6752 650.412C42.411 650.525 42.0886 650.582 41.7079 650.582ZM41.8613 649.679C42.2591 649.679 42.5943 649.6 42.867 649.444C43.1426 649.288 43.35 649.086 43.4892 648.839C43.6312 648.592 43.7022 648.332 43.7022 648.059V647.139C43.6596 647.19 43.5659 647.237 43.421 647.279C43.2789 647.319 43.1142 647.355 42.9267 647.386C42.742 647.414 42.5616 647.44 42.3855 647.463C42.2122 647.483 42.0716 647.5 41.9636 647.514C41.7022 647.548 41.4579 647.603 41.2306 647.68C41.0062 647.754 40.8244 647.866 40.6852 648.017C40.5488 648.164 40.4806 648.366 40.4806 648.622C40.4806 648.971 40.6099 649.235 40.8684 649.414C41.1298 649.59 41.4608 649.679 41.8613 649.679ZM49.1003 649.832V644.207H50.0549V649.832H49.1003ZM46.7651 647.497V646.542H52.3901V647.497H46.7651Z" fill="white"/>
<rect width="85" height="24" transform="translate(0 658)" fill="#AE4242"/>
<rect x="0.5" y="658.5" width="84" height="23" stroke="black"/>
<path d="M38.775 673.548C38.1898 673.548 37.6728 673.444 37.2239 673.237C36.7779 673.027 36.4299 672.738 36.1799 672.372C35.9299 672.002 35.8063 671.582 35.8091 671.11C35.8063 670.741 35.8787 670.4 36.0265 670.088C36.1742 669.772 36.3759 669.51 36.6316 669.299C36.8901 669.086 37.1784 668.951 37.4966 668.894V668.843C37.079 668.735 36.7466 668.501 36.4995 668.14C36.2523 667.777 36.1301 667.363 36.133 666.9C36.1301 666.457 36.2424 666.061 36.4696 665.711C36.6969 665.362 37.0094 665.086 37.4071 664.885C37.8077 664.683 38.2637 664.582 38.775 664.582C39.2807 664.582 39.7324 664.683 40.1301 664.885C40.5279 665.086 40.8404 665.362 41.0676 665.711C41.2978 666.061 41.4142 666.457 41.4171 666.9C41.4142 667.363 41.2878 667.777 41.0378 668.14C40.7907 668.501 40.4625 668.735 40.0534 668.843V668.894C40.3688 668.951 40.6529 669.086 40.9057 669.299C41.1586 669.51 41.3603 669.772 41.5108 670.088C41.6614 670.4 41.7381 670.741 41.7409 671.11C41.7381 671.582 41.6103 672.002 41.3574 672.372C41.1074 672.738 40.7594 673.027 40.3134 673.237C39.8702 673.444 39.3574 673.548 38.775 673.548ZM38.775 672.61C39.1699 672.61 39.5108 672.546 39.7978 672.419C40.0847 672.291 40.3063 672.11 40.4625 671.877C40.6188 671.644 40.6983 671.372 40.7012 671.059C40.6983 670.73 40.6131 670.439 40.4455 670.186C40.2779 669.933 40.0492 669.734 39.7594 669.589C39.4725 669.444 39.1444 669.372 38.775 669.372C38.4029 669.372 38.0705 669.444 37.7779 669.589C37.4881 669.734 37.2594 669.933 37.0918 670.186C36.927 670.439 36.8461 670.73 36.8489 671.059C36.8461 671.372 36.9213 671.644 37.0748 671.877C37.231 672.11 37.454 672.291 37.7438 672.419C38.0336 672.546 38.3773 672.61 38.775 672.61ZM38.775 668.468C39.0875 668.468 39.3645 668.406 39.606 668.281C39.8503 668.156 40.0421 667.981 40.1813 667.757C40.3205 667.532 40.3915 667.269 40.3944 666.968C40.3915 666.673 40.3219 666.416 40.1855 666.197C40.0492 665.975 39.8603 665.805 39.6188 665.686C39.3773 665.564 39.0961 665.502 38.775 665.502C38.4483 665.502 38.1628 665.564 37.9185 665.686C37.6742 665.805 37.4853 665.975 37.3517 666.197C37.2182 666.416 37.1529 666.673 37.1557 666.968C37.1529 667.269 37.2196 667.532 37.356 667.757C37.4952 667.981 37.687 668.156 37.9313 668.281C38.1756 668.406 38.4569 668.468 38.775 668.468ZM43.5275 673.429V664.701H44.5332V667.923H44.6184C44.6923 667.809 44.7946 667.664 44.9252 667.488C45.0588 667.309 45.2491 667.15 45.4963 667.011C45.7463 666.869 46.0843 666.798 46.5105 666.798C47.0616 666.798 47.5474 666.936 47.9679 667.211C48.3883 667.487 48.7164 667.877 48.9522 668.383C49.188 668.889 49.3059 669.485 49.3059 670.173C49.3059 670.866 49.188 671.467 48.9522 671.975C48.7164 672.481 48.3897 672.873 47.9721 673.152C47.5545 673.427 47.073 673.565 46.5275 673.565C46.1071 673.565 45.7704 673.495 45.5176 673.356C45.2647 673.214 45.0701 673.054 44.9338 672.875C44.7974 672.693 44.6923 672.542 44.6184 672.423H44.4991V673.429H43.5275ZM44.5162 670.156C44.5162 670.65 44.5886 671.086 44.7335 671.464C44.8784 671.839 45.09 672.133 45.3684 672.346C45.6468 672.556 45.9877 672.662 46.3912 672.662C46.8116 672.662 47.1625 672.551 47.4437 672.329C47.7278 672.105 47.9409 671.804 48.0829 671.426C48.2278 671.045 48.3002 670.622 48.3002 670.156C48.3002 669.696 48.2292 669.281 48.0872 668.912C47.948 668.539 47.7363 668.245 47.4522 668.029C47.171 667.811 46.8173 667.701 46.3912 667.701C45.9821 667.701 45.6383 667.805 45.3599 668.012C45.0815 668.217 44.8713 668.504 44.7292 668.873C44.5872 669.24 44.5162 669.667 44.5162 670.156Z" fill="white"/>
<rect width="85" height="24" transform="translate(0 681)" fill="#AE4242"/>
<rect x="0.5" y="681.5" width="84" height="23" stroke="black"/>
<path d="M34.82 696.548C34.2347 696.548 33.7177 696.444 33.2688 696.237C32.8228 696.027 32.4748 695.738 32.2248 695.372C31.9748 695.002 31.8512 694.582 31.854 694.11C31.8512 693.741 31.9237 693.4 32.0714 693.088C32.2191 692.772 32.4208 692.51 32.6765 692.299C32.935 692.086 33.2234 691.951 33.5415 691.894V691.843C33.1239 691.735 32.7915 691.501 32.5444 691.14C32.2972 690.777 32.1751 690.363 32.1779 689.9C32.1751 689.457 32.2873 689.061 32.5146 688.711C32.7418 688.362 33.0543 688.086 33.4521 687.885C33.8526 687.683 34.3086 687.582 34.82 687.582C35.3256 687.582 35.7773 687.683 36.1751 687.885C36.5728 688.086 36.8853 688.362 37.1126 688.711C37.3427 689.061 37.4592 689.457 37.462 689.9C37.4592 690.363 37.3327 690.777 37.0827 691.14C36.8356 691.501 36.5075 691.735 36.0984 691.843V691.894C36.4137 691.951 36.6978 692.086 36.9506 692.299C37.2035 692.51 37.4052 692.772 37.5558 693.088C37.7063 693.4 37.783 693.741 37.7859 694.11C37.783 694.582 37.6552 695.002 37.4023 695.372C37.1523 695.738 36.8043 696.027 36.3583 696.237C35.9151 696.444 35.4023 696.548 34.82 696.548ZM34.82 695.61C35.2148 695.61 35.5558 695.546 35.8427 695.419C36.1296 695.291 36.3512 695.11 36.5075 694.877C36.6637 694.644 36.7433 694.372 36.7461 694.059C36.7433 693.73 36.658 693.439 36.4904 693.186C36.3228 692.933 36.0941 692.734 35.8043 692.589C35.5174 692.444 35.1893 692.372 34.82 692.372C34.4478 692.372 34.1154 692.444 33.8228 692.589C33.533 692.734 33.3043 692.933 33.1367 693.186C32.9719 693.439 32.891 693.73 32.8938 694.059C32.891 694.372 32.9663 694.644 33.1197 694.877C33.2759 695.11 33.4989 695.291 33.7887 695.419C34.0785 695.546 34.4222 695.61 34.82 695.61ZM34.82 691.468C35.1325 691.468 35.4094 691.406 35.6509 691.281C35.8952 691.156 36.087 690.981 36.2262 690.757C36.3654 690.532 36.4364 690.269 36.4393 689.968C36.4364 689.673 36.3668 689.416 36.2305 689.197C36.0941 688.975 35.9052 688.805 35.6637 688.686C35.4222 688.564 35.141 688.502 34.82 688.502C34.4933 688.502 34.2077 688.564 33.9634 688.686C33.7191 688.805 33.5302 688.975 33.3967 689.197C33.2631 689.416 33.1978 689.673 33.2006 689.968C33.1978 690.269 33.2646 690.532 33.4009 690.757C33.5401 690.981 33.7319 691.156 33.9762 691.281C34.2205 691.406 34.5018 691.468 34.82 691.468ZM39.5724 696.429V687.701H40.5781V690.923H40.6634C40.7372 690.809 40.8395 690.664 40.9702 690.488C41.1037 690.309 41.294 690.15 41.5412 690.011C41.7912 689.869 42.1293 689.798 42.5554 689.798C43.1065 689.798 43.5923 689.936 44.0128 690.211C44.4332 690.487 44.7614 690.877 44.9972 691.383C45.233 691.889 45.3509 692.485 45.3509 693.173C45.3509 693.866 45.233 694.467 44.9972 694.975C44.7614 695.481 44.4347 695.873 44.017 696.152C43.5994 696.427 43.1179 696.565 42.5724 696.565C42.152 696.565 41.8153 696.495 41.5625 696.356C41.3097 696.214 41.1151 696.054 40.9787 695.875C40.8423 695.693 40.7372 695.542 40.6634 695.423H40.544V696.429H39.5724ZM40.5611 693.156C40.5611 693.65 40.6335 694.086 40.7784 694.464C40.9233 694.839 41.1349 695.133 41.4134 695.346C41.6918 695.556 42.0327 695.662 42.4361 695.662C42.8565 695.662 43.2074 695.551 43.4886 695.329C43.7727 695.105 43.9858 694.804 44.1278 694.426C44.2727 694.045 44.3452 693.622 44.3452 693.156C44.3452 692.696 44.2741 692.281 44.1321 691.912C43.9929 691.539 43.7813 691.245 43.4972 691.029C43.2159 690.811 42.8622 690.701 42.4361 690.701C42.027 690.701 41.6832 690.805 41.4048 691.012C41.1264 691.217 40.9162 691.504 40.7741 691.873C40.6321 692.24 40.5611 692.667 40.5611 693.156ZM49.446 695.832V690.207H50.4006V695.832H49.446ZM47.1108 693.497V692.542H52.7358V693.497H47.1108Z" fill="white"/>
<rect width="85" height="24" transform="translate(0 704)" fill="#801A1A"/>
<rect x="0.5" y="704.5" width="84" height="23" stroke="black"/>
<path d="M39.15 719.548C38.5648 719.548 38.0478 719.444 37.5989 719.237C37.1529 719.027 36.8049 718.738 36.5549 718.372C36.3049 718.002 36.1813 717.582 36.1841 717.11C36.1813 716.741 36.2537 716.4 36.4015 716.088C36.5492 715.772 36.7509 715.51 37.0066 715.299C37.2651 715.086 37.5534 714.951 37.8716 714.894V714.843C37.454 714.735 37.1216 714.501 36.8745 714.14C36.6273 713.777 36.5051 713.363 36.508 712.9C36.5051 712.457 36.6174 712.061 36.8446 711.711C37.0719 711.362 37.3844 711.086 37.7821 710.885C38.1827 710.683 38.6387 710.582 39.15 710.582C39.6557 710.582 40.1074 710.683 40.5051 710.885C40.9029 711.086 41.2154 711.362 41.4426 711.711C41.6728 712.061 41.7892 712.457 41.7921 712.9C41.7892 713.363 41.6628 713.777 41.4128 714.14C41.1657 714.501 40.8375 714.735 40.4284 714.843V714.894C40.7438 714.951 41.0279 715.086 41.2807 715.299C41.5336 715.51 41.7353 715.772 41.8858 716.088C42.0364 716.4 42.1131 716.741 42.1159 717.11C42.1131 717.582 41.9853 718.002 41.7324 718.372C41.4824 718.738 41.1344 719.027 40.6884 719.237C40.2452 719.444 39.7324 719.548 39.15 719.548ZM39.15 718.61C39.5449 718.61 39.8858 718.546 40.1728 718.419C40.4597 718.291 40.6813 718.11 40.8375 717.877C40.9938 717.644 41.0733 717.372 41.0762 717.059C41.0733 716.73 40.9881 716.439 40.8205 716.186C40.6529 715.933 40.4242 715.734 40.1344 715.589C39.8475 715.444 39.5194 715.372 39.15 715.372C38.7779 715.372 38.4455 715.444 38.1529 715.589C37.8631 715.734 37.6344 715.933 37.4668 716.186C37.302 716.439 37.2211 716.73 37.2239 717.059C37.2211 717.372 37.2963 717.644 37.4498 717.877C37.606 718.11 37.829 718.291 38.1188 718.419C38.4086 718.546 38.7523 718.61 39.15 718.61ZM39.15 714.468C39.4625 714.468 39.7395 714.406 39.981 714.281C40.2253 714.156 40.4171 713.981 40.5563 713.757C40.6955 713.532 40.7665 713.269 40.7694 712.968C40.7665 712.673 40.6969 712.416 40.5605 712.197C40.4242 711.975 40.2353 711.805 39.9938 711.686C39.7523 711.564 39.4711 711.502 39.15 711.502C38.8233 711.502 38.5378 711.564 38.2935 711.686C38.0492 711.805 37.8603 711.975 37.7267 712.197C37.5932 712.416 37.5279 712.673 37.5307 712.968C37.5279 713.269 37.5946 713.532 37.731 713.757C37.8702 713.981 38.062 714.156 38.3063 714.281C38.5506 714.406 38.8319 714.468 39.15 714.468ZM46.4252 719.565C45.8116 719.565 45.2832 719.42 44.84 719.13C44.3968 718.84 44.0559 718.441 43.8173 717.933C43.5787 717.424 43.4593 716.843 43.4593 716.19C43.4593 715.525 43.5815 714.939 43.8258 714.43C44.073 713.919 44.4167 713.519 44.8571 713.233C45.3002 712.943 45.8173 712.798 46.4082 712.798C46.8684 712.798 47.2832 712.883 47.6525 713.054C48.0218 713.224 48.3244 713.463 48.5602 713.769C48.796 714.076 48.9423 714.434 48.9991 714.843H47.9934C47.9167 714.545 47.7463 714.281 47.4821 714.051C47.2207 713.818 46.8684 713.701 46.4252 713.701C46.0332 713.701 45.6895 713.804 45.394 714.008C45.1014 714.21 44.8727 714.495 44.7079 714.865C44.546 715.231 44.465 715.662 44.465 716.156C44.465 716.662 44.5446 717.102 44.7037 717.477C44.8656 717.852 45.0929 718.143 45.3855 718.35C45.6809 718.558 46.0275 718.662 46.4252 718.662C46.6866 718.662 46.9238 718.616 47.1369 718.525C47.35 718.434 47.5304 718.304 47.6781 718.133C47.8258 717.963 47.9309 717.758 47.9934 717.519H48.9991C48.9423 717.906 48.8017 718.254 48.5772 718.564C48.3556 718.87 48.0616 719.115 47.6951 719.296C47.3315 719.475 46.9082 719.565 46.4252 719.565Z" fill="white"/>
<rect width="85" height="24" transform="translate(0 727)" fill="#801A1A"/>
<rect x="0.5" y="727.5" width="84" height="23" stroke="black"/>
<path d="M35.195 742.548C34.6097 742.548 34.0927 742.444 33.6438 742.237C33.1978 742.027 32.8498 741.738 32.5998 741.372C32.3498 741.002 32.2262 740.582 32.229 740.11C32.2262 739.741 32.2987 739.4 32.4464 739.088C32.5941 738.772 32.7958 738.51 33.0515 738.299C33.31 738.086 33.5984 737.951 33.9165 737.894V737.843C33.4989 737.735 33.1665 737.501 32.9194 737.14C32.6722 736.777 32.5501 736.363 32.5529 735.9C32.5501 735.457 32.6623 735.061 32.8896 734.711C33.1168 734.362 33.4293 734.086 33.8271 733.885C34.2276 733.683 34.6836 733.582 35.195 733.582C35.7006 733.582 36.1523 733.683 36.5501 733.885C36.9478 734.086 37.2603 734.362 37.4876 734.711C37.7177 735.061 37.8342 735.457 37.837 735.9C37.8342 736.363 37.7077 736.777 37.4577 737.14C37.2106 737.501 36.8825 737.735 36.4734 737.843V737.894C36.7887 737.951 37.0728 738.086 37.3256 738.299C37.5785 738.51 37.7802 738.772 37.9308 739.088C38.0813 739.4 38.158 739.741 38.1609 740.11C38.158 740.582 38.0302 741.002 37.7773 741.372C37.5273 741.738 37.1793 742.027 36.7333 742.237C36.2901 742.444 35.7773 742.548 35.195 742.548ZM35.195 741.61C35.5898 741.61 35.9308 741.546 36.2177 741.419C36.5046 741.291 36.7262 741.11 36.8825 740.877C37.0387 740.644 37.1183 740.372 37.1211 740.059C37.1183 739.73 37.033 739.439 36.8654 739.186C36.6978 738.933 36.4691 738.734 36.1793 738.589C35.8924 738.444 35.5643 738.372 35.195 738.372C34.8228 738.372 34.4904 738.444 34.1978 738.589C33.908 738.734 33.6793 738.933 33.5117 739.186C33.3469 739.439 33.266 739.73 33.2688 740.059C33.266 740.372 33.3413 740.644 33.4947 740.877C33.6509 741.11 33.8739 741.291 34.1637 741.419C34.4535 741.546 34.7972 741.61 35.195 741.61ZM35.195 737.468C35.5075 737.468 35.7844 737.406 36.0259 737.281C36.2702 737.156 36.462 736.981 36.6012 736.757C36.7404 736.532 36.8114 736.269 36.8143 735.968C36.8114 735.673 36.7418 735.416 36.6055 735.197C36.4691 734.975 36.2802 734.805 36.0387 734.686C35.7972 734.564 35.516 734.502 35.195 734.502C34.8683 734.502 34.5827 734.564 34.3384 734.686C34.0941 734.805 33.9052 734.975 33.7717 735.197C33.6381 735.416 33.5728 735.673 33.5756 735.968C33.5728 736.269 33.6396 736.532 33.7759 736.757C33.9151 736.981 34.1069 737.156 34.3512 737.281C34.5955 737.406 34.8768 737.468 35.195 737.468ZM42.4702 742.565C41.8565 742.565 41.3281 742.42 40.8849 742.13C40.4418 741.84 40.1009 741.441 39.8622 740.933C39.6236 740.424 39.5043 739.843 39.5043 739.19C39.5043 738.525 39.6264 737.939 39.8707 737.43C40.1179 736.919 40.4616 736.519 40.902 736.233C41.3452 735.943 41.8622 735.798 42.4531 735.798C42.9134 735.798 43.3281 735.883 43.6974 736.054C44.0668 736.224 44.3693 736.463 44.6051 736.769C44.8409 737.076 44.9872 737.434 45.044 737.843H44.0384C43.9616 737.545 43.7912 737.281 43.527 737.051C43.2656 736.818 42.9134 736.701 42.4702 736.701C42.0781 736.701 41.7344 736.804 41.4389 737.008C41.1463 737.21 40.9176 737.495 40.7528 737.865C40.5909 738.231 40.5099 738.662 40.5099 739.156C40.5099 739.662 40.5895 740.102 40.7486 740.477C40.9105 740.852 41.1378 741.143 41.4304 741.35C41.7259 741.558 42.0724 741.662 42.4702 741.662C42.7315 741.662 42.9688 741.616 43.1818 741.525C43.3949 741.434 43.5753 741.304 43.723 741.133C43.8707 740.963 43.9759 740.758 44.0384 740.519H45.044C44.9872 740.906 44.8466 741.254 44.6222 741.564C44.4006 741.87 44.1065 742.115 43.7401 742.296C43.3764 742.475 42.9531 742.565 42.4702 742.565ZM49.071 741.832V736.207H50.0256V741.832H49.071ZM46.7358 739.497V738.542H52.3608V739.497H46.7358Z" fill="white"/>
<rect width="85" height="24" transform="translate(0 750)" fill="#AE4242"/>
<rect x="0.5" y="750.5" width="84" height="23" stroke="black"/>
<path d="M39.0568 756.582C39.4148 756.585 39.7727 756.653 40.1307 756.787C40.4886 756.92 40.8153 757.142 41.1108 757.451C41.4063 757.758 41.6435 758.177 41.8224 758.708C42.0014 759.24 42.0909 759.906 42.0909 760.707C42.0909 761.483 42.017 762.171 41.8693 762.774C41.7244 763.373 41.5142 763.879 41.2386 764.291C40.9659 764.703 40.6335 765.015 40.2415 765.228C39.8523 765.441 39.4119 765.548 38.9205 765.548C38.4318 765.548 37.9957 765.451 37.6122 765.258C37.2315 765.062 36.919 764.791 36.6747 764.444C36.4332 764.095 36.2784 763.69 36.2102 763.23H37.25C37.3438 763.63 37.5298 763.961 37.8082 764.223C38.0895 764.481 38.4602 764.61 38.9205 764.61C39.5938 764.61 40.125 764.316 40.5142 763.728C40.9063 763.14 41.1023 762.309 41.1023 761.235H41.0341C40.875 761.474 40.6861 761.68 40.4673 761.853C40.2486 762.027 40.0057 762.16 39.7386 762.254C39.4716 762.348 39.1875 762.394 38.8864 762.394C38.3864 762.394 37.9276 762.271 37.5099 762.024C37.0952 761.774 36.7628 761.431 36.5128 760.997C36.2656 760.559 36.142 760.059 36.142 759.497C36.142 758.963 36.2614 758.474 36.5 758.031C36.7415 757.585 37.0795 757.23 37.5142 756.965C37.9517 756.701 38.4659 756.573 39.0568 756.582ZM39.0568 757.519C38.6989 757.519 38.3764 757.609 38.0895 757.788C37.8054 757.964 37.5795 758.203 37.4119 758.504C37.2472 758.802 37.1648 759.133 37.1648 759.497C37.1648 759.86 37.2443 760.191 37.4034 760.49C37.5653 760.785 37.7855 761.021 38.0639 761.197C38.3452 761.37 38.6648 761.457 39.0227 761.457C39.2926 761.457 39.544 761.404 39.777 761.299C40.0099 761.191 40.2131 761.045 40.3864 760.86C40.5625 760.673 40.7003 760.461 40.7997 760.225C40.8991 759.987 40.9489 759.738 40.9489 759.48C40.9489 759.139 40.8665 758.819 40.7017 758.521C40.5398 758.223 40.3153 757.981 40.0284 757.796C39.7443 757.612 39.4205 757.519 39.0568 757.519ZM45.7099 765.582C45.2951 765.582 44.9187 765.504 44.5806 765.348C44.2425 765.189 43.9741 764.96 43.7752 764.662C43.5763 764.36 43.4769 763.997 43.4769 763.571C43.4769 763.196 43.5508 762.892 43.6985 762.659C43.8462 762.423 44.0437 762.238 44.2908 762.105C44.538 761.971 44.8107 761.872 45.109 761.806C45.4102 761.738 45.7127 761.684 46.0167 761.644C46.4144 761.593 46.7369 761.555 46.984 761.529C47.234 761.501 47.4158 761.454 47.5295 761.389C47.646 761.323 47.7042 761.21 47.7042 761.048V761.014C47.7042 760.593 47.5891 760.267 47.359 760.034C47.1317 759.801 46.7866 759.684 46.3235 759.684C45.8434 759.684 45.467 759.789 45.1942 760C44.9215 760.21 44.7298 760.434 44.619 760.673L43.6644 760.332C43.8349 759.934 44.0621 759.625 44.3462 759.403C44.6332 759.179 44.9457 759.022 45.2837 758.934C45.6246 758.843 45.9599 758.798 46.2894 758.798C46.4996 758.798 46.7411 758.823 47.0138 758.875C47.2894 758.923 47.555 759.024 47.8107 759.177C48.0692 759.331 48.2837 759.562 48.4542 759.872C48.6246 760.181 48.7099 760.596 48.7099 761.116V765.429H47.7042V764.542H47.6531C47.5849 764.684 47.4712 764.836 47.3121 764.998C47.1531 765.16 46.9414 765.298 46.6772 765.412C46.413 765.525 46.0906 765.582 45.7099 765.582ZM45.8633 764.679C46.261 764.679 46.5962 764.6 46.869 764.444C47.1445 764.288 47.3519 764.086 47.4911 763.839C47.6332 763.592 47.7042 763.332 47.7042 763.059V762.139C47.6616 762.19 47.5678 762.237 47.4229 762.279C47.2809 762.319 47.1161 762.355 46.9286 762.386C46.744 762.414 46.5636 762.44 46.3874 762.463C46.2141 762.483 46.0735 762.5 45.9656 762.514C45.7042 762.548 45.4599 762.603 45.2326 762.68C45.0082 762.754 44.8263 762.866 44.6871 763.017C44.5508 763.164 44.4826 763.366 44.4826 763.622C44.4826 763.971 44.6119 764.235 44.8704 764.414C45.1317 764.59 45.4627 764.679 45.8633 764.679Z" fill="white"/>
<rect width="85" height="24" transform="translate(0 773)" fill="#AE4242"/>
<rect x="0.5" y="773.5" width="84" height="23" stroke="black"/>
<path d="M35.1017 779.582C35.4597 779.585 35.8176 779.653 36.1756 779.787C36.5336 779.92 36.8603 780.142 37.1557 780.451C37.4512 780.758 37.6884 781.177 37.8674 781.708C38.0463 782.24 38.1358 782.906 38.1358 783.707C38.1358 784.483 38.062 785.171 37.9142 785.774C37.7694 786.373 37.5591 786.879 37.2836 787.291C37.0108 787.703 36.6784 788.015 36.2864 788.228C35.8972 788.441 35.4569 788.548 34.9654 788.548C34.4767 788.548 34.0407 788.451 33.6571 788.258C33.2765 788.062 32.964 787.791 32.7196 787.444C32.4782 787.095 32.3233 786.69 32.2551 786.23H33.2949C33.3887 786.63 33.5748 786.961 33.8532 787.223C34.1344 787.481 34.5051 787.61 34.9654 787.61C35.6387 787.61 36.1699 787.316 36.5591 786.728C36.9512 786.14 37.1472 785.309 37.1472 784.235H37.079C36.9199 784.474 36.731 784.68 36.5123 784.853C36.2935 785.027 36.0506 785.16 35.7836 785.254C35.5165 785.348 35.2324 785.394 34.9313 785.394C34.4313 785.394 33.9725 785.271 33.5549 785.024C33.1401 784.774 32.8077 784.431 32.5577 783.997C32.3105 783.559 32.187 783.059 32.187 782.497C32.187 781.963 32.3063 781.474 32.5449 781.031C32.7864 780.585 33.1245 780.23 33.5591 779.965C33.9966 779.701 34.5108 779.573 35.1017 779.582ZM35.1017 780.519C34.7438 780.519 34.4213 780.609 34.1344 780.788C33.8503 780.964 33.6245 781.203 33.4569 781.504C33.2921 781.802 33.2097 782.133 33.2097 782.497C33.2097 782.86 33.2892 783.191 33.4483 783.49C33.6103 783.785 33.8304 784.021 34.1088 784.197C34.3901 784.37 34.7097 784.457 35.0676 784.457C35.3375 784.457 35.589 784.404 35.8219 784.299C36.0549 784.191 36.258 784.045 36.4313 783.86C36.6074 783.673 36.7452 783.461 36.8446 783.225C36.9441 782.987 36.9938 782.738 36.9938 782.48C36.9938 782.139 36.9114 781.819 36.7466 781.521C36.5847 781.223 36.3603 780.981 36.0733 780.796C35.7892 780.612 35.4654 780.519 35.1017 780.519ZM41.7548 788.582C41.34 788.582 40.9636 788.504 40.6255 788.348C40.2875 788.189 40.019 787.96 39.8201 787.662C39.6213 787.36 39.5218 786.997 39.5218 786.571C39.5218 786.196 39.5957 785.892 39.7434 785.659C39.8912 785.423 40.0886 785.238 40.3358 785.105C40.5829 784.971 40.8556 784.872 41.1539 784.806C41.4551 784.738 41.7576 784.684 42.0616 784.644C42.4593 784.593 42.7818 784.555 43.0289 784.529C43.2789 784.501 43.4608 784.454 43.5744 784.389C43.6909 784.323 43.7491 784.21 43.7491 784.048V784.014C43.7491 783.593 43.6341 783.267 43.4039 783.034C43.1767 782.801 42.8315 782.684 42.3684 782.684C41.8883 782.684 41.5119 782.789 41.2392 783C40.9664 783.21 40.7747 783.434 40.6639 783.673L39.7093 783.332C39.8798 782.934 40.1071 782.625 40.3912 782.403C40.6781 782.179 40.9906 782.022 41.3287 781.934C41.6696 781.843 42.0048 781.798 42.3343 781.798C42.5446 781.798 42.786 781.823 43.0588 781.875C43.3343 781.923 43.6 782.024 43.8556 782.177C44.1142 782.331 44.3287 782.562 44.4991 782.872C44.6696 783.181 44.7548 783.596 44.7548 784.116V788.429H43.7491V787.542H43.698C43.6298 787.684 43.5162 787.836 43.3571 787.998C43.198 788.16 42.9863 788.298 42.7221 788.412C42.4579 788.525 42.1355 788.582 41.7548 788.582ZM41.9082 787.679C42.3059 787.679 42.6412 787.6 42.9139 787.444C43.1895 787.288 43.3968 787.086 43.536 786.839C43.6781 786.592 43.7491 786.332 43.7491 786.059V785.139C43.7065 785.19 43.6127 785.237 43.4679 785.279C43.3258 785.319 43.161 785.355 42.9735 785.386C42.7889 785.414 42.6085 785.44 42.4324 785.463C42.2591 785.483 42.1184 785.5 42.0105 785.514C41.7491 785.548 41.5048 785.603 41.2775 785.68C41.0531 785.754 40.8713 785.866 40.7321 786.017C40.5957 786.164 40.5275 786.366 40.5275 786.622C40.5275 786.971 40.6568 787.235 40.9153 787.414C41.1767 787.59 41.5076 787.679 41.9082 787.679ZM49.1472 787.832V782.207H50.1017V787.832H49.1472ZM46.812 785.497V784.542H52.437V785.497H46.812Z" fill="white"/>
<rect width="85" height="501" transform="translate(0 844)" fill="#AE4242"/>
<rect x="0.5" y="844.5" width="84" height="500" stroke="black"/>
<rect width="85" height="25" transform="translate(0 796)" fill="#801A1A"/>
<rect x="0.5" y="796.5" width="84" height="24" stroke="black"/>
<path d="M38.7111 802.725C39.0691 802.728 39.427 802.796 39.785 802.929C40.1429 803.063 40.4696 803.285 40.7651 803.594C41.0605 803.901 41.2978 804.32 41.4767 804.851C41.6557 805.383 41.7452 806.049 41.7452 806.85C41.7452 807.625 41.6713 808.314 41.5236 808.917C41.3787 809.516 41.1685 810.022 40.8929 810.434C40.6202 810.846 40.2878 811.158 39.8958 811.371C39.5066 811.584 39.0662 811.691 38.5748 811.691C38.0861 811.691 37.65 811.594 37.2665 811.401C36.8858 811.205 36.5733 810.934 36.329 810.587C36.0875 810.238 35.9327 809.833 35.8645 809.373H36.9043C36.998 809.773 37.1841 810.104 37.4625 810.365C37.7438 810.624 38.1145 810.753 38.5748 810.753C39.248 810.753 39.7793 810.459 40.1685 809.871C40.5605 809.283 40.7566 808.452 40.7566 807.378H40.6884C40.5293 807.617 40.3404 807.823 40.1216 807.996C39.9029 808.169 39.66 808.303 39.3929 808.397C39.1259 808.49 38.8418 808.537 38.5407 808.537C38.0407 808.537 37.5819 808.414 37.1642 808.167C36.7495 807.917 36.4171 807.574 36.1671 807.14C35.9199 806.702 35.7963 806.202 35.7963 805.64C35.7963 805.106 35.9157 804.617 36.1543 804.174C36.3958 803.728 36.7338 803.373 37.1685 803.108C37.606 802.844 38.1202 802.716 38.7111 802.725ZM38.7111 803.662C38.3532 803.662 38.0307 803.752 37.7438 803.931C37.4597 804.107 37.2338 804.346 37.0662 804.647C36.9015 804.945 36.8191 805.276 36.8191 805.64C36.8191 806.003 36.8986 806.334 37.0577 806.633C37.2196 806.928 37.4398 807.164 37.7182 807.34C37.9995 807.513 38.3191 807.6 38.677 807.6C38.9469 807.6 39.1983 807.547 39.4313 807.442C39.6642 807.334 39.8674 807.188 40.0407 807.003C40.2168 806.816 40.3546 806.604 40.454 806.368C40.5534 806.13 40.6032 805.881 40.6032 805.623C40.6032 805.282 40.5208 804.962 40.356 804.664C40.1941 804.365 39.9696 804.124 39.6827 803.939C39.3986 803.755 39.0748 803.662 38.7111 803.662ZM43.5744 811.571V802.844H44.5801V806.066H44.6653C44.7392 805.952 44.8414 805.807 44.9721 805.631C45.1056 805.452 45.296 805.293 45.5431 805.154C45.7931 805.012 46.1312 804.941 46.5574 804.941C47.1085 804.941 47.5943 805.079 48.0147 805.354C48.4352 805.63 48.7633 806.02 48.9991 806.526C49.2349 807.032 49.3528 807.628 49.3528 808.316C49.3528 809.009 49.2349 809.61 48.9991 810.118C48.7633 810.624 48.4366 811.016 48.019 811.294C47.6014 811.57 47.1199 811.708 46.5744 811.708C46.1539 811.708 45.8173 811.638 45.5645 811.499C45.3116 811.357 45.117 811.196 44.9806 811.017C44.8443 810.836 44.7392 810.685 44.6653 810.566H44.546V811.571H43.5744ZM44.563 808.299C44.563 808.793 44.6355 809.229 44.7804 809.607C44.9252 809.982 45.1369 810.276 45.4153 810.489C45.6937 810.699 46.0346 810.804 46.438 810.804C46.8585 810.804 47.2093 810.694 47.4906 810.472C47.7747 810.248 47.9877 809.946 48.1298 809.569C48.2747 809.188 48.3471 808.765 48.3471 808.299C48.3471 807.838 48.2761 807.424 48.1341 807.054C47.9949 806.682 47.7832 806.388 47.4991 806.172C47.2179 805.954 46.8642 805.844 46.438 805.844C46.0289 805.844 45.6852 805.948 45.4068 806.155C45.1284 806.36 44.9181 806.647 44.7761 807.016C44.6341 807.383 44.563 807.81 44.563 808.299Z" fill="white"/>
<rect width="85" height="25" transform="translate(0 820)" fill="#801A1A"/>
<rect x="0.5" y="820.5" width="84" height="24" stroke="black"/>
<path d="M34.756 826.725C35.114 826.728 35.4719 826.796 35.8299 826.929C36.1879 827.063 36.5146 827.285 36.81 827.594C37.1055 827.901 37.3427 828.32 37.5217 828.851C37.7006 829.383 37.7901 830.049 37.7901 830.85C37.7901 831.625 37.7163 832.314 37.5685 832.917C37.4237 833.516 37.2134 834.022 36.9379 834.434C36.6651 834.846 36.3327 835.158 35.9407 835.371C35.5515 835.584 35.1112 835.691 34.6197 835.691C34.131 835.691 33.695 835.594 33.3114 835.401C32.9308 835.205 32.6183 834.934 32.3739 834.587C32.1325 834.238 31.9776 833.833 31.9094 833.373H32.9492C33.043 833.773 33.229 834.104 33.5075 834.365C33.7887 834.624 34.1594 834.753 34.6197 834.753C35.293 834.753 35.8242 834.459 36.2134 833.871C36.6055 833.283 36.8015 832.452 36.8015 831.378H36.7333C36.5742 831.617 36.3853 831.823 36.1665 831.996C35.9478 832.169 35.7049 832.303 35.4379 832.397C35.1708 832.49 34.8867 832.537 34.5856 832.537C34.0856 832.537 33.6268 832.414 33.2092 832.167C32.7944 831.917 32.462 831.574 32.212 831.14C31.9648 830.702 31.8413 830.202 31.8413 829.64C31.8413 829.106 31.9606 828.617 32.1992 828.174C32.4407 827.728 32.7788 827.373 33.2134 827.108C33.6509 826.844 34.1651 826.716 34.756 826.725ZM34.756 827.662C34.3981 827.662 34.0756 827.752 33.7887 827.931C33.5046 828.107 33.2788 828.346 33.1112 828.647C32.9464 828.945 32.864 829.276 32.864 829.64C32.864 830.003 32.9435 830.334 33.1026 830.633C33.2646 830.928 33.4847 831.164 33.7631 831.34C34.0444 831.513 34.364 831.6 34.7219 831.6C34.9918 831.6 35.2433 831.547 35.4762 831.442C35.7092 831.334 35.9123 831.188 36.0856 831.003C36.2617 830.816 36.3995 830.604 36.4989 830.368C36.5984 830.13 36.6481 829.881 36.6481 829.623C36.6481 829.282 36.5657 828.962 36.4009 828.664C36.239 828.365 36.0146 828.124 35.7276 827.939C35.4435 827.755 35.1197 827.662 34.756 827.662ZM39.6193 835.571V826.844H40.625V830.066H40.7102C40.7841 829.952 40.8864 829.807 41.017 829.631C41.1506 829.452 41.3409 829.293 41.5881 829.154C41.8381 829.012 42.1761 828.941 42.6023 828.941C43.1534 828.941 43.6392 829.079 44.0597 829.354C44.4801 829.63 44.8082 830.02 45.044 830.526C45.2798 831.032 45.3977 831.628 45.3977 832.316C45.3977 833.009 45.2798 833.61 45.044 834.118C44.8082 834.624 44.4815 835.016 44.0639 835.294C43.6463 835.57 43.1648 835.708 42.6193 835.708C42.1989 835.708 41.8622 835.638 41.6094 835.499C41.3565 835.357 41.1619 835.196 41.0256 835.017C40.8892 834.836 40.7841 834.685 40.7102 834.566H40.5909V835.571H39.6193ZM40.608 832.299C40.608 832.793 40.6804 833.229 40.8253 833.607C40.9702 833.982 41.1818 834.276 41.4602 834.489C41.7386 834.699 42.0795 834.804 42.483 834.804C42.9034 834.804 43.2543 834.694 43.5355 834.472C43.8196 834.248 44.0327 833.946 44.1747 833.569C44.3196 833.188 44.392 832.765 44.392 832.299C44.392 831.838 44.321 831.424 44.179 831.054C44.0398 830.682 43.8281 830.388 43.544 830.172C43.2628 829.954 42.9091 829.844 42.483 829.844C42.0739 829.844 41.7301 829.948 41.4517 830.155C41.1733 830.36 40.9631 830.647 40.821 831.016C40.679 831.383 40.608 831.81 40.608 832.299ZM49.4929 834.975V829.35H50.4474V834.975H49.4929ZM47.1577 832.64V831.685H52.7827V832.64H47.1577Z" fill="white"/>
</svg>
