<svg width="85" height="21" viewBox="0 0 85 21" fill="none" xmlns="http://www.w3.org/2000/svg">
<rect width="85" height="21" fill="#801A1A"/>
<rect x="0.5" y="0.5" width="84" height="20" stroke="black"/>
<path d="M24.0392 15V6.27273H29.2722V7.21023H25.0961V10.1591H28.8801V11.0966H25.0961V15H24.0392ZM30.8755 15V8.45455H31.8471V9.44318H31.9153C32.0346 9.11932 32.2505 8.85653 32.563 8.65483C32.8755 8.45312 33.2278 8.35227 33.6199 8.35227C33.6937 8.35227 33.786 8.35369 33.8968 8.35653C34.0076 8.35937 34.0914 8.36364 34.1483 8.36932V9.39205C34.1142 9.38352 34.036 9.37074 33.9139 9.35369C33.7946 9.33381 33.6681 9.32386 33.5346 9.32386C33.2164 9.32386 32.9324 9.39062 32.6824 9.52415C32.4352 9.65483 32.2392 9.83665 32.0943 10.0696C31.9522 10.2997 31.8812 10.5625 31.8812 10.858V15H30.8755ZM37.8855 15.1364C37.2548 15.1364 36.7108 14.9972 36.2534 14.7188C35.7988 14.4375 35.448 14.0455 35.2008 13.5426C34.9565 13.0369 34.8343 12.4489 34.8343 11.7784C34.8343 11.108 34.9565 10.517 35.2008 10.0057C35.448 9.49148 35.7917 9.09091 36.2321 8.80398C36.6752 8.5142 37.1923 8.36932 37.7832 8.36932C38.1241 8.36932 38.4608 8.42614 38.7931 8.53977C39.1255 8.65341 39.4281 8.83807 39.7008 9.09375C39.9735 9.34659 40.1909 9.68182 40.3528 10.0994C40.5147 10.517 40.5957 11.0312 40.5957 11.642V12.0682H35.5502V11.1989H39.573C39.573 10.8295 39.4991 10.5 39.3514 10.2102C39.2065 9.92045 38.9991 9.69176 38.7292 9.52415C38.4622 9.35653 38.1468 9.27273 37.7832 9.27273C37.3826 9.27273 37.036 9.37216 36.7434 9.57102C36.4537 9.76705 36.2306 10.0227 36.0744 10.3381C35.9181 10.6534 35.84 10.9915 35.84 11.3523V11.9318C35.84 12.4261 35.9252 12.8452 36.0957 13.1889C36.269 13.5298 36.5091 13.7898 36.8159 13.9688C37.1227 14.1449 37.4792 14.233 37.8855 14.233C38.1497 14.233 38.3883 14.196 38.6014 14.1222C38.8173 14.0455 39.0034 13.9318 39.1596 13.7812C39.3159 13.6278 39.4366 13.4375 39.5218 13.2102L40.4934 13.483C40.3912 13.8125 40.2193 14.1023 39.9778 14.3523C39.7363 14.5994 39.438 14.7926 39.0829 14.9318C38.7278 15.0682 38.3287 15.1364 37.8855 15.1364ZM43.1312 11.0625V15H42.1255V8.45455H43.0971V9.47727H43.1824C43.3358 9.14489 43.5687 8.87784 43.8812 8.67614C44.1937 8.47159 44.5971 8.36932 45.0914 8.36932C45.5346 8.36932 45.9224 8.46023 46.2548 8.64205C46.5872 8.82102 46.8457 9.09375 47.0304 9.46023C47.215 9.82386 47.3074 10.2841 47.3074 10.8409V15H46.3017V10.9091C46.3017 10.3949 46.1681 9.99432 45.9011 9.70739C45.6341 9.41761 45.2676 9.27273 44.8017 9.27273C44.4806 9.27273 44.1937 9.34233 43.9409 9.48153C43.6909 9.62074 43.4934 9.82386 43.3485 10.0909C43.2037 10.358 43.1312 10.6818 43.1312 11.0625ZM51.8042 15.1364C51.1905 15.1364 50.6621 14.9915 50.2189 14.7017C49.7757 14.4119 49.4348 14.0128 49.1962 13.5043C48.9576 12.9957 48.8382 12.4148 48.8382 11.7614C48.8382 11.0966 48.9604 10.5099 49.2047 10.0014C49.4519 9.49006 49.7956 9.09091 50.236 8.80398C50.6792 8.5142 51.1962 8.36932 51.7871 8.36932C52.2473 8.36932 52.6621 8.45455 53.0314 8.625C53.4007 8.79545 53.7033 9.03409 53.9391 9.34091C54.1749 9.64773 54.3212 10.0057 54.378 10.4148H53.3723C53.2956 10.1165 53.1252 9.85227 52.861 9.62216C52.5996 9.3892 52.2473 9.27273 51.8042 9.27273C51.4121 9.27273 51.0684 9.375 50.7729 9.57955C50.4803 9.78125 50.2516 10.0668 50.0868 10.4361C49.9249 10.8026 49.8439 11.233 49.8439 11.7273C49.8439 12.233 49.9235 12.6733 50.0826 13.0483C50.2445 13.4233 50.4718 13.7145 50.7644 13.9219C51.0598 14.1293 51.4064 14.233 51.8042 14.233C52.0655 14.233 52.3027 14.1875 52.5158 14.0966C52.7289 14.0057 52.9093 13.875 53.057 13.7045C53.2047 13.5341 53.3098 13.3295 53.3723 13.0909H54.378C54.3212 13.4773 54.1806 13.8253 53.9561 14.1349C53.7346 14.4418 53.4405 14.6861 53.074 14.8679C52.7104 15.0469 52.2871 15.1364 51.8042 15.1364ZM56.8539 11.0625V15H55.8482V6.27273H56.8539V9.47727H56.9391C57.0925 9.1392 57.3226 8.87074 57.6294 8.67188C57.9391 8.47017 58.351 8.36932 58.8652 8.36932C59.3113 8.36932 59.7019 8.45881 60.0371 8.63778C60.3723 8.81392 60.6323 9.08523 60.8169 9.4517C61.0044 9.81534 61.0982 10.2784 61.0982 10.8409V15H60.0925V10.9091C60.0925 10.3892 59.9576 9.98722 59.6877 9.70312C59.4206 9.41619 59.0499 9.27273 58.5755 9.27273C58.2459 9.27273 57.9505 9.34233 57.6891 9.48153C57.4306 9.62074 57.226 9.82386 57.0755 10.0909C56.9277 10.358 56.8539 10.6818 56.8539 11.0625Z" fill="white"/>
</svg>
