<svg width="85" height="1345" viewBox="0 0 85 1345" fill="none" xmlns="http://www.w3.org/2000/svg">
<rect width="85" height="232" fill="#AA0052"/>
<rect x="0.5" y="0.5" width="84" height="231" stroke="black"/>
<rect width="85" height="26" transform="translate(0 231)" fill="#5061FF"/>
<rect x="0.5" y="231.5" width="84" height="25" stroke="black"/>
<path d="M39.7205 248.834C39.2205 248.834 38.7702 248.734 38.3697 248.535C37.9691 248.336 37.6481 248.064 37.4066 247.717C37.1651 247.371 37.033 246.976 37.0103 246.532H38.033C38.0728 246.927 38.2518 247.254 38.57 247.513C38.891 247.768 39.2745 247.896 39.7205 247.896C40.0785 247.896 40.3967 247.812 40.6751 247.645C40.9563 247.477 41.1765 247.247 41.3356 246.954C41.4975 246.659 41.5785 246.325 41.5785 245.953C41.5785 245.572 41.4947 245.233 41.3271 244.934C41.1623 244.633 40.935 244.396 40.6452 244.223C40.3555 244.05 40.0245 243.961 39.6523 243.959C39.3853 243.956 39.1112 243.997 38.8299 244.082C38.5487 244.165 38.3171 244.271 38.1353 244.402L37.1467 244.282L37.6751 239.987H42.2092V240.925H38.5614L38.2546 243.498H38.3058C38.4847 243.356 38.7092 243.238 38.979 243.145C39.2489 243.051 39.5302 243.004 39.8228 243.004C40.3569 243.004 40.8327 243.132 41.2504 243.388C41.6708 243.64 42.0004 243.987 42.239 244.427C42.4805 244.868 42.6012 245.371 42.6012 245.936C42.6012 246.493 42.4762 246.99 42.2262 247.427C41.979 247.862 41.6381 248.206 41.2035 248.459C40.7688 248.709 40.2745 248.834 39.7205 248.834ZM48.0611 243.882V244.819H44.2429V243.882H48.0611Z" fill="white"/>
<rect width="85" height="26" transform="translate(0 256)" fill="#5061FF"/>
<rect x="0.5" y="256.5" width="84" height="25" stroke="black"/>
<path d="M42.4803 273.834C41.9803 273.834 41.53 273.734 41.1294 273.535C40.7289 273.336 40.4078 273.064 40.1664 272.717C39.9249 272.371 39.7928 271.976 39.7701 271.532H40.7928C40.8326 271.927 41.0115 272.254 41.3297 272.513C41.6507 272.768 42.0343 272.896 42.4803 272.896C42.8382 272.896 43.1564 272.812 43.4348 272.645C43.7161 272.477 43.9363 272.247 44.0953 271.954C44.2573 271.659 44.3382 271.325 44.3382 270.953C44.3382 270.572 44.2544 270.233 44.0868 269.934C43.9221 269.633 43.6948 269.396 43.405 269.223C43.1152 269.05 42.7843 268.961 42.4121 268.959C42.1451 268.956 41.8709 268.997 41.5897 269.082C41.3084 269.165 41.0769 269.271 40.8951 269.402L39.9064 269.282L40.4348 264.987H44.9689V265.925H41.3212L41.0144 268.498H41.0655C41.2445 268.356 41.4689 268.238 41.7388 268.145C42.0087 268.051 42.29 268.004 42.5826 268.004C43.1167 268.004 43.5925 268.132 44.0101 268.388C44.4306 268.64 44.7601 268.987 44.9988 269.427C45.2402 269.868 45.361 270.371 45.361 270.936C45.361 271.493 45.236 271.99 44.986 272.427C44.7388 272.862 44.3979 273.206 43.9632 273.459C43.5286 273.709 43.0343 273.834 42.4803 273.834Z" fill="white"/>
<rect width="85" height="26" transform="translate(0 280)" fill="#5061FF"/>
<rect x="0.5" y="280.5" width="84" height="25" stroke="black"/>
<path d="M38.5252 297.834C38.0252 297.834 37.5749 297.734 37.1744 297.535C36.7738 297.336 36.4528 297.064 36.2113 296.717C35.9698 296.371 35.8377 295.976 35.815 295.532H36.8377C36.8775 295.927 37.0565 296.254 37.3746 296.513C37.6957 296.768 38.0792 296.896 38.5252 296.896C38.8832 296.896 39.2013 296.812 39.4798 296.645C39.761 296.477 39.9812 296.247 40.1403 295.954C40.3022 295.659 40.3832 295.325 40.3832 294.953C40.3832 294.572 40.2994 294.233 40.1317 293.934C39.967 293.633 39.7397 293.396 39.4499 293.223C39.1602 293.05 38.8292 292.961 38.457 292.959C38.19 292.956 37.9158 292.997 37.6346 293.082C37.3533 293.165 37.1218 293.271 36.94 293.402L35.9513 293.282L36.4798 288.987H41.0138V289.925H37.3661L37.0593 292.498H37.1104C37.2894 292.356 37.5138 292.238 37.7837 292.145C38.0536 292.051 38.3349 292.004 38.6275 292.004C39.1616 292.004 39.6374 292.132 40.055 292.388C40.4755 292.64 40.805 292.987 41.0437 293.427C41.2852 293.868 41.4059 294.371 41.4059 294.936C41.4059 295.493 41.2809 295.99 41.0309 296.427C40.7837 296.862 40.4428 297.206 40.0082 297.459C39.5735 297.709 39.0792 297.834 38.5252 297.834ZM45.6726 296.18V290.555H46.6271V296.18H45.6726ZM43.3374 293.845V292.89H48.9624V293.845H43.3374Z" fill="white"/>
<rect width="85" height="28" transform="translate(0 305)" fill="#AA0052"/>
<rect x="0.5" y="305.5" width="84" height="27" stroke="black"/>
<path d="M39.7972 324.119C39.4393 324.114 39.0813 324.045 38.7234 323.915C38.3654 323.784 38.0387 323.564 37.7433 323.254C37.4478 322.942 37.2106 322.52 37.0316 321.989C36.8526 321.455 36.7631 320.784 36.7631 319.977C36.7631 319.205 36.8356 318.52 36.9805 317.923C37.1254 317.324 37.3356 316.82 37.6112 316.411C37.8867 315.999 38.2191 315.686 38.6083 315.473C39.0004 315.26 39.4421 315.153 39.9336 315.153C40.4222 315.153 40.8569 315.251 41.2376 315.447C41.6211 315.641 41.9336 315.911 42.1751 316.257C42.4165 316.604 42.5728 317.003 42.6438 317.455H41.604C41.5075 317.062 41.32 316.737 41.0415 316.479C40.7631 316.22 40.3938 316.091 39.9336 316.091C39.2575 316.091 38.7248 316.385 38.3356 316.973C37.9492 317.561 37.7546 318.386 37.7518 319.449H37.82C37.979 319.207 38.168 319.001 38.3867 318.831C38.6083 318.658 38.8526 318.524 39.1197 318.43C39.3867 318.337 39.6694 318.29 39.9677 318.29C40.4677 318.29 40.9251 318.415 41.3398 318.665C41.7546 318.912 42.087 319.254 42.337 319.692C42.587 320.126 42.712 320.625 42.712 321.188C42.712 321.727 42.5913 322.222 42.3498 322.67C42.1083 323.116 41.7688 323.472 41.3313 323.736C40.8967 323.997 40.3853 324.125 39.7972 324.119ZM39.7972 323.182C40.1552 323.182 40.4762 323.092 40.7603 322.913C41.0472 322.734 41.2731 322.494 41.4379 322.193C41.6055 321.892 41.6893 321.557 41.6893 321.188C41.6893 320.827 41.6083 320.499 41.4464 320.203C41.2873 319.905 41.0671 319.668 40.7859 319.491C40.5075 319.315 40.1893 319.227 39.8313 319.227C39.5614 319.227 39.31 319.281 39.0771 319.389C38.8441 319.494 38.6396 319.639 38.4634 319.824C38.2901 320.009 38.1538 320.22 38.0543 320.459C37.9549 320.695 37.9052 320.943 37.9052 321.205C37.9052 321.551 37.9862 321.875 38.1481 322.176C38.3129 322.477 38.5373 322.72 38.8214 322.905C39.1083 323.089 39.4336 323.182 39.7972 323.182ZM48.1548 319.168V320.105H44.3366V319.168H48.1548Z" fill="white"/>
<rect width="85" height="34" transform="translate(0 332)" fill="#AA0052"/>
<rect x="0.5" y="332.5" width="84" height="33" stroke="black"/>
<path d="M42.557 353.976C42.199 353.971 41.8411 353.903 41.4831 353.772C41.1252 353.641 40.7985 353.421 40.503 353.111C40.2076 352.799 39.9703 352.377 39.7914 351.846C39.6124 351.312 39.5229 350.641 39.5229 349.834C39.5229 349.062 39.5953 348.377 39.7402 347.78C39.8851 347.181 40.0953 346.677 40.3709 346.268C40.6465 345.856 40.9789 345.543 41.3681 345.33C41.7601 345.117 42.2019 345.011 42.6934 345.011C43.182 345.011 43.6167 345.109 43.9973 345.305C44.3809 345.498 44.6934 345.768 44.9348 346.114C45.1763 346.461 45.3326 346.86 45.4036 347.312H44.3638C44.2672 346.92 44.0797 346.594 43.8013 346.336C43.5229 346.077 43.1536 345.948 42.6934 345.948C42.0172 345.948 41.4846 346.242 41.0953 346.83C40.709 347.418 40.5144 348.244 40.5115 349.306H40.5797C40.7388 349.065 40.9277 348.859 41.1465 348.688C41.3681 348.515 41.6124 348.381 41.8794 348.288C42.1465 348.194 42.4292 348.147 42.7275 348.147C43.2275 348.147 43.6848 348.272 44.0996 348.522C44.5144 348.769 44.8468 349.111 45.0968 349.549C45.3468 349.984 45.4718 350.482 45.4718 351.045C45.4718 351.584 45.351 352.079 45.1096 352.528C44.8681 352.974 44.5286 353.329 44.0911 353.593C43.6564 353.854 43.1451 353.982 42.557 353.976ZM42.557 353.039C42.915 353.039 43.236 352.949 43.5201 352.77C43.807 352.592 44.0328 352.351 44.1976 352.05C44.3652 351.749 44.449 351.414 44.449 351.045C44.449 350.684 44.3681 350.356 44.2061 350.06C44.0471 349.762 43.8269 349.525 43.5456 349.349C43.2672 349.172 42.949 349.084 42.5911 349.084C42.3212 349.084 42.0698 349.138 41.8368 349.246C41.6039 349.351 41.3993 349.496 41.2232 349.681C41.0499 349.866 40.9135 350.077 40.8141 350.316C40.7147 350.552 40.665 350.8 40.665 351.062C40.665 351.408 40.7459 351.732 40.9078 352.033C41.0726 352.334 41.2971 352.577 41.5811 352.762C41.8681 352.947 42.1934 353.039 42.557 353.039Z" fill="white"/>
<rect width="85" height="42" transform="translate(0 365)" fill="#AA0052"/>
<rect x="0.5" y="365.5" width="84" height="41" stroke="black"/>
<path d="M38.6019 391.119C38.244 391.114 37.886 391.045 37.5281 390.915C37.1701 390.784 36.8434 390.564 36.5479 390.254C36.2525 389.942 36.0153 389.52 35.8363 388.989C35.6573 388.455 35.5678 387.784 35.5678 386.977C35.5678 386.205 35.6403 385.52 35.7852 384.923C35.93 384.324 36.1403 383.82 36.4158 383.411C36.6914 382.999 37.0238 382.686 37.413 382.473C37.805 382.26 38.2468 382.153 38.7383 382.153C39.2269 382.153 39.6616 382.251 40.0423 382.447C40.4258 382.641 40.7383 382.911 40.9798 383.257C41.2212 383.604 41.3775 384.003 41.4485 384.455H40.4087C40.3121 384.062 40.1246 383.737 39.8462 383.479C39.5678 383.22 39.1985 383.091 38.7383 383.091C38.0621 383.091 37.5295 383.385 37.1403 383.973C36.7539 384.561 36.5593 385.386 36.5565 386.449H36.6246C36.7837 386.207 36.9727 386.001 37.1914 385.831C37.413 385.658 37.6573 385.524 37.9244 385.43C38.1914 385.337 38.4741 385.29 38.7724 385.29C39.2724 385.29 39.7298 385.415 40.1445 385.665C40.5593 385.912 40.8917 386.254 41.1417 386.692C41.3917 387.126 41.5167 387.625 41.5167 388.188C41.5167 388.727 41.396 389.222 41.1545 389.67C40.913 390.116 40.5735 390.472 40.136 390.736C39.7013 390.997 39.19 391.125 38.6019 391.119ZM38.6019 390.182C38.9599 390.182 39.2809 390.092 39.565 389.913C39.8519 389.734 40.0778 389.494 40.2425 389.193C40.4102 388.892 40.494 388.557 40.494 388.188C40.494 387.827 40.413 387.499 40.2511 387.203C40.092 386.905 39.8718 386.668 39.5906 386.491C39.3121 386.315 38.994 386.227 38.636 386.227C38.3661 386.227 38.1147 386.281 37.8817 386.389C37.6488 386.494 37.4442 386.639 37.2681 386.824C37.0948 387.009 36.9585 387.22 36.859 387.459C36.7596 387.695 36.7099 387.943 36.7099 388.205C36.7099 388.551 36.7908 388.875 36.9528 389.176C37.1175 389.477 37.342 389.72 37.6261 389.905C37.913 390.089 38.2383 390.182 38.6019 390.182ZM45.7663 389.466V383.841H46.7209V389.466H45.7663ZM43.4311 387.131V386.176H49.0561V387.131H43.4311Z" fill="white"/>
<rect width="85" height="38" transform="translate(0 406)" fill="#5061FF"/>
<rect x="0.5" y="406.5" width="84" height="37" stroke="black"/>
<path d="M37.4886 429.429L41.392 421.707V421.639H36.892V420.701H42.483V421.69L38.5966 429.429H37.4886ZM47.8384 424.596V425.534H44.0202V424.596H47.8384Z" fill="white"/>
<rect width="85" height="37" transform="translate(0 443)" fill="#5061FF"/>
<rect x="0.5" y="443.5" width="84" height="36" stroke="black"/>
<path d="M40.2484 466.286L44.1518 458.564V458.496H39.6518V457.558H45.2427V458.547L41.3564 466.286H40.2484Z" fill="white"/>
<rect width="85" height="39" transform="translate(0 479)" fill="#5061FF"/>
<rect x="0.5" y="479.5" width="84" height="38" stroke="black"/>
<path d="M36.2933 502.571L40.1967 494.85V494.782H35.6967V493.844H41.2876V494.833L37.4013 502.571H36.2933ZM45.4499 501.037V495.412H46.4045V501.037H45.4499ZM43.1147 498.702V497.748H48.7397V498.702H43.1147Z" fill="white"/>
<rect width="85" height="39" transform="translate(0 517)" fill="#AA0052"/>
<rect x="0.5" y="517.5" width="84" height="38" stroke="black"/>
<path d="M39.7418 540.691C39.1566 540.691 38.6396 540.587 38.1907 540.38C37.7447 540.169 37.3967 539.881 37.1467 539.515C36.8967 539.145 36.7731 538.725 36.7759 538.253C36.7731 537.884 36.8455 537.543 36.9933 537.231C37.141 536.915 37.3427 536.652 37.5984 536.442C37.8569 536.229 38.1452 536.094 38.4634 536.037V535.986C38.0458 535.878 37.7134 535.644 37.4663 535.283C37.2191 534.919 37.0969 534.506 37.0998 534.043C37.0969 533.6 37.2092 533.204 37.4364 532.854C37.6637 532.505 37.9762 532.229 38.3739 532.027C38.7745 531.826 39.2305 531.725 39.7418 531.725C40.2475 531.725 40.6992 531.826 41.0969 532.027C41.4947 532.229 41.8072 532.505 42.0344 532.854C42.2646 533.204 42.381 533.6 42.3839 534.043C42.381 534.506 42.2546 534.919 42.0046 535.283C41.7575 535.644 41.4293 535.878 41.0202 535.986V536.037C41.3356 536.094 41.6197 536.229 41.8725 536.442C42.1254 536.652 42.3271 536.915 42.4776 537.231C42.6282 537.543 42.7049 537.884 42.7077 538.253C42.7049 538.725 42.5771 539.145 42.3242 539.515C42.0742 539.881 41.7262 540.169 41.2802 540.38C40.837 540.587 40.3242 540.691 39.7418 540.691ZM39.7418 539.753C40.1367 539.753 40.4776 539.689 40.7646 539.561C41.0515 539.434 41.2731 539.253 41.4293 539.02C41.5856 538.787 41.6651 538.515 41.668 538.202C41.6651 537.873 41.5799 537.581 41.4123 537.329C41.2447 537.076 41.016 536.877 40.7262 536.732C40.4393 536.587 40.1112 536.515 39.7418 536.515C39.3697 536.515 39.0373 536.587 38.7447 536.732C38.4549 536.877 38.2262 537.076 38.0586 537.329C37.8938 537.581 37.8129 537.873 37.8157 538.202C37.8129 538.515 37.8881 538.787 38.0415 539.02C38.1978 539.253 38.4208 539.434 38.7106 539.561C39.0004 539.689 39.3441 539.753 39.7418 539.753ZM39.7418 535.611C40.0543 535.611 40.3313 535.549 40.5728 535.424C40.8171 535.299 41.0089 535.124 41.1481 534.9C41.2873 534.675 41.3583 534.412 41.3612 534.111C41.3583 533.816 41.2887 533.559 41.1523 533.34C41.016 533.118 40.8271 532.948 40.5856 532.829C40.3441 532.706 40.0629 532.645 39.7418 532.645C39.4151 532.645 39.1296 532.706 38.8853 532.829C38.641 532.948 38.4521 533.118 38.3185 533.34C38.185 533.559 38.1197 533.816 38.1225 534.111C38.1197 534.412 38.1864 534.675 38.3228 534.9C38.462 535.124 38.6538 535.299 38.8981 535.424C39.1424 535.549 39.4237 535.611 39.7418 535.611ZM48.108 535.739V536.677H44.2898V535.739H48.108Z" fill="white"/>
<rect width="85" height="40" transform="translate(0 555)" fill="#AA0052"/>
<rect x="0.5" y="555.5" width="84" height="39" stroke="black"/>
<path d="M42.5016 579.834C41.9164 579.834 41.3993 579.73 40.9505 579.523C40.5044 579.312 40.1564 579.024 39.9064 578.657C39.6564 578.288 39.5328 577.868 39.5357 577.396C39.5328 577.027 39.6053 576.686 39.753 576.373C39.9007 576.058 40.1025 575.795 40.3581 575.585C40.6167 575.372 40.905 575.237 41.2232 575.18V575.129C40.8056 575.021 40.4732 574.787 40.226 574.426C39.9789 574.062 39.8567 573.649 39.8596 573.186C39.8567 572.743 39.9689 572.346 40.1962 571.997C40.4235 571.648 40.736 571.372 41.1337 571.17C41.5343 570.969 41.9902 570.868 42.5016 570.868C43.0073 570.868 43.459 570.969 43.8567 571.17C44.2544 571.372 44.5669 571.648 44.7942 571.997C45.0243 572.346 45.1408 572.743 45.1436 573.186C45.1408 573.649 45.0144 574.062 44.7644 574.426C44.5172 574.787 44.1891 575.021 43.78 575.129V575.18C44.0953 575.237 44.3794 575.372 44.6323 575.585C44.8851 575.795 45.0868 576.058 45.2374 576.373C45.388 576.686 45.4647 577.027 45.4675 577.396C45.4647 577.868 45.3368 578.288 45.084 578.657C44.834 579.024 44.486 579.312 44.04 579.523C43.5968 579.73 43.084 579.834 42.5016 579.834ZM42.5016 578.896C42.8965 578.896 43.2374 578.832 43.5243 578.704C43.8113 578.576 44.0328 578.396 44.1891 578.163C44.3453 577.93 44.4249 577.657 44.4277 577.345C44.4249 577.015 44.3397 576.724 44.1721 576.471C44.0044 576.219 43.7757 576.02 43.486 575.875C43.199 575.73 42.8709 575.657 42.5016 575.657C42.1294 575.657 41.7971 575.73 41.5044 575.875C41.2147 576.02 40.986 576.219 40.8184 576.471C40.6536 576.724 40.5726 577.015 40.5755 577.345C40.5726 577.657 40.6479 577.93 40.8013 578.163C40.9576 578.396 41.1806 578.576 41.4703 578.704C41.7601 578.832 42.1039 578.896 42.5016 578.896ZM42.5016 574.754C42.8141 574.754 43.0911 574.692 43.3326 574.567C43.5769 574.442 43.7686 574.267 43.9078 574.042C44.0471 573.818 44.1181 573.555 44.1209 573.254C44.1181 572.959 44.0485 572.701 43.9121 572.483C43.7757 572.261 43.5868 572.091 43.3453 571.971C43.1039 571.849 42.8226 571.788 42.5016 571.788C42.1749 571.788 41.8894 571.849 41.6451 571.971C41.4007 572.091 41.2118 572.261 41.0783 572.483C40.9448 572.701 40.8794 572.959 40.8823 573.254C40.8794 573.555 40.9462 573.818 41.0826 574.042C41.2218 574.267 41.4135 574.442 41.6578 574.567C41.9022 574.692 42.1834 574.754 42.5016 574.754Z" fill="white"/>
<rect width="85" height="38" transform="translate(0 633)" fill="#5061FF"/>
<rect x="0.5" y="633.5" width="84" height="37" stroke="black"/>
<path d="M39.6779 647.582C40.0359 647.585 40.3938 647.653 40.7518 647.787C41.1097 647.92 41.4364 648.142 41.7319 648.451C42.0273 648.758 42.2646 649.177 42.4435 649.708C42.6225 650.24 42.712 650.906 42.712 651.707C42.712 652.483 42.6381 653.171 42.4904 653.774C42.3455 654.373 42.1353 654.879 41.8597 655.291C41.587 655.703 41.2546 656.015 40.8626 656.228C40.4734 656.441 40.033 656.548 39.5415 656.548C39.0529 656.548 38.6168 656.451 38.2333 656.258C37.8526 656.062 37.5401 655.791 37.2958 655.444C37.0543 655.095 36.8995 654.69 36.8313 654.23H37.8711C37.9648 654.63 38.1509 654.961 38.4293 655.223C38.7106 655.481 39.0813 655.61 39.5415 655.61C40.2148 655.61 40.7461 655.316 41.1353 654.728C41.5273 654.14 41.7234 653.309 41.7234 652.235H41.6552C41.4961 652.474 41.3072 652.68 41.0884 652.853C40.8697 653.027 40.6268 653.16 40.3597 653.254C40.0927 653.348 39.8086 653.394 39.5075 653.394C39.0075 653.394 38.5487 653.271 38.131 653.024C37.7163 652.774 37.3839 652.431 37.1339 651.997C36.8867 651.559 36.7631 651.059 36.7631 650.497C36.7631 649.963 36.8825 649.474 37.1211 649.031C37.3626 648.585 37.7006 648.23 38.1353 647.965C38.5728 647.701 39.087 647.573 39.6779 647.582ZM39.6779 648.519C39.32 648.519 38.9975 648.609 38.7106 648.788C38.4265 648.964 38.2006 649.203 38.033 649.504C37.8683 649.802 37.7859 650.133 37.7859 650.497C37.7859 650.86 37.8654 651.191 38.0245 651.49C38.1864 651.785 38.4066 652.021 38.685 652.197C38.9663 652.37 39.2859 652.457 39.6438 652.457C39.9137 652.457 40.1651 652.404 40.3981 652.299C40.631 652.191 40.8342 652.045 41.0075 651.86C41.1836 651.673 41.3214 651.461 41.4208 651.225C41.5202 650.987 41.57 650.738 41.57 650.48C41.57 650.139 41.4876 649.819 41.3228 649.521C41.1609 649.223 40.9364 648.981 40.6495 648.796C40.3654 648.612 40.0415 648.519 39.6779 648.519ZM48.1548 651.596V652.534H44.3366V651.596H48.1548Z" fill="white"/>
<rect width="85" height="40" transform="translate(0 594)" fill="#AA0052"/>
<rect x="0.5" y="594.5" width="84" height="39" stroke="black"/>
<path d="M38.5465 618.834C37.9613 618.834 37.4442 618.73 36.9954 618.523C36.5494 618.312 36.2013 618.024 35.9513 617.657C35.7013 617.288 35.5778 616.868 35.5806 616.396C35.5778 616.027 35.6502 615.686 35.7979 615.373C35.9457 615.058 36.1474 614.795 36.4031 614.585C36.6616 614.372 36.9499 614.237 37.2681 614.18V614.129C36.8505 614.021 36.5181 613.787 36.271 613.426C36.0238 613.062 35.9016 612.649 35.9045 612.186C35.9016 611.743 36.0138 611.346 36.2411 610.997C36.4684 610.648 36.7809 610.372 37.1786 610.17C37.5792 609.969 38.0352 609.868 38.5465 609.868C39.0522 609.868 39.5039 609.969 39.9016 610.17C40.2994 610.372 40.6119 610.648 40.8391 610.997C41.0692 611.346 41.1857 611.743 41.1886 612.186C41.1857 612.649 41.0593 613.062 40.8093 613.426C40.5621 613.787 40.234 614.021 39.8249 614.129V614.18C40.1403 614.237 40.4244 614.372 40.6772 614.585C40.93 614.795 41.1317 615.058 41.2823 615.373C41.4329 615.686 41.5096 616.027 41.5124 616.396C41.5096 616.868 41.3817 617.288 41.1289 617.657C40.8789 618.024 40.5309 618.312 40.0849 618.523C39.6417 618.73 39.1289 618.834 38.5465 618.834ZM38.5465 617.896C38.9414 617.896 39.2823 617.832 39.5692 617.704C39.8562 617.576 40.0778 617.396 40.234 617.163C40.3903 616.93 40.4698 616.657 40.4727 616.345C40.4698 616.015 40.3846 615.724 40.217 615.471C40.0494 615.219 39.8207 615.02 39.5309 614.875C39.244 614.73 38.9158 614.657 38.5465 614.657C38.1744 614.657 37.842 614.73 37.5494 614.875C37.2596 615.02 37.0309 615.219 36.8633 615.471C36.6985 615.724 36.6175 616.015 36.6204 616.345C36.6175 616.657 36.6928 616.93 36.8462 617.163C37.0025 617.396 37.2255 617.576 37.5153 617.704C37.805 617.832 38.1488 617.896 38.5465 617.896ZM38.5465 613.754C38.859 613.754 39.136 613.692 39.3775 613.567C39.6218 613.442 39.8136 613.267 39.9528 613.042C40.092 612.818 40.163 612.555 40.1658 612.254C40.163 611.959 40.0934 611.701 39.957 611.483C39.8207 611.261 39.6317 611.091 39.3903 610.971C39.1488 610.849 38.8675 610.788 38.5465 610.788C38.2198 610.788 37.9343 610.849 37.69 610.971C37.4457 611.091 37.2567 611.261 37.1232 611.483C36.9897 611.701 36.9244 611.959 36.9272 612.254C36.9244 612.555 36.9911 612.818 37.1275 613.042C37.2667 613.267 37.4585 613.442 37.7028 613.567C37.9471 613.692 38.2283 613.754 38.5465 613.754ZM45.7195 617.18V611.555H46.674V617.18H45.7195ZM43.3842 614.845V613.89H49.0092V614.845H43.3842Z" fill="white"/>
<rect width="85" height="601" transform="translate(0 744)" fill="#AA0052"/>
<rect x="0.5" y="744.5" width="84" height="600" stroke="black"/>
<rect width="85" height="39" transform="translate(0 670)" fill="#5061FF"/>
<rect x="0.5" y="670.5" width="84" height="38" stroke="black"/>
<path d="M42.4377 684.725C42.7956 684.728 43.1536 684.796 43.5115 684.929C43.8695 685.063 44.1962 685.285 44.4917 685.594C44.7871 685.901 45.0243 686.32 45.2033 686.851C45.3823 687.383 45.4718 688.049 45.4718 688.85C45.4718 689.625 45.3979 690.314 45.2502 690.917C45.1053 691.516 44.8951 692.022 44.6195 692.434C44.3468 692.846 44.0144 693.158 43.6223 693.371C43.2331 693.584 42.7928 693.691 42.3013 693.691C41.8127 693.691 41.3766 693.594 40.9931 693.401C40.6124 693.205 40.2999 692.934 40.0556 692.587C39.8141 692.238 39.6593 691.833 39.5911 691.373H40.6309C40.7246 691.773 40.9107 692.104 41.1891 692.365C41.4703 692.624 41.8411 692.753 42.3013 692.753C42.9746 692.753 43.5059 692.459 43.8951 691.871C44.2871 691.283 44.4831 690.452 44.4831 689.378H44.415C44.2559 689.617 44.0669 689.823 43.8482 689.996C43.6294 690.169 43.3865 690.303 43.1195 690.397C42.8525 690.49 42.5684 690.537 42.2672 690.537C41.7672 690.537 41.3084 690.414 40.8908 690.167C40.476 689.917 40.1436 689.574 39.8936 689.14C39.6465 688.702 39.5229 688.202 39.5229 687.64C39.5229 687.106 39.6422 686.617 39.8809 686.174C40.1223 685.728 40.4604 685.373 40.8951 685.108C41.3326 684.844 41.8468 684.716 42.4377 684.725ZM42.4377 685.662C42.0797 685.662 41.7573 685.752 41.4703 685.931C41.1863 686.107 40.9604 686.346 40.7928 686.647C40.628 686.945 40.5456 687.276 40.5456 687.64C40.5456 688.003 40.6252 688.334 40.7843 688.633C40.9462 688.928 41.1664 689.164 41.4448 689.34C41.726 689.513 42.0456 689.6 42.4036 689.6C42.6735 689.6 42.9249 689.547 43.1578 689.442C43.3908 689.334 43.5939 689.188 43.7672 689.003C43.9434 688.816 44.0811 688.604 44.1806 688.368C44.28 688.13 44.3297 687.881 44.3297 687.623C44.3297 687.282 44.2473 686.962 44.0826 686.664C43.9206 686.365 43.6962 686.124 43.4093 685.939C43.1252 685.755 42.8013 685.662 42.4377 685.662Z" fill="white"/>
<rect width="85" height="37" transform="translate(0 708)" fill="#5061FF"/>
<rect x="0.5" y="708.5" width="84" height="36" stroke="black"/>
<path d="M38.4826 722.439C38.8406 722.442 39.1985 722.51 39.5565 722.644C39.9144 722.777 40.2411 722.999 40.5366 723.308C40.832 723.615 41.0692 724.034 41.2482 724.566C41.4272 725.097 41.5167 725.763 41.5167 726.564C41.5167 727.34 41.4428 728.029 41.2951 728.631C41.1502 729.23 40.94 729.736 40.6644 730.148C40.3917 730.56 40.0593 730.872 39.6673 731.085C39.2781 731.298 38.8377 731.405 38.3462 731.405C37.8576 731.405 37.4215 731.308 37.038 731.115C36.6573 730.919 36.3448 730.648 36.1005 730.301C35.859 729.952 35.7042 729.547 35.636 729.087H36.6758C36.7695 729.487 36.9556 729.818 37.234 730.08C37.5153 730.338 37.886 730.468 38.3462 730.468C39.0195 730.468 39.5508 730.173 39.94 729.585C40.332 728.997 40.5281 728.166 40.5281 727.093H40.4599C40.3008 727.331 40.1119 727.537 39.8931 727.71C39.6744 727.884 39.4315 728.017 39.1644 728.111C38.8974 728.205 38.6133 728.252 38.3121 728.252C37.8121 728.252 37.3533 728.128 36.9357 727.881C36.521 727.631 36.1886 727.289 35.9386 726.854C35.6914 726.416 35.5678 725.916 35.5678 725.354C35.5678 724.82 35.6871 724.331 35.9258 723.888C36.1673 723.442 36.5053 723.087 36.94 722.823C37.3775 722.558 37.8917 722.431 38.4826 722.439ZM38.4826 723.377C38.1246 723.377 37.8022 723.466 37.5153 723.645C37.2312 723.821 37.0053 724.06 36.8377 724.361C36.6729 724.659 36.5906 724.99 36.5906 725.354C36.5906 725.718 36.6701 726.048 36.8292 726.347C36.9911 726.642 37.2113 726.878 37.4897 727.054C37.771 727.227 38.0906 727.314 38.4485 727.314C38.7184 727.314 38.9698 727.262 39.2028 727.156C39.4357 727.048 39.6388 726.902 39.8121 726.718C39.9883 726.53 40.1261 726.318 40.2255 726.083C40.3249 725.844 40.3746 725.595 40.3746 725.337C40.3746 724.996 40.2923 724.676 40.1275 724.378C39.9656 724.08 39.7411 723.838 39.4542 723.654C39.1701 723.469 38.8462 723.377 38.4826 723.377ZM45.7663 729.752V724.127H46.7209V729.752H45.7663ZM43.4311 727.416V726.462H49.0561V727.416H43.4311Z" fill="white"/>
</svg>
