<svg width="85" height="26" viewBox="0 0 85 26" fill="none" xmlns="http://www.w3.org/2000/svg">
<rect width="85" height="26" fill="#5061FF"/>
<rect x="0.5" y="0.5" width="84" height="25" stroke="black"/>
<path d="M28.6159 8.98702V17.7143H27.5932L22.8375 10.862H22.7523V17.7143H21.6955V8.98702H22.7182L27.4909 15.8563H27.5762V8.98702H28.6159ZM33.2534 17.8507C32.6625 17.8507 32.144 17.71 31.698 17.4288C31.2548 17.1475 30.9082 16.7541 30.6582 16.2484C30.411 15.7427 30.2875 15.1518 30.2875 14.4757C30.2875 13.7938 30.411 13.1987 30.6582 12.6901C30.9082 12.1816 31.2548 11.7867 31.698 11.5055C32.144 11.2242 32.6625 11.0836 33.2534 11.0836C33.8443 11.0836 34.3613 11.2242 34.8045 11.5055C35.2505 11.7867 35.5971 12.1816 35.8443 12.6901C36.0943 13.1987 36.2193 13.7938 36.2193 14.4757C36.2193 15.1518 36.0943 15.7427 35.8443 16.2484C35.5971 16.7541 35.2505 17.1475 34.8045 17.4288C34.3613 17.71 33.8443 17.8507 33.2534 17.8507ZM33.2534 16.9472C33.7022 16.9472 34.0716 16.8322 34.3613 16.6021C34.6511 16.372 34.8656 16.0694 35.0048 15.6944C35.144 15.3194 35.2136 14.9132 35.2136 14.4757C35.2136 14.0382 35.144 13.6305 35.0048 13.2526C34.8656 12.8748 34.6511 12.5694 34.3613 12.3365C34.0716 12.1035 33.7022 11.987 33.2534 11.987C32.8045 11.987 32.4352 12.1035 32.1454 12.3365C31.8556 12.5694 31.6412 12.8748 31.502 13.2526C31.3627 13.6305 31.2931 14.0382 31.2931 14.4757C31.2931 14.9132 31.3627 15.3194 31.502 15.6944C31.6412 16.0694 31.8556 16.372 32.1454 16.6021C32.4352 16.8322 32.8045 16.9472 33.2534 16.9472ZM37.7544 17.7143V11.1688H38.726V12.1575H38.7942C38.9135 11.8336 39.1294 11.5708 39.4419 11.3691C39.7544 11.1674 40.1067 11.0666 40.4988 11.0666C40.5726 11.0666 40.665 11.068 40.7757 11.0708C40.8865 11.0737 40.9703 11.0779 41.0272 11.0836V12.1063C40.9931 12.0978 40.915 12.085 40.7928 12.068C40.6735 12.0481 40.5471 12.0382 40.4135 12.0382C40.0953 12.0382 39.8113 12.1049 39.5613 12.2384C39.3141 12.3691 39.1181 12.5509 38.9732 12.7839C38.8311 13.014 38.7601 13.2768 38.7601 13.5722V17.7143H37.7544ZM43.8077 17.7143L41.8134 11.1688H42.8702L44.285 16.1802H44.3532L45.7509 11.1688H46.8248L48.2054 16.1632H48.2736L49.6884 11.1688H50.7452L48.7509 17.7143H47.7623L46.3304 12.6859H46.2282L44.7963 17.7143H43.8077ZM54.0009 17.8677C53.5861 17.8677 53.2097 17.7896 52.8716 17.6333C52.5336 17.4742 52.2651 17.2455 52.0662 16.9472C51.8674 16.6461 51.7679 16.2825 51.7679 15.8563C51.7679 15.4813 51.8418 15.1774 51.9895 14.9444C52.1373 14.7086 52.3347 14.524 52.5819 14.3904C52.829 14.2569 53.1017 14.1575 53.4 14.0921C53.7012 14.024 54.0037 13.97 54.3077 13.9302C54.7054 13.8791 55.0279 13.8407 55.275 13.8151C55.525 13.7867 55.7069 13.7399 55.8205 13.6745C55.937 13.6092 55.9952 13.4955 55.9952 13.3336V13.2995C55.9952 12.8791 55.8801 12.5524 55.65 12.3194C55.4228 12.0865 55.0776 11.97 54.6145 11.97C54.1344 11.97 53.758 12.0751 53.4853 12.2853C53.2125 12.4955 53.0208 12.72 52.91 12.9586L51.9554 12.6177C52.1259 12.22 52.3532 11.9103 52.6373 11.6887C52.9242 11.4643 53.2367 11.308 53.5748 11.22C53.9157 11.1291 54.2509 11.0836 54.5804 11.0836C54.7907 11.0836 55.0321 11.1092 55.3049 11.1603C55.5804 11.2086 55.8461 11.3095 56.1017 11.4629C56.3603 11.6163 56.5748 11.8478 56.7452 12.1575C56.9157 12.4671 57.0009 12.8819 57.0009 13.4018V17.7143H55.9952V16.8279H55.9441C55.8759 16.97 55.7623 17.122 55.6032 17.2839C55.4441 17.4458 55.2324 17.5836 54.9682 17.6972C54.704 17.8109 54.3816 17.8677 54.0009 17.8677ZM54.1543 16.9643C54.552 16.9643 54.8873 16.8862 55.16 16.7299C55.4355 16.5737 55.6429 16.372 55.7821 16.1248C55.9242 15.8776 55.9952 15.6177 55.9952 15.345V14.4245C55.9526 14.4757 55.8588 14.5225 55.714 14.5651C55.5719 14.6049 55.4071 14.6404 55.2196 14.6717C55.035 14.7001 54.8546 14.7257 54.6784 14.7484C54.5051 14.7683 54.3645 14.7853 54.2566 14.7995C53.9952 14.8336 53.7509 14.889 53.5236 14.9657C53.2992 15.0396 53.1174 15.1518 52.9782 15.3024C52.8418 15.4501 52.7736 15.6518 52.7736 15.9075C52.7736 16.2569 52.9029 16.5211 53.1614 16.7001C53.4228 16.8762 53.7537 16.9643 54.1543 16.9643ZM59.2498 20.1688C59.0794 20.1688 58.9274 20.1546 58.7939 20.1262C58.6603 20.1007 58.568 20.0751 58.5169 20.0495L58.7725 19.1632C59.0169 19.2257 59.2328 19.2484 59.4203 19.2313C59.6078 19.2143 59.774 19.1305 59.9189 18.9799C60.0666 18.8322 60.2015 18.5921 60.3237 18.2597L60.5112 17.7484L58.0907 11.1688H59.1816L60.9885 16.3847H61.0566L62.8635 11.1688H63.9544L61.176 18.6688C61.051 19.0069 60.8961 19.2867 60.7115 19.5083C60.5268 19.7328 60.3123 19.899 60.068 20.0069C59.8265 20.1149 59.5538 20.1688 59.2498 20.1688Z" fill="white"/>
</svg>
