<svg width="85" height="1345" viewBox="0 0 85 1345" fill="none" xmlns="http://www.w3.org/2000/svg">
<rect width="85" height="18" transform="translate(0 239)" fill="#007A4D"/>
<rect x="0.5" y="239.5" width="84" height="17" stroke="black"/>
<path d="M39.8622 243.844V252.571H38.8054V244.952H38.7543L36.6236 246.367V245.293L38.8054 243.844H39.8622ZM45.321 252.691C44.7585 252.691 44.2571 252.594 43.8168 252.401C43.3793 252.208 43.0313 251.939 42.7727 251.596C42.517 251.249 42.3778 250.847 42.3551 250.39H43.429C43.4517 250.671 43.5483 250.914 43.7188 251.118C43.8892 251.32 44.1122 251.476 44.3878 251.587C44.6634 251.698 44.9688 251.753 45.304 251.753C45.679 251.753 46.0114 251.688 46.3011 251.557C46.5909 251.427 46.8182 251.245 46.983 251.012C47.1477 250.779 47.2301 250.509 47.2301 250.202C47.2301 249.881 47.1506 249.598 46.9915 249.354C46.8324 249.107 46.5994 248.914 46.2926 248.775C45.9858 248.635 45.6108 248.566 45.1676 248.566H44.4688V247.628H45.1676C45.5142 247.628 45.8182 247.566 46.0795 247.441C46.3438 247.316 46.5497 247.14 46.6974 246.912C46.848 246.685 46.9233 246.418 46.9233 246.111C46.9233 245.816 46.858 245.559 46.7273 245.34C46.5966 245.121 46.4119 244.951 46.1733 244.829C45.9375 244.706 45.6591 244.645 45.3381 244.645C45.0369 244.645 44.7528 244.701 44.4858 244.811C44.2216 244.919 44.0057 245.077 43.8381 245.284C43.6705 245.489 43.5795 245.736 43.5653 246.026H42.5426C42.5597 245.569 42.6974 245.168 42.956 244.824C43.2145 244.478 43.5526 244.208 43.9702 244.015C44.3906 243.821 44.8523 243.725 45.3551 243.725C45.8949 243.725 46.358 243.834 46.7443 244.053C47.1307 244.269 47.4276 244.554 47.6349 244.909C47.8423 245.265 47.946 245.648 47.946 246.06C47.946 246.552 47.8168 246.971 47.5582 247.317C47.3026 247.664 46.9545 247.904 46.5142 248.037V248.106C47.0653 248.196 47.4957 248.431 47.8054 248.809C48.1151 249.184 48.2699 249.648 48.2699 250.202C48.2699 250.677 48.1406 251.103 47.8821 251.481C47.6264 251.856 47.277 252.151 46.8338 252.367C46.3906 252.583 45.8864 252.691 45.321 252.691Z" fill="white"/>
<rect width="85" height="17" transform="translate(0 256)" fill="#007A4D"/>
<rect x="0.5" y="256.5" width="84" height="16" stroke="black"/>
<path d="M39.8329 260.701V269.429H38.7761V261.809H38.725L36.5943 263.224V262.15L38.7761 260.701H39.8329ZM42.1383 267.639V266.769L45.9735 260.701H46.6042V262.048H46.1781L43.2804 266.633V266.701H48.4451V267.639H42.1383ZM46.2463 269.429V267.375V266.97V260.701H47.252V269.429H46.2463Z" fill="white"/>
<rect width="85" height="19" transform="translate(0 272)" fill="#007A4D"/>
<rect x="0.5" y="272.5" width="84" height="18" stroke="black"/>
<path d="M40.0321 276.987V285.714H38.9753V278.095H38.9242L36.7935 279.51V278.436L38.9753 276.987H40.0321ZM45.2694 285.834C44.7694 285.834 44.3191 285.734 43.9185 285.535C43.5179 285.336 43.1969 285.064 42.9554 284.717C42.714 284.371 42.5819 283.976 42.5591 283.532H43.5819C43.6216 283.927 43.8006 284.254 44.1188 284.513C44.4398 284.768 44.8233 284.896 45.2694 284.896C45.6273 284.896 45.9455 284.812 46.2239 284.645C46.5051 284.477 46.7253 284.247 46.8844 283.954C47.0463 283.659 47.1273 283.325 47.1273 282.953C47.1273 282.572 47.0435 282.233 46.8759 281.934C46.7111 281.633 46.4838 281.396 46.1941 281.223C45.9043 281.05 45.5733 280.961 45.2012 280.959C44.9341 280.956 44.66 280.997 44.3787 281.082C44.0975 281.165 43.8659 281.271 43.6841 281.402L42.6955 281.282L43.2239 276.987H47.758V277.925H44.1103L43.8034 280.498H43.8546C44.0336 280.356 44.258 280.238 44.5279 280.145C44.7978 280.051 45.079 280.004 45.3716 280.004C45.9057 280.004 46.3816 280.132 46.7992 280.388C47.2196 280.64 47.5492 280.987 47.7878 281.427C48.0293 281.868 48.15 282.371 48.15 282.936C48.15 283.493 48.025 283.99 47.775 284.427C47.5279 284.862 47.187 285.206 46.7523 285.459C46.3176 285.709 45.8233 285.834 45.2694 285.834Z" fill="white"/>
<rect width="85" height="20" transform="translate(0 289)" fill="#007A4D"/>
<rect x="0.5" y="289.5" width="84" height="19" stroke="black"/>
<path d="M39.9384 295.13V303.857H38.8816V296.238H38.8304L36.6998 297.653V296.579L38.8816 295.13H39.9384ZM45.3461 303.976C44.9881 303.971 44.6301 303.903 44.2722 303.772C43.9142 303.641 43.5875 303.421 43.2921 303.111C42.9966 302.799 42.7594 302.377 42.5804 301.846C42.4015 301.312 42.312 300.641 42.312 299.834C42.312 299.062 42.3844 298.377 42.5293 297.78C42.6742 297.181 42.8844 296.677 43.16 296.268C43.4355 295.856 43.7679 295.543 44.1571 295.33C44.5492 295.117 44.9909 295.011 45.4824 295.011C45.9711 295.011 46.4057 295.109 46.7864 295.305C47.1699 295.498 47.4824 295.768 47.7239 296.114C47.9654 296.461 48.1216 296.86 48.1926 297.312H47.1529C47.0563 296.92 46.8688 296.594 46.5904 296.336C46.312 296.077 45.9426 295.948 45.4824 295.948C44.8063 295.948 44.2736 296.242 43.8844 296.83C43.498 297.418 43.3034 298.244 43.3006 299.306H43.3688C43.5279 299.065 43.7168 298.859 43.9355 298.688C44.1571 298.515 44.4015 298.381 44.6685 298.288C44.9355 298.194 45.2182 298.147 45.5165 298.147C46.0165 298.147 46.4739 298.272 46.8887 298.522C47.3034 298.769 47.6358 299.111 47.8858 299.549C48.1358 299.984 48.2608 300.482 48.2608 301.045C48.2608 301.584 48.1401 302.079 47.8986 302.528C47.6571 302.974 47.3176 303.329 46.8801 303.593C46.4455 303.854 45.9341 303.982 45.3461 303.976ZM45.3461 303.039C45.704 303.039 46.025 302.949 46.3091 302.77C46.5961 302.592 46.8219 302.351 46.9867 302.05C47.1543 301.749 47.2381 301.414 47.2381 301.045C47.2381 300.684 47.1571 300.356 46.9952 300.06C46.8361 299.762 46.6159 299.525 46.3347 299.349C46.0563 299.172 45.7381 299.084 45.3801 299.084C45.1103 299.084 44.8588 299.138 44.6259 299.246C44.3929 299.351 44.1884 299.496 44.0123 299.681C43.839 299.866 43.7026 300.077 43.6032 300.316C43.5037 300.552 43.454 300.8 43.454 301.062C43.454 301.408 43.535 301.732 43.6969 302.033C43.8617 302.334 44.0861 302.577 44.3702 302.762C44.6571 302.947 44.9824 303.039 45.3461 303.039Z" fill="white"/>
<rect width="85" height="25" transform="translate(0 308)" fill="#DE3831"/>
<rect x="0.5" y="308.5" width="84" height="24" stroke="black"/>
<path d="M40.2548 315.844V324.571H39.198V316.952H39.1468L37.0162 318.367V317.293L39.198 315.844H40.2548ZM43.0375 324.571L46.9409 316.85V316.782H42.4409V315.844H48.0318V316.833L44.1454 324.571H43.0375Z" fill="white"/>
<rect width="85" height="240" fill="#DE3831"/>
<rect x="0.5" y="0.5" width="84" height="239" stroke="black"/>
<rect width="85" height="25" transform="translate(0 332)" fill="#DE3831"/>
<rect x="0.5" y="332.5" width="84" height="24" stroke="black"/>
<path d="M39.9853 339.844V348.571H38.9284V340.952H38.8773L36.7466 342.367V341.293L38.9284 339.844H39.9853ZM45.2907 348.691C44.7054 348.691 44.1884 348.587 43.7395 348.38C43.2935 348.169 42.9455 347.881 42.6955 347.515C42.4455 347.145 42.3219 346.725 42.3248 346.253C42.3219 345.884 42.3944 345.543 42.5421 345.231C42.6898 344.915 42.8915 344.652 43.1472 344.442C43.4057 344.229 43.6941 344.094 44.0123 344.037V343.986C43.5946 343.878 43.2623 343.644 43.0151 343.283C42.7679 342.919 42.6458 342.506 42.6486 342.043C42.6458 341.6 42.758 341.204 42.9853 340.854C43.2125 340.505 43.525 340.229 43.9228 340.027C44.3233 339.826 44.7793 339.725 45.2907 339.725C45.7963 339.725 46.248 339.826 46.6458 340.027C47.0435 340.229 47.356 340.505 47.5833 340.854C47.8134 341.204 47.9299 341.6 47.9327 342.043C47.9299 342.506 47.8034 342.919 47.5534 343.283C47.3063 343.644 46.9782 343.878 46.5691 343.986V344.037C46.8844 344.094 47.1685 344.229 47.4213 344.442C47.6742 344.652 47.8759 344.915 48.0265 345.231C48.177 345.543 48.2537 345.884 48.2566 346.253C48.2537 346.725 48.1259 347.145 47.873 347.515C47.623 347.881 47.275 348.169 46.829 348.38C46.3858 348.587 45.873 348.691 45.2907 348.691ZM45.2907 347.753C45.6855 347.753 46.0265 347.689 46.3134 347.561C46.6003 347.434 46.8219 347.253 46.9782 347.02C47.1344 346.787 47.214 346.515 47.2168 346.202C47.214 345.873 47.1287 345.581 46.9611 345.329C46.7935 345.076 46.5648 344.877 46.275 344.732C45.9881 344.587 45.66 344.515 45.2907 344.515C44.9185 344.515 44.5861 344.587 44.2935 344.732C44.0037 344.877 43.775 345.076 43.6074 345.329C43.4426 345.581 43.3617 345.873 43.3645 346.202C43.3617 346.515 43.437 346.787 43.5904 347.02C43.7466 347.253 43.9696 347.434 44.2594 347.561C44.5492 347.689 44.8929 347.753 45.2907 347.753ZM45.2907 343.611C45.6032 343.611 45.8801 343.549 46.1216 343.424C46.3659 343.299 46.5577 343.124 46.6969 342.9C46.8361 342.675 46.9071 342.412 46.91 342.111C46.9071 341.816 46.8375 341.559 46.7012 341.34C46.5648 341.118 46.3759 340.948 46.1344 340.829C45.8929 340.706 45.6117 340.645 45.2907 340.645C44.964 340.645 44.6784 340.706 44.4341 340.829C44.1898 340.948 44.0009 341.118 43.8674 341.34C43.7338 341.559 43.6685 341.816 43.6713 342.111C43.6685 342.412 43.7353 342.675 43.8716 342.9C44.0108 343.124 44.2026 343.299 44.4469 343.424C44.6912 343.549 44.9725 343.611 45.2907 343.611Z" fill="white"/>
<rect width="85" height="25" transform="translate(0 354)" fill="#DE3831"/>
<rect x="0.5" y="354.5" width="84" height="24" stroke="black"/>
<path d="M39.9384 361.844V370.571H38.8816V362.952H38.8304L36.6998 364.367V363.293L38.8816 361.844H39.9384ZM45.2267 361.725C45.5847 361.728 45.9426 361.796 46.3006 361.929C46.6586 362.063 46.9853 362.284 47.2807 362.594C47.5762 362.901 47.8134 363.32 47.9924 363.851C48.1713 364.383 48.2608 365.049 48.2608 365.85C48.2608 366.625 48.187 367.314 48.0392 367.917C47.8944 368.516 47.6841 369.022 47.4086 369.434C47.1358 369.846 46.8034 370.158 46.4114 370.371C46.0222 370.584 45.5819 370.691 45.0904 370.691C44.6017 370.691 44.1657 370.594 43.7821 370.401C43.4015 370.205 43.089 369.934 42.8446 369.587C42.6032 369.238 42.4483 368.833 42.3801 368.373H43.4199C43.5137 368.773 43.6998 369.104 43.9782 369.365C44.2594 369.624 44.6301 369.753 45.0904 369.753C45.7637 369.753 46.2949 369.459 46.6841 368.871C47.0762 368.283 47.2722 367.452 47.2722 366.378H47.204C47.0449 366.617 46.856 366.823 46.6373 366.996C46.4185 367.169 46.1756 367.303 45.9086 367.397C45.6415 367.49 45.3574 367.537 45.0563 367.537C44.5563 367.537 44.0975 367.414 43.6799 367.167C43.2651 366.917 42.9327 366.574 42.6827 366.14C42.4355 365.702 42.312 365.202 42.312 364.64C42.312 364.106 42.4313 363.617 42.6699 363.174C42.9114 362.728 43.2495 362.373 43.6841 362.108C44.1216 361.844 44.6358 361.716 45.2267 361.725ZM45.2267 362.662C44.8688 362.662 44.5463 362.752 44.2594 362.931C43.9753 363.107 43.7495 363.346 43.5819 363.647C43.4171 363.945 43.3347 364.276 43.3347 364.64C43.3347 365.003 43.4142 365.334 43.5733 365.633C43.7353 365.928 43.9554 366.164 44.2338 366.34C44.5151 366.513 44.8347 366.6 45.1926 366.6C45.4625 366.6 45.714 366.547 45.9469 366.442C46.1799 366.334 46.383 366.188 46.5563 366.003C46.7324 365.816 46.8702 365.604 46.9696 365.368C47.0691 365.13 47.1188 364.881 47.1188 364.623C47.1188 364.282 47.0364 363.962 46.8716 363.664C46.7097 363.365 46.4853 363.124 46.1983 362.939C45.9142 362.755 45.5904 362.662 45.2267 362.662Z" fill="white"/>
<rect width="85" height="24" transform="translate(0 378)" fill="#DE3831"/>
<rect x="0.5" y="378.5" width="84" height="23" stroke="black"/>
<path d="M36.0206 394.429V393.662L38.9013 390.508C39.2393 390.139 39.5178 389.818 39.7365 389.545C39.9553 389.269 40.1172 389.011 40.2223 388.769C40.3303 388.525 40.3842 388.269 40.3842 388.002C40.3842 387.696 40.3104 387.43 40.1626 387.206C40.0178 386.981 39.8189 386.808 39.5661 386.686C39.3132 386.564 39.0291 386.502 38.7138 386.502C38.3786 386.502 38.0859 386.572 37.8359 386.711C37.5888 386.848 37.397 387.039 37.2607 387.287C37.1271 387.534 37.0604 387.823 37.0604 388.156H36.0547C36.0547 387.644 36.1726 387.196 36.4084 386.809C36.6442 386.423 36.9652 386.122 37.3714 385.906C37.7805 385.69 38.2393 385.582 38.7479 385.582C39.2592 385.582 39.7124 385.69 40.1072 385.906C40.5021 386.122 40.8118 386.413 41.0362 386.779C41.2607 387.146 41.3729 387.554 41.3729 388.002C41.3729 388.323 41.3146 388.637 41.1982 388.944C41.0845 389.248 40.8857 389.588 40.6016 389.963C40.3203 390.335 39.9297 390.789 39.4297 391.326L37.4695 393.423V393.491H41.5263V394.429H36.0206ZM46.1328 394.548C45.4908 394.548 44.9439 394.373 44.4922 394.024C44.0405 393.671 43.6953 393.162 43.4567 392.494C43.218 391.823 43.0987 391.014 43.0987 390.065C43.0987 389.122 43.218 388.316 43.4567 387.649C43.6982 386.978 44.0447 386.467 44.4964 386.115C44.951 385.76 45.4964 385.582 46.1328 385.582C46.7692 385.582 47.3132 385.76 47.7649 386.115C48.2195 386.467 48.5661 386.978 48.8047 387.649C49.0462 388.316 49.1669 389.122 49.1669 390.065C49.1669 391.014 49.0476 391.823 48.8089 392.494C48.5703 393.162 48.2251 393.671 47.7734 394.024C47.3217 394.373 46.7749 394.548 46.1328 394.548ZM46.1328 393.61C46.7692 393.61 47.2635 393.304 47.6158 392.69C47.968 392.076 48.1442 391.201 48.1442 390.065C48.1442 389.309 48.0632 388.666 47.9013 388.135C47.7422 387.603 47.5121 387.198 47.2109 386.92C46.9126 386.642 46.5533 386.502 46.1328 386.502C45.5021 386.502 45.0092 386.814 44.6541 387.436C44.299 388.055 44.1214 388.931 44.1214 390.065C44.1214 390.821 44.201 391.463 44.3601 391.991C44.5192 392.519 44.7479 392.921 45.0462 393.197C45.3473 393.473 45.7095 393.61 46.1328 393.61Z" fill="white"/>
<rect width="85" height="25" transform="translate(0 401)" fill="#007A4D"/>
<rect x="0.5" y="401.5" width="84" height="24" stroke="black"/>
<path d="M36.9815 417.571V416.804L39.8622 413.651C40.2003 413.282 40.4787 412.961 40.6974 412.688C40.9162 412.412 41.0781 412.154 41.1832 411.912C41.2912 411.668 41.3452 411.412 41.3452 411.145C41.3452 410.838 41.2713 410.573 41.1236 410.348C40.9787 410.124 40.7798 409.951 40.527 409.829C40.2741 409.706 39.9901 409.645 39.6747 409.645C39.3395 409.645 39.0469 409.715 38.7969 409.854C38.5497 409.99 38.358 410.182 38.2216 410.429C38.0881 410.677 38.0213 410.966 38.0213 411.299H37.0156C37.0156 410.787 37.1335 410.338 37.3693 409.952C37.6051 409.566 37.9261 409.265 38.3324 409.049C38.7415 408.833 39.2003 408.725 39.7088 408.725C40.2202 408.725 40.6733 408.833 41.0682 409.049C41.4631 409.265 41.7727 409.556 41.9972 409.922C42.2216 410.289 42.3338 410.696 42.3338 411.145C42.3338 411.466 42.2756 411.78 42.1591 412.087C42.0455 412.391 41.8466 412.731 41.5625 413.106C41.2812 413.478 40.8906 413.932 40.3906 414.469L38.4304 416.566V416.634H42.4872V417.571H36.9815ZM47.3153 408.844V417.571H46.2585V409.952H46.2074L44.0767 411.367V410.293L46.2585 408.844H47.3153Z" fill="white"/>
<rect width="85" height="25" transform="translate(0 425)" fill="#007A4D"/>
<rect x="0.5" y="425.5" width="84" height="24" stroke="black"/>
<path d="M36.1378 441.571V440.804L39.0185 437.651C39.3565 437.282 39.6349 436.961 39.8537 436.688C40.0724 436.412 40.2344 436.154 40.3395 435.912C40.4474 435.668 40.5014 435.412 40.5014 435.145C40.5014 434.838 40.4276 434.573 40.2798 434.348C40.1349 434.124 39.9361 433.951 39.6832 433.829C39.4304 433.706 39.1463 433.645 38.831 433.645C38.4957 433.645 38.2031 433.715 37.9531 433.854C37.706 433.99 37.5142 434.182 37.3778 434.429C37.2443 434.677 37.1776 434.966 37.1776 435.299H36.1719C36.1719 434.787 36.2898 434.338 36.5256 433.952C36.7614 433.566 37.0824 433.265 37.4886 433.049C37.8977 432.833 38.3565 432.725 38.8651 432.725C39.3764 432.725 39.8295 432.833 40.2244 433.049C40.6193 433.265 40.929 433.556 41.1534 433.922C41.3778 434.289 41.4901 434.696 41.4901 435.145C41.4901 435.466 41.4318 435.78 41.3153 436.087C41.2017 436.391 41.0028 436.731 40.7188 437.106C40.4375 437.478 40.0469 437.932 39.5469 438.469L37.5866 440.566V440.634H41.6435V441.571H36.1378ZM43.4034 441.571V440.804L46.2841 437.651C46.6222 437.282 46.9006 436.961 47.1193 436.688C47.3381 436.412 47.5 436.154 47.6051 435.912C47.7131 435.668 47.767 435.412 47.767 435.145C47.767 434.838 47.6932 434.573 47.5455 434.348C47.4006 434.124 47.2017 433.951 46.9489 433.829C46.696 433.706 46.4119 433.645 46.0966 433.645C45.7614 433.645 45.4688 433.715 45.2188 433.854C44.9716 433.99 44.7798 434.182 44.6435 434.429C44.5099 434.677 44.4432 434.966 44.4432 435.299H43.4375C43.4375 434.787 43.5554 434.338 43.7912 433.952C44.027 433.566 44.348 433.265 44.7543 433.049C45.1634 432.833 45.6222 432.725 46.1307 432.725C46.642 432.725 47.0952 432.833 47.4901 433.049C47.8849 433.265 48.1946 433.556 48.419 433.922C48.6435 434.289 48.7557 434.696 48.7557 435.145C48.7557 435.466 48.6974 435.78 48.581 436.087C48.4673 436.391 48.2685 436.731 47.9844 437.106C47.7031 437.478 47.3125 437.932 46.8125 438.469L44.8523 440.566V440.634H48.9091V441.571H43.4034Z" fill="white"/>
<rect width="85" height="25" transform="translate(0 448)" fill="#007A4D"/>
<rect x="0.5" y="448.5" width="84" height="24" stroke="black"/>
<path d="M35.9503 464.571V463.804L38.831 460.651C39.169 460.282 39.4474 459.961 39.6662 459.688C39.8849 459.412 40.0469 459.154 40.152 458.912C40.2599 458.668 40.3139 458.412 40.3139 458.145C40.3139 457.838 40.2401 457.573 40.0923 457.348C39.9474 457.124 39.7486 456.951 39.4957 456.829C39.2429 456.706 38.9588 456.645 38.6435 456.645C38.3082 456.645 38.0156 456.715 37.7656 456.854C37.5185 456.99 37.3267 457.182 37.1903 457.429C37.0568 457.677 36.9901 457.966 36.9901 458.299H35.9844C35.9844 457.787 36.1023 457.338 36.3381 456.952C36.5739 456.566 36.8949 456.265 37.3011 456.049C37.7102 455.833 38.169 455.725 38.6776 455.725C39.1889 455.725 39.642 455.833 40.0369 456.049C40.4318 456.265 40.7415 456.556 40.9659 456.922C41.1903 457.289 41.3026 457.696 41.3026 458.145C41.3026 458.466 41.2443 458.78 41.1278 459.087C41.0142 459.391 40.8153 459.731 40.5312 460.106C40.25 460.478 39.8594 460.932 39.3594 461.469L37.3991 463.566V463.634H41.456V464.571H35.9503ZM46.1648 464.691C45.6023 464.691 45.1009 464.594 44.6605 464.401C44.223 464.208 43.875 463.939 43.6165 463.596C43.3608 463.249 43.2216 462.847 43.1989 462.39H44.2727C44.2955 462.671 44.392 462.914 44.5625 463.118C44.733 463.32 44.956 463.476 45.2315 463.587C45.5071 463.698 45.8125 463.753 46.1477 463.753C46.5227 463.753 46.8551 463.688 47.1449 463.557C47.4347 463.427 47.6619 463.245 47.8267 463.012C47.9915 462.779 48.0739 462.509 48.0739 462.202C48.0739 461.881 47.9943 461.598 47.8352 461.354C47.6761 461.107 47.4432 460.914 47.1364 460.775C46.8295 460.635 46.4545 460.566 46.0114 460.566H45.3125V459.628H46.0114C46.358 459.628 46.6619 459.566 46.9233 459.441C47.1875 459.316 47.3935 459.14 47.5412 458.912C47.6918 458.685 47.767 458.418 47.767 458.111C47.767 457.816 47.7017 457.559 47.571 457.34C47.4403 457.121 47.2557 456.951 47.017 456.829C46.7813 456.706 46.5028 456.645 46.1818 456.645C45.8807 456.645 45.5966 456.701 45.3295 456.811C45.0653 456.919 44.8494 457.077 44.6818 457.284C44.5142 457.489 44.4233 457.736 44.4091 458.026H43.3864C43.4034 457.569 43.5412 457.168 43.7997 456.824C44.0582 456.478 44.3963 456.208 44.8139 456.015C45.2344 455.821 45.696 455.725 46.1989 455.725C46.7386 455.725 47.2017 455.834 47.5881 456.053C47.9744 456.269 48.2713 456.554 48.4787 456.909C48.6861 457.265 48.7898 457.648 48.7898 458.06C48.7898 458.552 48.6605 458.971 48.402 459.317C48.1463 459.664 47.7983 459.904 47.358 460.037V460.106C47.9091 460.196 48.3395 460.431 48.6491 460.809C48.9588 461.184 49.1136 461.648 49.1136 462.202C49.1136 462.677 48.9844 463.103 48.7259 463.481C48.4702 463.856 48.1207 464.151 47.6776 464.367C47.2344 464.583 46.7301 464.691 46.1648 464.691Z" fill="white"/>
<rect width="85" height="24" transform="translate(0 472)" fill="#007A4D"/>
<rect x="0.5" y="472.5" width="84" height="23" stroke="black"/>
<path d="M36.0147 488.429V487.662L38.8954 484.508C39.2335 484.139 39.5119 483.818 39.7306 483.545C39.9494 483.269 40.1113 483.011 40.2164 482.769C40.3244 482.525 40.3784 482.269 40.3784 482.002C40.3784 481.696 40.3045 481.43 40.1568 481.206C40.0119 480.981 39.813 480.808 39.5602 480.686C39.3074 480.564 39.0233 480.502 38.7079 480.502C38.3727 480.502 38.0801 480.572 37.8301 480.711C37.5829 480.848 37.3912 481.039 37.2548 481.287C37.1213 481.534 37.0545 481.823 37.0545 482.156H36.0488C36.0488 481.644 36.1667 481.196 36.4025 480.809C36.6383 480.423 36.9593 480.122 37.3656 479.906C37.7747 479.69 38.2335 479.582 38.742 479.582C39.2534 479.582 39.7065 479.69 40.1014 479.906C40.4963 480.122 40.8059 480.413 41.0304 480.779C41.2548 481.146 41.367 481.554 41.367 482.002C41.367 482.323 41.3088 482.637 41.1923 482.944C41.0787 483.248 40.8798 483.588 40.5957 483.963C40.3145 484.335 39.9238 484.789 39.4238 485.326L37.4636 487.423V487.491H41.5204V488.429H36.0147ZM42.8883 486.639V485.769L46.7235 479.701H47.3542V481.048H46.9281L44.0304 485.633V485.701H49.1951V486.639H42.8883ZM46.9963 488.429V486.375V485.97V479.701H48.002V488.429H46.9963Z" fill="white"/>
<rect width="85" height="24" transform="translate(0 495)" fill="#DE3831"/>
<rect x="0.5" y="495.5" width="84" height="23" stroke="black"/>
<path d="M36.1202 511.429V510.662L39.0009 507.508C39.339 507.139 39.6174 506.818 39.8361 506.545C40.0549 506.269 40.2168 506.011 40.3219 505.769C40.4299 505.525 40.4838 505.269 40.4838 505.002C40.4838 504.696 40.41 504.43 40.2623 504.206C40.1174 503.981 39.9185 503.808 39.6657 503.686C39.4128 503.564 39.1287 503.502 38.8134 503.502C38.4782 503.502 38.1855 503.572 37.9355 503.711C37.6884 503.848 37.4966 504.039 37.3603 504.287C37.2267 504.534 37.16 504.823 37.16 505.156H36.1543C36.1543 504.644 36.2722 504.196 36.508 503.809C36.7438 503.423 37.0648 503.122 37.4711 502.906C37.8801 502.69 38.339 502.582 38.8475 502.582C39.3588 502.582 39.812 502.69 40.2069 502.906C40.6017 503.122 40.9114 503.413 41.1358 503.779C41.3603 504.146 41.4725 504.554 41.4725 505.002C41.4725 505.323 41.4142 505.637 41.2978 505.944C41.1841 506.248 40.9853 506.588 40.7012 506.963C40.4199 507.335 40.0293 507.789 39.5293 508.326L37.5691 510.423V510.491H41.6259V511.429H36.1202ZM46.1131 511.548C45.6131 511.548 45.1628 511.448 44.7623 511.25C44.3617 511.051 44.0407 510.778 43.7992 510.431C43.5577 510.085 43.4256 509.69 43.4029 509.247H44.4256C44.4654 509.642 44.6444 509.968 44.9625 510.227C45.2836 510.483 45.6671 510.61 46.1131 510.61C46.4711 510.61 46.7892 510.527 47.0676 510.359C47.3489 510.191 47.5691 509.961 47.7282 509.669C47.8901 509.373 47.9711 509.039 47.9711 508.667C47.9711 508.287 47.8873 507.947 47.7196 507.649C47.5549 507.348 47.3276 507.11 47.0378 506.937C46.748 506.764 46.4171 506.676 46.0449 506.673C45.7779 506.67 45.5037 506.711 45.2225 506.796C44.9412 506.879 44.7097 506.985 44.5279 507.116L43.5392 506.997L44.0676 502.701H48.6017V503.639H44.954L44.6472 506.213H44.6983C44.8773 506.071 45.1017 505.953 45.3716 505.859C45.6415 505.765 45.9228 505.718 46.2154 505.718C46.7495 505.718 47.2253 505.846 47.6429 506.102C48.0634 506.355 48.3929 506.701 48.6316 507.142C48.873 507.582 48.9938 508.085 48.9938 508.65C48.9938 509.207 48.8688 509.704 48.6188 510.142C48.3716 510.576 48.0307 510.92 47.5961 511.173C47.1614 511.423 46.6671 511.548 46.1131 511.548Z" fill="white"/>
<rect width="85" height="26" transform="translate(0 518)" fill="#DE3831"/>
<rect x="0.5" y="518.5" width="84" height="25" stroke="black"/>
<path d="M36.0265 535.714V534.947L38.9071 531.794C39.2452 531.425 39.5236 531.103 39.7424 530.831C39.9611 530.555 40.123 530.297 40.2282 530.055C40.3361 529.811 40.3901 529.555 40.3901 529.288C40.3901 528.981 40.3162 528.716 40.1685 528.491C40.0236 528.267 39.8248 528.094 39.5719 527.971C39.3191 527.849 39.035 527.788 38.7196 527.788C38.3844 527.788 38.0918 527.858 37.8418 527.997C37.5946 528.133 37.4029 528.325 37.2665 528.572C37.133 528.819 37.0662 529.109 37.0662 529.442H36.0605C36.0605 528.93 36.1784 528.481 36.4142 528.095C36.65 527.709 36.9711 527.407 37.3773 527.192C37.7864 526.976 38.2452 526.868 38.7537 526.868C39.2651 526.868 39.7182 526.976 40.1131 527.192C40.508 527.407 40.8176 527.699 41.0421 528.065C41.2665 528.432 41.3787 528.839 41.3787 529.288C41.3787 529.609 41.3205 529.923 41.204 530.23C41.0904 530.534 40.8915 530.873 40.6074 531.248C40.3262 531.621 39.9355 532.075 39.4355 532.612L37.4753 534.709V534.777H41.5321V535.714H36.0265ZM46.1898 535.834C45.8319 535.828 45.4739 535.76 45.1159 535.629C44.758 535.498 44.4313 535.278 44.1358 534.969C43.8404 534.656 43.6032 534.234 43.4242 533.703C43.2452 533.169 43.1557 532.498 43.1557 531.692C43.1557 530.919 43.2282 530.234 43.373 529.638C43.5179 529.038 43.7282 528.534 44.0037 528.125C44.2793 527.713 44.6117 527.4 45.0009 527.187C45.3929 526.974 45.8347 526.868 46.3262 526.868C46.8148 526.868 47.2495 526.966 47.6301 527.162C48.0137 527.355 48.3262 527.625 48.5676 527.971C48.8091 528.318 48.9654 528.717 49.0364 529.169H47.9966C47.9 528.777 47.7125 528.451 47.4341 528.193C47.1557 527.934 46.7864 527.805 46.3262 527.805C45.65 527.805 45.1174 528.099 44.7282 528.687C44.3418 529.275 44.1472 530.101 44.1444 531.163H44.2125C44.3716 530.922 44.5605 530.716 44.7793 530.545C45.0009 530.372 45.2452 530.238 45.5123 530.145C45.7793 530.051 46.062 530.004 46.3603 530.004C46.8603 530.004 47.3176 530.129 47.7324 530.379C48.1472 530.626 48.4796 530.969 48.7296 531.406C48.9796 531.841 49.1046 532.339 49.1046 532.902C49.1046 533.442 48.9838 533.936 48.7424 534.385C48.5009 534.831 48.1614 535.186 47.7239 535.45C47.2892 535.711 46.7779 535.839 46.1898 535.834ZM46.1898 534.896C46.5478 534.896 46.8688 534.807 47.1529 534.628C47.4398 534.449 47.6657 534.209 47.8304 533.907C47.998 533.606 48.0819 533.271 48.0819 532.902C48.0819 532.541 48.0009 532.213 47.839 531.917C47.6799 531.619 47.4597 531.382 47.1784 531.206C46.9 531.03 46.5819 530.942 46.2239 530.942C45.954 530.942 45.7026 530.996 45.4696 531.103C45.2367 531.209 45.0321 531.353 44.856 531.538C44.6827 531.723 44.5463 531.934 44.4469 532.173C44.3475 532.409 44.2978 532.657 44.2978 532.919C44.2978 533.265 44.3787 533.589 44.5407 533.89C44.7054 534.192 44.9299 534.434 45.214 534.619C45.5009 534.804 45.8262 534.896 46.1898 534.896Z" fill="white"/>
<rect width="85" height="24" transform="translate(0 543)" fill="#DE3831"/>
<rect x="0.5" y="543.5" width="84" height="23" stroke="black"/>
<path d="M36.3429 559.429V558.662L39.2235 555.508C39.5616 555.139 39.84 554.818 40.0588 554.545C40.2775 554.269 40.4395 554.011 40.5446 553.769C40.6525 553.525 40.7065 553.269 40.7065 553.002C40.7065 552.696 40.6326 552.43 40.4849 552.206C40.34 551.981 40.1412 551.808 39.8883 551.686C39.6355 551.564 39.3514 551.502 39.036 551.502C38.7008 551.502 38.4082 551.572 38.1582 551.711C37.911 551.848 37.7193 552.039 37.5829 552.287C37.4494 552.534 37.3826 552.823 37.3826 553.156H36.377C36.377 552.644 36.4949 552.196 36.7306 551.809C36.9664 551.423 37.2875 551.122 37.6937 550.906C38.1028 550.69 38.5616 550.582 39.0701 550.582C39.5815 550.582 40.0346 550.69 40.4295 550.906C40.8244 551.122 41.1341 551.413 41.3585 551.779C41.5829 552.146 41.6951 552.554 41.6951 553.002C41.6951 553.323 41.6369 553.637 41.5204 553.944C41.4068 554.248 41.2079 554.588 40.9238 554.963C40.6426 555.335 40.252 555.789 39.752 556.326L37.7917 558.423V558.491H41.8485V559.429H36.3429ZM43.8812 559.429L47.7846 551.707V551.639H43.2846V550.701H48.8755V551.69L44.9892 559.429H43.8812Z" fill="white"/>
<rect width="85" height="25" transform="translate(0 566)" fill="#DE3831"/>
<rect x="0.5" y="566.5" width="84" height="24" stroke="black"/>
<path d="M36.0733 582.571V581.804L38.954 578.651C39.2921 578.282 39.5705 577.961 39.7892 577.688C40.008 577.412 40.1699 577.154 40.275 576.912C40.383 576.668 40.437 576.412 40.437 576.145C40.437 575.838 40.3631 575.573 40.2154 575.348C40.0705 575.124 39.8716 574.951 39.6188 574.829C39.3659 574.706 39.0819 574.645 38.7665 574.645C38.4313 574.645 38.1387 574.715 37.8887 574.854C37.6415 574.99 37.4498 575.182 37.3134 575.429C37.1799 575.677 37.1131 575.966 37.1131 576.299H36.1074C36.1074 575.787 36.2253 575.338 36.4611 574.952C36.6969 574.566 37.0179 574.265 37.4242 574.049C37.8333 573.833 38.2921 573.725 38.8006 573.725C39.312 573.725 39.7651 573.833 40.16 574.049C40.5549 574.265 40.8645 574.556 41.089 574.922C41.3134 575.289 41.4256 575.696 41.4256 576.145C41.4256 576.466 41.3674 576.78 41.2509 577.087C41.1373 577.391 40.9384 577.731 40.6543 578.106C40.373 578.478 39.9824 578.932 39.4824 579.469L37.5222 581.566V581.634H41.579V582.571H36.0733ZM46.1344 582.691C45.5492 582.691 45.0321 582.587 44.5833 582.38C44.1373 582.169 43.7892 581.881 43.5392 581.515C43.2892 581.145 43.1657 580.725 43.1685 580.253C43.1657 579.884 43.2381 579.543 43.3858 579.231C43.5336 578.915 43.7353 578.652 43.9909 578.442C44.2495 578.229 44.5378 578.094 44.856 578.037V577.986C44.4384 577.878 44.106 577.644 43.8588 577.283C43.6117 576.919 43.4895 576.506 43.4924 576.043C43.4895 575.6 43.6017 575.204 43.829 574.854C44.0563 574.505 44.3688 574.229 44.7665 574.027C45.1671 573.826 45.623 573.725 46.1344 573.725C46.6401 573.725 47.0918 573.826 47.4895 574.027C47.8873 574.229 48.1998 574.505 48.427 574.854C48.6571 575.204 48.7736 575.6 48.7765 576.043C48.7736 576.506 48.6472 576.919 48.3972 577.283C48.15 577.644 47.8219 577.878 47.4128 577.986V578.037C47.7282 578.094 48.0123 578.229 48.2651 578.442C48.5179 578.652 48.7196 578.915 48.8702 579.231C49.0208 579.543 49.0975 579.884 49.1003 580.253C49.0975 580.725 48.9696 581.145 48.7168 581.515C48.4668 581.881 48.1188 582.169 47.6728 582.38C47.2296 582.587 46.7168 582.691 46.1344 582.691ZM46.1344 581.753C46.5293 581.753 46.8702 581.689 47.1571 581.561C47.4441 581.434 47.6657 581.253 47.8219 581.02C47.9782 580.787 48.0577 580.515 48.0605 580.202C48.0577 579.873 47.9725 579.581 47.8049 579.329C47.6373 579.076 47.4086 578.877 47.1188 578.732C46.8319 578.587 46.5037 578.515 46.1344 578.515C45.7623 578.515 45.4299 578.587 45.1373 578.732C44.8475 578.877 44.6188 579.076 44.4512 579.329C44.2864 579.581 44.2054 579.873 44.2083 580.202C44.2054 580.515 44.2807 580.787 44.4341 581.02C44.5904 581.253 44.8134 581.434 45.1032 581.561C45.3929 581.689 45.7367 581.753 46.1344 581.753ZM46.1344 577.611C46.4469 577.611 46.7239 577.549 46.9654 577.424C47.2097 577.299 47.4015 577.124 47.5407 576.9C47.6799 576.675 47.7509 576.412 47.7537 576.111C47.7509 575.816 47.6813 575.559 47.5449 575.34C47.4086 575.118 47.2196 574.948 46.9782 574.829C46.7367 574.706 46.4554 574.645 46.1344 574.645C45.8077 574.645 45.5222 574.706 45.2779 574.829C45.0336 574.948 44.8446 575.118 44.7111 575.34C44.5776 575.559 44.5123 575.816 44.5151 576.111C44.5123 576.412 44.579 576.675 44.7154 576.9C44.8546 577.124 45.0463 577.299 45.2907 577.424C45.535 577.549 45.8162 577.611 46.1344 577.611Z" fill="white"/>
<rect width="85" height="24" transform="translate(0 590)" fill="#007A4D"/>
<rect x="0.5" y="590.5" width="84" height="23" stroke="black"/>
<path d="M36.0265 606.429V605.662L38.9071 602.508C39.2452 602.139 39.5236 601.818 39.7424 601.545C39.9611 601.269 40.123 601.011 40.2282 600.769C40.3361 600.525 40.3901 600.269 40.3901 600.002C40.3901 599.696 40.3162 599.43 40.1685 599.206C40.0236 598.981 39.8248 598.808 39.5719 598.686C39.3191 598.564 39.035 598.502 38.7196 598.502C38.3844 598.502 38.0918 598.572 37.8418 598.711C37.5946 598.848 37.4029 599.039 37.2665 599.287C37.133 599.534 37.0662 599.823 37.0662 600.156H36.0605C36.0605 599.644 36.1784 599.196 36.4142 598.809C36.65 598.423 36.9711 598.122 37.3773 597.906C37.7864 597.69 38.2452 597.582 38.7537 597.582C39.2651 597.582 39.7182 597.69 40.1131 597.906C40.508 598.122 40.8176 598.413 41.0421 598.779C41.2665 599.146 41.3787 599.554 41.3787 600.002C41.3787 600.323 41.3205 600.637 41.204 600.944C41.0904 601.248 40.8915 601.588 40.6074 601.963C40.3262 602.335 39.9355 602.789 39.4355 603.326L37.4753 605.423V605.491H41.5321V606.429H36.0265ZM46.0705 597.582C46.4284 597.585 46.7864 597.653 47.1444 597.787C47.5023 597.92 47.829 598.142 48.1245 598.451C48.4199 598.758 48.6571 599.177 48.8361 599.708C49.0151 600.24 49.1046 600.906 49.1046 601.707C49.1046 602.483 49.0307 603.171 48.883 603.774C48.7381 604.373 48.5279 604.879 48.2523 605.291C47.9796 605.703 47.6472 606.015 47.2551 606.228C46.8659 606.441 46.4256 606.548 45.9341 606.548C45.4455 606.548 45.0094 606.451 44.6259 606.258C44.2452 606.062 43.9327 605.791 43.6884 605.444C43.4469 605.095 43.2921 604.69 43.2239 604.23H44.2637C44.3574 604.63 44.5435 604.961 44.8219 605.223C45.1032 605.481 45.4739 605.61 45.9341 605.61C46.6074 605.61 47.1387 605.316 47.5279 604.728C47.9199 604.14 48.1159 603.309 48.1159 602.235H48.0478C47.8887 602.474 47.6998 602.68 47.481 602.853C47.2623 603.027 47.0194 603.16 46.7523 603.254C46.4853 603.348 46.2012 603.394 45.9 603.394C45.4 603.394 44.9412 603.271 44.5236 603.024C44.1088 602.774 43.7765 602.431 43.5265 601.997C43.2793 601.559 43.1557 601.059 43.1557 600.497C43.1557 599.963 43.275 599.474 43.5137 599.031C43.7551 598.585 44.0932 598.23 44.5279 597.966C44.9654 597.701 45.4796 597.573 46.0705 597.582ZM46.0705 598.519C45.7125 598.519 45.3901 598.609 45.1032 598.788C44.8191 598.964 44.5932 599.203 44.4256 599.504C44.2608 599.802 44.1784 600.133 44.1784 600.497C44.1784 600.86 44.258 601.191 44.4171 601.49C44.579 601.785 44.7992 602.021 45.0776 602.197C45.3588 602.37 45.6784 602.457 46.0364 602.457C46.3063 602.457 46.5577 602.404 46.7907 602.299C47.0236 602.191 47.2267 602.045 47.4 601.86C47.5762 601.673 47.714 601.461 47.8134 601.225C47.9128 600.987 47.9625 600.738 47.9625 600.48C47.9625 600.139 47.8801 599.819 47.7154 599.521C47.5534 599.223 47.329 598.981 47.0421 598.796C46.758 598.612 46.4341 598.519 46.0705 598.519Z" fill="white"/>
<rect width="85" height="25" transform="translate(0 613)" fill="#007A4D"/>
<rect x="0.5" y="613.5" width="84" height="24" stroke="black"/>
<path d="M38.782 629.691C38.2195 629.691 37.718 629.594 37.2777 629.401C36.8402 629.208 36.4922 628.939 36.2337 628.596C35.978 628.249 35.8388 627.847 35.8161 627.39H36.8899C36.9126 627.671 37.0092 627.914 37.1797 628.118C37.3501 628.32 37.5732 628.476 37.8487 628.587C38.1243 628.698 38.4297 628.753 38.7649 628.753C39.1399 628.753 39.4723 628.688 39.7621 628.557C40.0518 628.427 40.2791 628.245 40.4439 628.012C40.6087 627.779 40.6911 627.509 40.6911 627.202C40.6911 626.881 40.6115 626.598 40.4524 626.354C40.2933 626.107 40.0604 625.914 39.7536 625.775C39.4467 625.635 39.0717 625.566 38.6286 625.566H37.9297V624.628H38.6286C38.9751 624.628 39.2791 624.566 39.5405 624.441C39.8047 624.316 40.0107 624.14 40.1584 623.912C40.3089 623.685 40.3842 623.418 40.3842 623.111C40.3842 622.816 40.3189 622.559 40.1882 622.34C40.0575 622.121 39.8729 621.951 39.6342 621.829C39.3984 621.706 39.12 621.645 38.799 621.645C38.4979 621.645 38.2138 621.701 37.9467 621.811C37.6825 621.919 37.4666 622.077 37.299 622.284C37.1314 622.489 37.0405 622.736 37.0263 623.026H36.0036C36.0206 622.569 36.1584 622.168 36.4169 621.824C36.6754 621.478 37.0135 621.208 37.4311 621.015C37.8516 620.821 38.3132 620.725 38.8161 620.725C39.3558 620.725 39.8189 620.834 40.2053 621.053C40.5916 621.269 40.8885 621.554 41.0959 621.909C41.3033 622.265 41.407 622.648 41.407 623.06C41.407 623.552 41.2777 623.971 41.0192 624.317C40.7635 624.664 40.4155 624.904 39.9751 625.037V625.106C40.5263 625.196 40.9567 625.431 41.2663 625.809C41.576 626.184 41.7308 626.648 41.7308 627.202C41.7308 627.677 41.6016 628.103 41.343 628.481C41.0874 628.856 40.7379 629.151 40.2947 629.367C39.8516 629.583 39.3473 629.691 38.782 629.691ZM46.3203 629.691C45.6783 629.691 45.1314 629.516 44.6797 629.167C44.228 628.814 43.8828 628.304 43.6442 627.637C43.4055 626.966 43.2862 626.157 43.2862 625.208C43.2862 624.265 43.4055 623.459 43.6442 622.792C43.8857 622.121 44.2322 621.61 44.6839 621.258C45.1385 620.902 45.6839 620.725 46.3203 620.725C46.9567 620.725 47.5007 620.902 47.9524 621.258C48.407 621.61 48.7536 622.121 48.9922 622.792C49.2337 623.459 49.3544 624.265 49.3544 625.208C49.3544 626.157 49.2351 626.966 48.9964 627.637C48.7578 628.304 48.4126 628.814 47.9609 629.167C47.5092 629.516 46.9624 629.691 46.3203 629.691ZM46.3203 628.753C46.9567 628.753 47.451 628.446 47.8033 627.833C48.1555 627.219 48.3317 626.344 48.3317 625.208C48.3317 624.452 48.2507 623.809 48.0888 623.277C47.9297 622.746 47.6996 622.341 47.3984 622.063C47.1001 621.784 46.7408 621.645 46.3203 621.645C45.6896 621.645 45.1967 621.956 44.8416 622.579C44.4865 623.198 44.3089 624.074 44.3089 625.208C44.3089 625.963 44.3885 626.606 44.5476 627.134C44.7067 627.662 44.9354 628.064 45.2337 628.34C45.5348 628.615 45.897 628.753 46.3203 628.753Z" fill="white"/>
<rect width="85" height="25" transform="translate(0 636)" fill="#007A4D"/>
<rect x="0.5" y="636.5" width="84" height="24" stroke="black"/>
<path d="M39.7429 652.691C39.1804 652.691 38.679 652.594 38.2386 652.401C37.8011 652.208 37.4531 651.939 37.1946 651.596C36.9389 651.249 36.7997 650.847 36.777 650.39H37.8509C37.8736 650.671 37.9702 650.914 38.1406 651.118C38.3111 651.32 38.5341 651.476 38.8097 651.587C39.0852 651.698 39.3906 651.753 39.7259 651.753C40.1009 651.753 40.4332 651.688 40.723 651.557C41.0128 651.427 41.2401 651.245 41.4048 651.012C41.5696 650.779 41.652 650.509 41.652 650.202C41.652 649.881 41.5724 649.598 41.4134 649.354C41.2543 649.107 41.0213 648.914 40.7145 648.775C40.4077 648.635 40.0327 648.566 39.5895 648.566H38.8906V647.628H39.5895C39.9361 647.628 40.2401 647.566 40.5014 647.441C40.7656 647.316 40.9716 647.14 41.1193 646.912C41.2699 646.685 41.3452 646.418 41.3452 646.111C41.3452 645.816 41.2798 645.559 41.1491 645.34C41.0185 645.121 40.8338 644.951 40.5952 644.829C40.3594 644.706 40.081 644.645 39.7599 644.645C39.4588 644.645 39.1747 644.701 38.9077 644.811C38.6435 644.919 38.4276 645.077 38.2599 645.285C38.0923 645.489 38.0014 645.736 37.9872 646.026H36.9645C36.9815 645.569 37.1193 645.168 37.3778 644.824C37.6364 644.478 37.9744 644.208 38.392 644.015C38.8125 643.821 39.2741 643.725 39.777 643.725C40.3168 643.725 40.7798 643.834 41.1662 644.053C41.5526 644.269 41.8494 644.554 42.0568 644.91C42.2642 645.265 42.3679 645.648 42.3679 646.06C42.3679 646.552 42.2386 646.971 41.9801 647.317C41.7244 647.664 41.3764 647.904 40.9361 648.037V648.106C41.4872 648.196 41.9176 648.431 42.2273 648.809C42.5369 649.184 42.6918 649.648 42.6918 650.202C42.6918 650.677 42.5625 651.103 42.304 651.481C42.0483 651.856 41.6989 652.151 41.2557 652.367C40.8125 652.583 40.3082 652.691 39.7429 652.691ZM47.5028 643.844V652.571H46.446V644.952H46.3949L44.2642 646.367V645.293L46.446 643.844H47.5028Z" fill="white"/>
<rect width="85" height="24" transform="translate(0 660)" fill="#007A4D"/>
<rect x="0.5" y="660.5" width="84" height="23" stroke="black"/>
<path d="M38.8991 676.548C38.3366 676.548 37.8352 676.451 37.3949 676.258C36.9574 676.065 36.6094 675.796 36.3509 675.453C36.0952 675.106 35.956 674.704 35.9332 674.247H37.0071C37.0298 674.528 37.1264 674.771 37.2969 674.975C37.4673 675.177 37.6903 675.333 37.9659 675.444C38.2415 675.555 38.5469 675.61 38.8821 675.61C39.2571 675.61 39.5895 675.545 39.8793 675.414C40.169 675.284 40.3963 675.102 40.5611 674.869C40.7259 674.636 40.8082 674.366 40.8082 674.059C40.8082 673.738 40.7287 673.456 40.5696 673.211C40.4105 672.964 40.1776 672.771 39.8707 672.632C39.5639 672.492 39.1889 672.423 38.7457 672.423H38.0469V671.485H38.7457C39.0923 671.485 39.3963 671.423 39.6577 671.298C39.9219 671.173 40.1278 670.997 40.2756 670.769C40.4261 670.542 40.5014 670.275 40.5014 669.968C40.5014 669.673 40.4361 669.416 40.3054 669.197C40.1747 668.978 39.9901 668.808 39.7514 668.686C39.5156 668.564 39.2372 668.502 38.9162 668.502C38.6151 668.502 38.331 668.558 38.0639 668.669C37.7997 668.777 37.5838 668.934 37.4162 669.142C37.2486 669.346 37.1577 669.593 37.1435 669.883H36.1207C36.1378 669.426 36.2756 669.025 36.5341 668.681C36.7926 668.335 37.1307 668.065 37.5483 667.872C37.9688 667.679 38.4304 667.582 38.9332 667.582C39.473 667.582 39.9361 667.691 40.3224 667.91C40.7088 668.126 41.0057 668.412 41.2131 668.767C41.4205 669.122 41.5241 669.505 41.5241 669.917C41.5241 670.409 41.3949 670.828 41.1364 671.174C40.8807 671.521 40.5327 671.761 40.0923 671.894V671.963C40.6435 672.054 41.0739 672.288 41.3835 672.666C41.6932 673.041 41.848 673.505 41.848 674.059C41.848 674.534 41.7188 674.96 41.4602 675.338C41.2045 675.713 40.8551 676.008 40.4119 676.224C39.9688 676.44 39.4645 676.548 38.8991 676.548ZM43.5909 676.429V675.662L46.4716 672.508C46.8097 672.139 47.0881 671.818 47.3068 671.545C47.5256 671.269 47.6875 671.011 47.7926 670.769C47.9006 670.525 47.9545 670.269 47.9545 670.002C47.9545 669.696 47.8807 669.43 47.733 669.206C47.5881 668.981 47.3892 668.808 47.1364 668.686C46.8835 668.564 46.5994 668.502 46.2841 668.502C45.9489 668.502 45.6562 668.572 45.4062 668.711C45.1591 668.848 44.9673 669.039 44.831 669.287C44.6974 669.534 44.6307 669.823 44.6307 670.156H43.625C43.625 669.644 43.7429 669.196 43.9787 668.809C44.2145 668.423 44.5355 668.122 44.9418 667.906C45.3509 667.69 45.8097 667.582 46.3182 667.582C46.8295 667.582 47.2827 667.69 47.6776 667.906C48.0724 668.122 48.3821 668.413 48.6065 668.779C48.831 669.146 48.9432 669.554 48.9432 670.002C48.9432 670.323 48.8849 670.637 48.7685 670.944C48.6548 671.248 48.456 671.588 48.1719 671.963C47.8906 672.335 47.5 672.789 47 673.326L45.0398 675.423V675.491H49.0966V676.429H43.5909Z" fill="white"/>
<rect width="85" height="24" transform="translate(0 683)" fill="#DE3831"/>
<rect x="0.5" y="683.5" width="84" height="23" stroke="black"/>
<path d="M38.7116 699.548C38.1491 699.548 37.6477 699.451 37.2074 699.258C36.7699 699.065 36.4219 698.796 36.1634 698.453C35.9077 698.106 35.7685 697.704 35.7457 697.247H36.8196C36.8423 697.528 36.9389 697.771 37.1094 697.975C37.2798 698.177 37.5028 698.333 37.7784 698.444C38.054 698.555 38.3594 698.61 38.6946 698.61C39.0696 698.61 39.402 698.545 39.6918 698.414C39.9815 698.284 40.2088 698.102 40.3736 697.869C40.5384 697.636 40.6207 697.366 40.6207 697.059C40.6207 696.738 40.5412 696.456 40.3821 696.211C40.223 695.964 39.9901 695.771 39.6832 695.632C39.3764 695.492 39.0014 695.423 38.5582 695.423H37.8594V694.485H38.5582C38.9048 694.485 39.2088 694.423 39.4702 694.298C39.7344 694.173 39.9403 693.997 40.0881 693.769C40.2386 693.542 40.3139 693.275 40.3139 692.968C40.3139 692.673 40.2486 692.416 40.1179 692.197C39.9872 691.978 39.8026 691.808 39.5639 691.686C39.3281 691.564 39.0497 691.502 38.7287 691.502C38.4276 691.502 38.1435 691.558 37.8764 691.669C37.6122 691.777 37.3963 691.934 37.2287 692.142C37.0611 692.346 36.9702 692.593 36.956 692.883H35.9332C35.9503 692.426 36.0881 692.025 36.3466 691.681C36.6051 691.335 36.9432 691.065 37.3608 690.872C37.7813 690.679 38.2429 690.582 38.7457 690.582C39.2855 690.582 39.7486 690.691 40.1349 690.91C40.5213 691.126 40.8182 691.412 41.0256 691.767C41.233 692.122 41.3366 692.505 41.3366 692.917C41.3366 693.409 41.2074 693.828 40.9489 694.174C40.6932 694.521 40.3452 694.761 39.9048 694.894V694.963C40.456 695.054 40.8864 695.288 41.196 695.666C41.5057 696.041 41.6605 696.505 41.6605 697.059C41.6605 697.534 41.5313 697.96 41.2727 698.338C41.017 698.713 40.6676 699.008 40.2244 699.224C39.7813 699.44 39.277 699.548 38.7116 699.548ZM46.3523 699.548C45.7898 699.548 45.2884 699.451 44.848 699.258C44.4105 699.065 44.0625 698.796 43.804 698.453C43.5483 698.106 43.4091 697.704 43.3864 697.247H44.4602C44.483 697.528 44.5795 697.771 44.75 697.975C44.9205 698.177 45.1435 698.333 45.419 698.444C45.6946 698.555 46 698.61 46.3352 698.61C46.7102 698.61 47.0426 698.545 47.3324 698.414C47.6222 698.284 47.8494 698.102 48.0142 697.869C48.179 697.636 48.2614 697.366 48.2614 697.059C48.2614 696.738 48.1818 696.456 48.0227 696.211C47.8636 695.964 47.6307 695.771 47.3239 695.632C47.017 695.492 46.642 695.423 46.1989 695.423H45.5V694.485H46.1989C46.5455 694.485 46.8494 694.423 47.1108 694.298C47.375 694.173 47.581 693.997 47.7287 693.769C47.8793 693.542 47.9545 693.275 47.9545 692.968C47.9545 692.673 47.8892 692.416 47.7585 692.197C47.6278 691.978 47.4432 691.808 47.2045 691.686C46.9688 691.564 46.6903 691.502 46.3693 691.502C46.0682 691.502 45.7841 691.558 45.517 691.669C45.2528 691.777 45.0369 691.934 44.8693 692.142C44.7017 692.346 44.6108 692.593 44.5966 692.883H43.5739C43.5909 692.426 43.7287 692.025 43.9872 691.681C44.2457 691.335 44.5838 691.065 45.0014 690.872C45.4219 690.679 45.8835 690.582 46.3864 690.582C46.9261 690.582 47.3892 690.691 47.7756 690.91C48.1619 691.126 48.4588 691.412 48.6662 691.767C48.8736 692.122 48.9773 692.505 48.9773 692.917C48.9773 693.409 48.848 693.828 48.5895 694.174C48.3338 694.521 47.9858 694.761 47.5455 694.894V694.963C48.0966 695.054 48.527 695.288 48.8366 695.666C49.1463 696.041 49.3011 696.505 49.3011 697.059C49.3011 697.534 49.1719 697.96 48.9134 698.338C48.6577 698.713 48.3082 699.008 47.8651 699.224C47.4219 699.44 46.9176 699.548 46.3523 699.548Z" fill="white"/>
<rect width="85" height="24" transform="translate(0 706)" fill="#DE3831"/>
<rect x="0.5" y="706.5" width="84" height="23" stroke="black"/>
<path d="M38.6824 722.548C38.1199 722.548 37.6184 722.451 37.1781 722.258C36.7406 722.065 36.3926 721.796 36.1341 721.453C35.8784 721.106 35.7392 720.704 35.7164 720.247H36.7903C36.813 720.528 36.9096 720.771 37.0801 720.975C37.2505 721.177 37.4735 721.333 37.7491 721.444C38.0247 721.555 38.3301 721.61 38.6653 721.61C39.0403 721.61 39.3727 721.545 39.6625 721.414C39.9522 721.284 40.1795 721.102 40.3443 720.869C40.5091 720.636 40.5914 720.366 40.5914 720.059C40.5914 719.738 40.5119 719.456 40.3528 719.211C40.1937 718.964 39.9608 718.771 39.6539 718.632C39.3471 718.492 38.9721 718.423 38.5289 718.423H37.8301V717.485H38.5289C38.8755 717.485 39.1795 717.423 39.4409 717.298C39.7051 717.173 39.911 716.997 40.0588 716.769C40.2093 716.542 40.2846 716.275 40.2846 715.968C40.2846 715.673 40.2193 715.416 40.0886 715.197C39.9579 714.978 39.7733 714.808 39.5346 714.686C39.2988 714.564 39.0204 714.502 38.6994 714.502C38.3983 714.502 38.1142 714.558 37.8471 714.669C37.5829 714.777 37.367 714.934 37.1994 715.142C37.0318 715.346 36.9409 715.593 36.9267 715.883H35.9039C35.921 715.426 36.0588 715.025 36.3173 714.681C36.5758 714.335 36.9139 714.065 37.3315 713.872C37.752 713.679 38.2136 713.582 38.7164 713.582C39.2562 713.582 39.7193 713.691 40.1056 713.91C40.492 714.126 40.7889 714.412 40.9963 714.767C41.2037 715.122 41.3074 715.505 41.3074 715.917C41.3074 716.409 41.1781 716.828 40.9196 717.174C40.6639 717.521 40.3159 717.761 39.8755 717.894V717.963C40.4267 718.054 40.8571 718.288 41.1667 718.666C41.4764 719.041 41.6312 719.505 41.6312 720.059C41.6312 720.534 41.502 720.96 41.2434 721.338C40.9877 721.713 40.6383 722.008 40.1951 722.224C39.752 722.44 39.2477 722.548 38.6824 722.548ZM43.1696 720.639V719.769L47.0048 713.701H47.6355V715.048H47.2093L44.3116 719.633V719.701H49.4764V720.639H43.1696ZM47.2775 722.429V720.375V719.97V713.701H48.2832V722.429H47.2775Z" fill="white"/>
<rect width="85" height="25" transform="translate(0 729)" fill="#DE3831"/>
<rect x="0.5" y="729.5" width="84" height="24" stroke="black"/>
<path d="M38.8816 745.691C38.3191 745.691 37.8176 745.594 37.3773 745.401C36.9398 745.208 36.5918 744.939 36.3333 744.596C36.0776 744.249 35.9384 743.847 35.9157 743.39H36.9895C37.0123 743.671 37.1088 743.914 37.2793 744.118C37.4498 744.32 37.6728 744.476 37.9483 744.587C38.2239 744.698 38.5293 744.753 38.8645 744.753C39.2395 744.753 39.5719 744.688 39.8617 744.557C40.1515 744.427 40.3787 744.245 40.5435 744.012C40.7083 743.779 40.7907 743.509 40.7907 743.202C40.7907 742.881 40.7111 742.598 40.552 742.354C40.3929 742.107 40.16 741.914 39.8532 741.775C39.5463 741.635 39.1713 741.566 38.7282 741.566H38.0293V740.628H38.7282C39.0748 740.628 39.3787 740.566 39.6401 740.441C39.9043 740.316 40.1103 740.14 40.258 739.912C40.4086 739.685 40.4838 739.418 40.4838 739.111C40.4838 738.816 40.4185 738.559 40.2878 738.34C40.1571 738.121 39.9725 737.951 39.7338 737.829C39.498 737.706 39.2196 737.645 38.8986 737.645C38.5975 737.645 38.3134 737.701 38.0463 737.811C37.7821 737.919 37.5662 738.077 37.3986 738.285C37.231 738.489 37.1401 738.736 37.1259 739.026H36.1032C36.1202 738.569 36.258 738.168 36.5165 737.824C36.775 737.478 37.1131 737.208 37.5307 737.015C37.9512 736.821 38.4128 736.725 38.9157 736.725C39.4554 736.725 39.9185 736.834 40.3049 737.053C40.6912 737.269 40.9881 737.554 41.1955 737.91C41.4029 738.265 41.5066 738.648 41.5066 739.06C41.5066 739.552 41.3773 739.971 41.1188 740.317C40.8631 740.664 40.5151 740.904 40.0748 741.037V741.106C40.6259 741.196 41.0563 741.431 41.3659 741.809C41.6756 742.184 41.8304 742.648 41.8304 743.202C41.8304 743.677 41.7012 744.103 41.4426 744.481C41.187 744.856 40.8375 745.151 40.3944 745.367C39.9512 745.583 39.4469 745.691 38.8816 745.691ZM46.3006 745.691C45.8006 745.691 45.3503 745.591 44.9498 745.392C44.5492 745.194 44.2282 744.921 43.9867 744.574C43.7452 744.228 43.6131 743.833 43.5904 743.39H44.6131C44.6529 743.785 44.8319 744.111 45.15 744.37C45.4711 744.625 45.8546 744.753 46.3006 744.753C46.6586 744.753 46.9767 744.669 47.2551 744.502C47.5364 744.334 47.7566 744.104 47.9157 743.811C48.0776 743.516 48.1586 743.182 48.1586 742.81C48.1586 742.429 48.0748 742.09 47.9071 741.792C47.7424 741.49 47.5151 741.253 47.2253 741.08C46.9355 740.907 46.6046 740.819 46.2324 740.816C45.9654 740.813 45.6912 740.854 45.41 740.939C45.1287 741.022 44.8972 741.128 44.7154 741.259L43.7267 741.14L44.2551 736.844H48.7892V737.782H45.1415L44.8347 740.356H44.8858C45.0648 740.213 45.2892 740.096 45.5591 740.002C45.829 739.908 46.1103 739.861 46.4029 739.861C46.937 739.861 47.4128 739.989 47.8304 740.245C48.2509 740.498 48.5804 740.844 48.8191 741.285C49.0605 741.725 49.1813 742.228 49.1813 742.793C49.1813 743.35 49.0563 743.847 48.8063 744.285C48.5591 744.719 48.2182 745.063 47.7836 745.316C47.3489 745.566 46.8546 745.691 46.3006 745.691Z" fill="white"/>
<rect width="85" height="25" transform="translate(0 753)" fill="#DE3831"/>
<rect x="0.5" y="753.5" width="84" height="24" stroke="black"/>
<path d="M38.7878 769.691C38.2253 769.691 37.7239 769.594 37.2836 769.401C36.8461 769.208 36.498 768.939 36.2395 768.596C35.9838 768.249 35.8446 767.847 35.8219 767.39H36.8958C36.9185 767.671 37.0151 767.914 37.1855 768.118C37.356 768.32 37.579 768.476 37.8546 768.587C38.1301 768.698 38.4355 768.753 38.7708 768.753C39.1458 768.753 39.4782 768.688 39.7679 768.557C40.0577 768.427 40.285 768.245 40.4498 768.012C40.6145 767.779 40.6969 767.509 40.6969 767.202C40.6969 766.881 40.6174 766.598 40.4583 766.354C40.2992 766.107 40.0662 765.914 39.7594 765.775C39.4526 765.635 39.0776 765.566 38.6344 765.566H37.9355V764.628H38.6344C38.981 764.628 39.285 764.566 39.5463 764.441C39.8105 764.316 40.0165 764.14 40.1642 763.912C40.3148 763.685 40.3901 763.418 40.3901 763.111C40.3901 762.816 40.3248 762.559 40.1941 762.34C40.0634 762.121 39.8787 761.951 39.6401 761.829C39.4043 761.706 39.1259 761.645 38.8049 761.645C38.5037 761.645 38.2196 761.701 37.9526 761.811C37.6884 761.919 37.4725 762.077 37.3049 762.285C37.1373 762.489 37.0463 762.736 37.0321 763.026H36.0094C36.0265 762.569 36.1642 762.168 36.4228 761.824C36.6813 761.478 37.0194 761.208 37.437 761.015C37.8574 760.821 38.3191 760.725 38.8219 760.725C39.3617 760.725 39.8248 760.834 40.2111 761.053C40.5975 761.269 40.8944 761.554 41.1017 761.91C41.3091 762.265 41.4128 762.648 41.4128 763.06C41.4128 763.552 41.2836 763.971 41.025 764.317C40.7694 764.664 40.4213 764.904 39.981 765.037V765.106C40.5321 765.196 40.9625 765.431 41.2722 765.809C41.5819 766.184 41.7367 766.648 41.7367 767.202C41.7367 767.677 41.6074 768.103 41.3489 768.481C41.0932 768.856 40.7438 769.151 40.3006 769.367C39.8574 769.583 39.3532 769.691 38.7878 769.691ZM46.3773 769.691C46.0194 769.685 45.6614 769.617 45.3034 769.486C44.9455 769.356 44.6188 769.135 44.3233 768.826C44.0279 768.513 43.7907 768.091 43.6117 767.56C43.4327 767.026 43.3432 766.356 43.3432 765.549C43.3432 764.776 43.4157 764.091 43.5605 763.495C43.7054 762.895 43.9157 762.391 44.1912 761.982C44.4668 761.57 44.7992 761.258 45.1884 761.044C45.5804 760.831 46.0222 760.725 46.5137 760.725C47.0023 760.725 47.437 760.823 47.8176 761.019C48.2012 761.212 48.5137 761.482 48.7551 761.829C48.9966 762.175 49.1529 762.574 49.2239 763.026H48.1841C48.0875 762.634 47.9 762.309 47.6216 762.05C47.3432 761.792 46.9739 761.662 46.5137 761.662C45.8375 761.662 45.3049 761.956 44.9157 762.544C44.5293 763.133 44.3347 763.958 44.3319 765.02H44.4C44.5591 764.779 44.748 764.573 44.9668 764.402C45.1884 764.229 45.4327 764.096 45.6998 764.002C45.9668 763.908 46.2495 763.861 46.5478 763.861C47.0478 763.861 47.5051 763.986 47.9199 764.236C48.3347 764.483 48.6671 764.826 48.9171 765.263C49.1671 765.698 49.2921 766.196 49.2921 766.759C49.2921 767.299 49.1713 767.793 48.9299 768.242C48.6884 768.688 48.3489 769.043 47.9114 769.307C47.4767 769.569 46.9654 769.696 46.3773 769.691ZM46.3773 768.753C46.7353 768.753 47.0563 768.664 47.3404 768.485C47.6273 768.306 47.8532 768.066 48.0179 767.765C48.1855 767.463 48.2694 767.128 48.2694 766.759C48.2694 766.398 48.1884 766.07 48.0265 765.775C47.8674 765.476 47.6472 765.239 47.3659 765.063C47.0875 764.887 46.7694 764.799 46.4114 764.799C46.1415 764.799 45.8901 764.853 45.6571 764.961C45.4242 765.066 45.2196 765.211 45.0435 765.395C44.8702 765.58 44.7338 765.792 44.6344 766.03C44.535 766.266 44.4853 766.515 44.4853 766.776C44.4853 767.123 44.5662 767.446 44.7282 767.748C44.8929 768.049 45.1174 768.292 45.4015 768.476C45.6884 768.661 46.0137 768.753 46.3773 768.753Z" fill="white"/>
<rect width="85" height="545" transform="translate(0 800)" fill="#DE3831"/>
<rect x="0.5" y="800.5" width="84" height="544" stroke="black"/>
<rect width="85" height="24" transform="translate(0 777)" fill="#007A4D"/>
<rect x="0.5" y="777.5" width="84" height="23" stroke="black"/>
<path d="M39.1042 793.548C38.5417 793.548 38.0403 793.451 37.6 793.258C37.1625 793.065 36.8145 792.796 36.5559 792.453C36.3002 792.106 36.161 791.704 36.1383 791.247H37.2122C37.2349 791.528 37.3315 791.771 37.502 791.975C37.6724 792.177 37.8954 792.333 38.171 792.444C38.4466 792.555 38.752 792.61 39.0872 792.61C39.4622 792.61 39.7946 792.545 40.0843 792.414C40.3741 792.284 40.6014 792.102 40.7662 791.869C40.9309 791.636 41.0133 791.366 41.0133 791.059C41.0133 790.738 40.9338 790.456 40.7747 790.211C40.6156 789.964 40.3826 789.771 40.0758 789.632C39.769 789.492 39.394 789.423 38.9508 789.423H38.252V788.485H38.9508C39.2974 788.485 39.6014 788.423 39.8627 788.298C40.127 788.173 40.3329 787.997 40.4806 787.769C40.6312 787.542 40.7065 787.275 40.7065 786.968C40.7065 786.673 40.6412 786.416 40.5105 786.197C40.3798 785.978 40.1951 785.808 39.9565 785.686C39.7207 785.564 39.4423 785.502 39.1213 785.502C38.8201 785.502 38.536 785.558 38.269 785.669C38.0048 785.777 37.7889 785.934 37.6213 786.142C37.4537 786.346 37.3627 786.593 37.3485 786.883H36.3258C36.3429 786.426 36.4806 786.025 36.7392 785.681C36.9977 785.335 37.3358 785.065 37.7534 784.872C38.1738 784.679 38.6355 784.582 39.1383 784.582C39.6781 784.582 40.1412 784.691 40.5275 784.91C40.9139 785.126 41.2108 785.412 41.4181 785.767C41.6255 786.122 41.7292 786.505 41.7292 786.917C41.7292 787.409 41.6 787.828 41.3414 788.174C41.0858 788.521 40.7377 788.761 40.2974 788.894V788.963C40.8485 789.054 41.2789 789.288 41.5886 789.666C41.8983 790.041 42.0531 790.505 42.0531 791.059C42.0531 791.534 41.9238 791.96 41.6653 792.338C41.4096 792.713 41.0602 793.008 40.617 793.224C40.1738 793.44 39.6696 793.548 39.1042 793.548ZM44.0687 793.429L47.9721 785.707V785.639H43.4721V784.701H49.063V785.69L45.1767 793.429H44.0687Z" fill="white"/>
</svg>
