<svg width="85" height="26" viewBox="0 0 85 26" fill="none" xmlns="http://www.w3.org/2000/svg">
<rect width="85" height="26" fill="#007A4D"/>
<rect x="0.5" y="0.5" width="84" height="25" stroke="black"/>
<path d="M13.3491 11.1688C13.2979 10.737 13.0906 10.4018 12.7269 10.1632C12.3633 9.92452 11.9173 9.8052 11.3888 9.8052C11.0025 9.8052 10.6644 9.8677 10.3746 9.9927C10.0877 10.1177 9.86328 10.2896 9.70135 10.5083C9.54226 10.7271 9.46271 10.9757 9.46271 11.2541C9.46271 11.487 9.51811 11.6873 9.62891 11.8549C9.74254 12.0197 9.88743 12.1575 10.0636 12.2683C10.2397 12.3762 10.4244 12.4657 10.6175 12.5367C10.8107 12.6049 10.9883 12.6603 11.1502 12.7029L12.0366 12.9416C12.2638 13.0012 12.5167 13.0836 12.7951 13.1887C13.0763 13.2938 13.3448 13.4373 13.6005 13.6191C13.859 13.7981 14.0721 14.0282 14.2397 14.3095C14.4073 14.5907 14.4911 14.9359 14.4911 15.345C14.4911 15.8166 14.3675 16.2427 14.1204 16.6234C13.8761 17.0041 13.5181 17.3066 13.0465 17.5311C12.5778 17.7555 12.0082 17.8677 11.3377 17.8677C10.7127 17.8677 10.1715 17.7669 9.71413 17.5651C9.25959 17.3634 8.90163 17.0822 8.64027 16.7214C8.38175 16.3606 8.23544 15.9416 8.20135 15.4643H9.29226C9.32067 15.7938 9.43146 16.0666 9.62464 16.2825C9.82067 16.4955 10.0678 16.6546 10.3661 16.7597C10.6673 16.862 10.9911 16.9132 11.3377 16.9132C11.7411 16.9132 12.1033 16.8478 12.4244 16.7171C12.7454 16.5836 12.9996 16.399 13.1871 16.1632C13.3746 15.9245 13.4684 15.6461 13.4684 15.3279C13.4684 15.0382 13.3874 14.8024 13.2255 14.6205C13.0636 14.4387 12.8505 14.291 12.5863 14.1774C12.3221 14.0637 12.0366 13.9643 11.7298 13.8791L10.6559 13.5722C9.97408 13.3762 9.4343 13.0964 9.03658 12.7328C8.63885 12.3691 8.43999 11.8933 8.43999 11.3052C8.43999 10.8166 8.57209 10.3904 8.83629 10.0268C9.10334 9.66032 9.46129 9.37623 9.91016 9.17452C10.3619 8.96998 10.8661 8.8677 11.4229 8.8677C11.9854 8.8677 12.4854 8.96856 12.9229 9.17026C13.3604 9.36912 13.707 9.64185 13.9627 9.98844C14.2212 10.335 14.3576 10.7285 14.3718 11.1688H13.3491ZM18.7514 17.8507C18.1605 17.8507 17.642 17.71 17.196 17.4288C16.7528 17.1475 16.4062 16.7541 16.1562 16.2484C15.9091 15.7427 15.7855 15.1518 15.7855 14.4757C15.7855 13.7938 15.9091 13.1987 16.1562 12.6901C16.4062 12.1816 16.7528 11.7867 17.196 11.5055C17.642 11.2242 18.1605 11.0836 18.7514 11.0836C19.3423 11.0836 19.8594 11.2242 20.3026 11.5055C20.7486 11.7867 21.0952 12.1816 21.3423 12.6901C21.5923 13.1987 21.7173 13.7938 21.7173 14.4757C21.7173 15.1518 21.5923 15.7427 21.3423 16.2484C21.0952 16.7541 20.7486 17.1475 20.3026 17.4288C19.8594 17.71 19.3423 17.8507 18.7514 17.8507ZM18.7514 16.9472C19.2003 16.9472 19.5696 16.8322 19.8594 16.6021C20.1491 16.372 20.3636 16.0694 20.5028 15.6944C20.642 15.3194 20.7116 14.9132 20.7116 14.4757C20.7116 14.0382 20.642 13.6305 20.5028 13.2526C20.3636 12.8748 20.1491 12.5694 19.8594 12.3365C19.5696 12.1035 19.2003 11.987 18.7514 11.987C18.3026 11.987 17.9332 12.1035 17.6435 12.3365C17.3537 12.5694 17.1392 12.8748 17 13.2526C16.8608 13.6305 16.7912 14.0382 16.7912 14.4757C16.7912 14.9132 16.8608 15.3194 17 15.6944C17.1392 16.0694 17.3537 16.372 17.6435 16.6021C17.9332 16.8322 18.3026 16.9472 18.7514 16.9472ZM27.3775 15.0382V11.1688H28.3832V17.7143H27.3775V16.6063H27.3093C27.1559 16.9387 26.9173 17.2214 26.5934 17.4544C26.2695 17.6845 25.8604 17.7995 25.3661 17.7995C24.957 17.7995 24.5934 17.71 24.2752 17.5311C23.957 17.3492 23.707 17.0765 23.5252 16.7129C23.3434 16.3464 23.2525 15.8847 23.2525 15.3279V11.1688H24.2582V15.2597C24.2582 15.737 24.3917 16.1177 24.6587 16.4018C24.9286 16.6859 25.2724 16.8279 25.69 16.8279C25.94 16.8279 26.1942 16.764 26.4528 16.6362C26.7141 16.5083 26.9329 16.3123 27.109 16.0481C27.288 15.7839 27.3775 15.4472 27.3775 15.0382ZM33.0717 11.1688V12.0211H29.6797V11.1688H33.0717ZM30.6683 9.60066H31.674V15.8393C31.674 16.1234 31.7152 16.3365 31.7976 16.4785C31.8828 16.6177 31.9908 16.7115 32.1214 16.7597C32.255 16.8052 32.3956 16.8279 32.5433 16.8279C32.6541 16.8279 32.745 16.8222 32.8161 16.8109C32.8871 16.7967 32.9439 16.7853 32.9865 16.7768L33.1911 17.6802C33.1229 17.7058 33.0277 17.7313 32.9055 17.7569C32.7834 17.7853 32.6286 17.7995 32.4411 17.7995C32.157 17.7995 31.8786 17.7384 31.6058 17.6163C31.3359 17.4941 31.1115 17.308 30.9325 17.058C30.7564 16.808 30.6683 16.4927 30.6683 16.112V9.60066ZM35.7308 13.7768V17.7143H34.7251V8.98702H35.7308V12.1916H35.8161C35.9695 11.8535 36.1996 11.585 36.5064 11.3862C36.8161 11.1845 37.228 11.0836 37.7422 11.0836C38.1882 11.0836 38.5788 11.1731 38.9141 11.3521C39.2493 11.5282 39.5092 11.7995 39.6939 12.166C39.8814 12.5296 39.9751 12.9927 39.9751 13.5552V17.7143H38.9695V13.6234C38.9695 13.1035 38.8345 12.7015 38.5646 12.4174C38.2976 12.1305 37.9268 11.987 37.4524 11.987C37.1229 11.987 36.8274 12.0566 36.5661 12.1958C36.3075 12.335 36.103 12.5382 35.9524 12.8052C35.8047 13.0722 35.7308 13.3961 35.7308 13.7768ZM45.6843 17.7143H44.5763L47.7809 8.98702H48.8718L52.0763 17.7143H50.9684L48.3604 10.3677H48.2923L45.6843 17.7143ZM46.0934 14.3052H50.5593V15.2427H46.0934V14.3052ZM56.2141 11.1688V12.0211H52.6857V11.1688H56.2141ZM53.7425 17.7143V10.2654C53.7425 9.89043 53.8306 9.57793 54.0067 9.32793C54.1829 9.07793 54.4116 8.89043 54.6928 8.76543C54.9741 8.64043 55.271 8.57793 55.5835 8.57793C55.8306 8.57793 56.0323 8.59782 56.1886 8.63759C56.3448 8.67736 56.4613 8.71429 56.538 8.74838L56.2482 9.6177C56.1971 9.60066 56.1261 9.57935 56.0352 9.55378C55.9471 9.52821 55.8306 9.51543 55.6857 9.51543C55.3533 9.51543 55.1133 9.59924 54.9656 9.76685C54.8207 9.93446 54.7482 10.1802 54.7482 10.5041V17.7143H53.7425ZM57.6236 17.7143V11.1688H58.5952V12.1575H58.6634C58.7827 11.8336 58.9986 11.5708 59.3111 11.3691C59.6236 11.1674 59.9759 11.0666 60.3679 11.0666C60.4418 11.0666 60.5341 11.068 60.6449 11.0708C60.7557 11.0737 60.8395 11.0779 60.8963 11.0836V12.1063C60.8622 12.0978 60.7841 12.085 60.6619 12.068C60.5426 12.0481 60.4162 12.0382 60.2827 12.0382C59.9645 12.0382 59.6804 12.1049 59.4304 12.2384C59.1832 12.3691 58.9872 12.5509 58.8423 12.7839C58.7003 13.014 58.6293 13.2768 58.6293 13.5722V17.7143H57.6236ZM62.0884 17.7143V11.1688H63.0941V17.7143H62.0884ZM62.5998 10.0779C62.4038 10.0779 62.2347 10.0112 62.0927 9.87765C61.9535 9.74412 61.8839 9.58361 61.8839 9.39611C61.8839 9.20861 61.9535 9.0481 62.0927 8.91458C62.2347 8.78106 62.4038 8.71429 62.5998 8.71429C62.7958 8.71429 62.9634 8.78106 63.1026 8.91458C63.2447 9.0481 63.3157 9.20861 63.3157 9.39611C63.3157 9.58361 63.2447 9.74412 63.1026 9.87765C62.9634 10.0112 62.7958 10.0779 62.5998 10.0779ZM67.5952 17.8507C66.9815 17.8507 66.4531 17.7058 66.0099 17.416C65.5668 17.1262 65.2259 16.7271 64.9872 16.2186C64.7486 15.71 64.6293 15.1291 64.6293 14.4757C64.6293 13.8109 64.7514 13.2242 64.9957 12.7157C65.2429 12.2044 65.5866 11.8052 66.027 11.5183C66.4702 11.2285 66.9872 11.0836 67.5781 11.0836C68.0384 11.0836 68.4531 11.1688 68.8224 11.3393C69.1918 11.5097 69.4943 11.7484 69.7301 12.0552C69.9659 12.362 70.1122 12.72 70.169 13.1291H69.1634C69.0866 12.8308 68.9162 12.5666 68.652 12.3365C68.3906 12.1035 68.0384 11.987 67.5952 11.987C67.2031 11.987 66.8594 12.0893 66.5639 12.2938C66.2713 12.4955 66.0426 12.7811 65.8778 13.1504C65.7159 13.5169 65.6349 13.9472 65.6349 14.4416C65.6349 14.9472 65.7145 15.3876 65.8736 15.7626C66.0355 16.1376 66.2628 16.4288 66.5554 16.6362C66.8509 16.8436 67.1974 16.9472 67.5952 16.9472C67.8565 16.9472 68.0938 16.9018 68.3068 16.8109C68.5199 16.72 68.7003 16.5893 68.848 16.4188C68.9957 16.2484 69.1009 16.0438 69.1634 15.8052H70.169C70.1122 16.1916 69.9716 16.5396 69.7472 16.8492C69.5256 17.1561 69.2315 17.4004 68.8651 17.5822C68.5014 17.7612 68.0781 17.8507 67.5952 17.8507ZM73.5653 17.8677C73.1506 17.8677 72.7741 17.7896 72.4361 17.6333C72.098 17.4742 71.8295 17.2455 71.6307 16.9472C71.4318 16.6461 71.3324 16.2825 71.3324 15.8563C71.3324 15.4813 71.4063 15.1774 71.554 14.9444C71.7017 14.7086 71.8991 14.524 72.1463 14.3904C72.3935 14.2569 72.6662 14.1575 72.9645 14.0921C73.2656 14.024 73.5682 13.97 73.8722 13.9302C74.2699 13.8791 74.5923 13.8407 74.8395 13.8151C75.0895 13.7867 75.2713 13.7399 75.3849 13.6745C75.5014 13.6092 75.5597 13.4955 75.5597 13.3336V13.2995C75.5597 12.8791 75.4446 12.5524 75.2145 12.3194C74.9872 12.0865 74.642 11.97 74.179 11.97C73.6989 11.97 73.3224 12.0751 73.0497 12.2853C72.777 12.4955 72.5852 12.72 72.4744 12.9586L71.5199 12.6177C71.6903 12.22 71.9176 11.9103 72.2017 11.6887C72.4886 11.4643 72.8011 11.308 73.1392 11.22C73.4801 11.1291 73.8153 11.0836 74.1449 11.0836C74.3551 11.0836 74.5966 11.1092 74.8693 11.1603C75.1449 11.2086 75.4105 11.3095 75.6662 11.4629C75.9247 11.6163 76.1392 11.8478 76.3097 12.1575C76.4801 12.4671 76.5653 12.8819 76.5653 13.4018V17.7143H75.5597V16.8279H75.5085C75.4403 16.97 75.3267 17.122 75.1676 17.2839C75.0085 17.4458 74.7969 17.5836 74.5327 17.6972C74.2685 17.8109 73.946 17.8677 73.5653 17.8677ZM73.7188 16.9643C74.1165 16.9643 74.4517 16.8862 74.7244 16.7299C75 16.5737 75.2074 16.372 75.3466 16.1248C75.4886 15.8776 75.5597 15.6177 75.5597 15.345V14.4245C75.517 14.4757 75.4233 14.5225 75.2784 14.5651C75.1364 14.6049 74.9716 14.6404 74.7841 14.6717C74.5994 14.7001 74.419 14.7257 74.2429 14.7484C74.0696 14.7683 73.929 14.7853 73.821 14.7995C73.5597 14.8336 73.3153 14.889 73.0881 14.9657C72.8636 15.0396 72.6818 15.1518 72.5426 15.3024C72.4063 15.4501 72.3381 15.6518 72.3381 15.9075C72.3381 16.2569 72.4673 16.5211 72.7259 16.7001C72.9872 16.8762 73.3182 16.9643 73.7188 16.9643Z" fill="white"/>
</svg>
