<svg width="85" height="21" viewBox="0 0 85 21" fill="none" xmlns="http://www.w3.org/2000/svg">
<rect width="85" height="21" fill="#0081AA"/>
<rect x="0.5" y="0.5" width="84" height="20" stroke="black"/>
<path d="M16.7971 6.27273H18.0073L20.4277 10.3466H20.53L22.9505 6.27273H24.1607L21.0073 11.4034V15H19.9505V11.4034L16.7971 6.27273ZM27.1245 15.1364C26.5336 15.1364 26.0151 14.9957 25.5691 14.7145C25.1259 14.4332 24.7793 14.0398 24.5293 13.5341C24.2821 13.0284 24.1586 12.4375 24.1586 11.7614C24.1586 11.0795 24.2821 10.4844 24.5293 9.97585C24.7793 9.46733 25.1259 9.07244 25.5691 8.79119C26.0151 8.50994 26.5336 8.36932 27.1245 8.36932C27.7154 8.36932 28.2324 8.50994 28.6756 8.79119C29.1216 9.07244 29.4682 9.46733 29.7154 9.97585C29.9654 10.4844 30.0904 11.0795 30.0904 11.7614C30.0904 12.4375 29.9654 13.0284 29.7154 13.5341C29.4682 14.0398 29.1216 14.4332 28.6756 14.7145C28.2324 14.9957 27.7154 15.1364 27.1245 15.1364ZM27.1245 14.233C27.5733 14.233 27.9426 14.1179 28.2324 13.8878C28.5222 13.6577 28.7367 13.3551 28.8759 12.9801C29.0151 12.6051 29.0847 12.1989 29.0847 11.7614C29.0847 11.3239 29.0151 10.9162 28.8759 10.5384C28.7367 10.1605 28.5222 9.85511 28.2324 9.62216C27.9426 9.3892 27.5733 9.27273 27.1245 9.27273C26.6756 9.27273 26.3063 9.3892 26.0165 9.62216C25.7267 9.85511 25.5123 10.1605 25.373 10.5384C25.2338 10.9162 25.1642 11.3239 25.1642 11.7614C25.1642 12.1989 25.2338 12.6051 25.373 12.9801C25.5123 13.3551 25.7267 13.6577 26.0165 13.8878C26.3063 14.1179 26.6756 14.233 27.1245 14.233ZM36.2619 9.92045L35.3585 10.1761C35.3017 10.0256 35.2179 9.87926 35.1071 9.73722C34.9991 9.59233 34.8514 9.47301 34.6639 9.37926C34.4764 9.28551 34.2363 9.23864 33.9437 9.23864C33.5431 9.23864 33.2093 9.33097 32.9423 9.51562C32.6781 9.69744 32.546 9.92898 32.546 10.2102C32.546 10.4602 32.6369 10.6577 32.8187 10.8026C33.0005 10.9474 33.2846 11.0682 33.671 11.1648L34.6426 11.4034C35.2278 11.5455 35.6639 11.7628 35.9508 12.0554C36.2377 12.3452 36.3812 12.7187 36.3812 13.1761C36.3812 13.5511 36.2733 13.8864 36.0574 14.1818C35.8443 14.4773 35.546 14.7102 35.1625 14.8807C34.7789 15.0511 34.3329 15.1364 33.8244 15.1364C33.1568 15.1364 32.6042 14.9915 32.1667 14.7017C31.7292 14.4119 31.4522 13.9886 31.3358 13.4318L32.2903 13.1932C32.3812 13.5455 32.5531 13.8097 32.8059 13.9858C33.0616 14.1619 33.3954 14.25 33.8074 14.25C34.2761 14.25 34.6483 14.1506 34.9238 13.9517C35.2022 13.75 35.3414 13.5085 35.3414 13.2273C35.3414 13 35.2619 12.8097 35.1028 12.6562C34.9437 12.5 34.6994 12.3835 34.3699 12.3068L33.2789 12.0511C32.6795 11.9091 32.2392 11.6889 31.9579 11.3906C31.6795 11.0895 31.5403 10.7131 31.5403 10.2614C31.5403 9.89205 31.644 9.56534 31.8514 9.28125C32.0616 8.99716 32.3471 8.77415 32.7079 8.61222C33.0716 8.45028 33.4835 8.36932 33.9437 8.36932C34.5914 8.36932 35.1 8.51136 35.4693 8.79545C35.8414 9.07955 36.1056 9.45455 36.2619 9.92045ZM40.6394 15.1364C40.0087 15.1364 39.4647 14.9972 39.0073 14.7188C38.5527 14.4375 38.2019 14.0455 37.9547 13.5426C37.7104 13.0369 37.5882 12.4489 37.5882 11.7784C37.5882 11.108 37.7104 10.517 37.9547 10.0057C38.2019 9.49148 38.5456 9.09091 38.986 8.80398C39.4292 8.5142 39.9462 8.36932 40.5371 8.36932C40.878 8.36932 41.2147 8.42614 41.5471 8.53977C41.8794 8.65341 42.182 8.83807 42.4547 9.09375C42.7275 9.34659 42.9448 9.68182 43.1067 10.0994C43.2686 10.517 43.3496 11.0312 43.3496 11.642V12.0682H38.3042V11.1989H42.3269C42.3269 10.8295 42.253 10.5 42.1053 10.2102C41.9604 9.92045 41.753 9.69176 41.4831 9.52415C41.2161 9.35653 40.9007 9.27273 40.5371 9.27273C40.1365 9.27273 39.79 9.37216 39.4973 9.57102C39.2076 9.76705 38.9846 10.0227 38.8283 10.3381C38.6721 10.6534 38.5939 10.9915 38.5939 11.3523V11.9318C38.5939 12.4261 38.6792 12.8452 38.8496 13.1889C39.0229 13.5298 39.263 13.7898 39.5698 13.9688C39.8766 14.1449 40.2331 14.233 40.6394 14.233C40.9036 14.233 41.1422 14.196 41.3553 14.1222C41.5712 14.0455 41.7573 13.9318 41.9135 13.7812C42.0698 13.6278 42.1905 13.4375 42.2757 13.2102L43.2473 13.483C43.1451 13.8125 42.9732 14.1023 42.7317 14.3523C42.4902 14.5994 42.1919 14.7926 41.8368 14.9318C41.4817 15.0682 41.0826 15.1364 40.6394 15.1364ZM44.8794 15V8.45455H45.851V9.47727H45.9363C46.0726 9.12784 46.2928 8.85653 46.5968 8.66335C46.9007 8.46733 47.2658 8.36932 47.6919 8.36932C48.1238 8.36932 48.4831 8.46733 48.7701 8.66335C49.0598 8.85653 49.2857 9.12784 49.4476 9.47727H49.5158C49.6834 9.1392 49.9348 8.87074 50.2701 8.67188C50.6053 8.47017 51.0073 8.36932 51.476 8.36932C52.0613 8.36932 52.54 8.55256 52.9121 8.91903C53.2843 9.28267 53.4703 9.84943 53.4703 10.6193V15H52.4647V10.6193C52.4647 10.1364 52.3326 9.79119 52.0684 9.58381C51.8042 9.37642 51.4931 9.27273 51.1351 9.27273C50.6749 9.27273 50.3184 9.41193 50.0655 9.69034C49.8127 9.96591 49.6863 10.3153 49.6863 10.7386V15H48.6635V10.517C48.6635 10.1449 48.5428 9.84517 48.3013 9.6179C48.0598 9.38778 47.7488 9.27273 47.3681 9.27273C47.1067 9.27273 46.8624 9.34233 46.6351 9.48153C46.4107 9.62074 46.2289 9.81392 46.0897 10.0611C45.9533 10.3054 45.8851 10.5881 45.8851 10.9091V15H44.8794ZM55.3091 15V8.45455H56.3148V15H55.3091ZM55.8205 7.36364C55.6245 7.36364 55.4554 7.29688 55.3134 7.16335C55.1742 7.02983 55.1046 6.86932 55.1046 6.68182C55.1046 6.49432 55.1742 6.33381 55.3134 6.20028C55.4554 6.06676 55.6245 6 55.8205 6C56.0165 6 56.1841 6.06676 56.3233 6.20028C56.4654 6.33381 56.5364 6.49432 56.5364 6.68182C56.5364 6.86932 56.4654 7.02983 56.3233 7.16335C56.1841 7.29688 56.0165 7.36364 55.8205 7.36364ZM61.0034 8.45455V9.30682H57.6113V8.45455H61.0034ZM58.6 6.88636H59.6056V13.125C59.6056 13.4091 59.6468 13.6222 59.7292 13.7642C59.8145 13.9034 59.9224 13.9972 60.0531 14.0455C60.1866 14.0909 60.3272 14.1136 60.475 14.1136C60.5858 14.1136 60.6767 14.108 60.7477 14.0966C60.8187 14.0824 60.8755 14.071 60.9181 14.0625L61.1227 14.9659C61.0545 14.9915 60.9593 15.017 60.8372 15.0426C60.715 15.071 60.5602 15.0852 60.3727 15.0852C60.0886 15.0852 59.8102 15.0241 59.5375 14.902C59.2676 14.7798 59.0431 14.5938 58.8642 14.3438C58.688 14.0938 58.6 13.7784 58.6 13.3977V6.88636ZM65.1902 15.1364C64.5595 15.1364 64.0154 14.9972 63.5581 14.7188C63.1035 14.4375 62.7527 14.0455 62.5055 13.5426C62.2612 13.0369 62.139 12.4489 62.139 11.7784C62.139 11.108 62.2612 10.517 62.5055 10.0057C62.7527 9.49148 63.0964 9.09091 63.5368 8.80398C63.9799 8.5142 64.497 8.36932 65.0879 8.36932C65.4288 8.36932 65.7654 8.42614 66.0978 8.53977C66.4302 8.65341 66.7328 8.83807 67.0055 9.09375C67.2782 9.34659 67.4956 9.68182 67.6575 10.0994C67.8194 10.517 67.9004 11.0312 67.9004 11.642V12.0682H62.8549V11.1989H66.8777C66.8777 10.8295 66.8038 10.5 66.6561 10.2102C66.5112 9.92045 66.3038 9.69176 66.0339 9.52415C65.7669 9.35653 65.4515 9.27273 65.0879 9.27273C64.6873 9.27273 64.3407 9.37216 64.0481 9.57102C63.7583 9.76705 63.5353 10.0227 63.3791 10.3381C63.2228 10.6534 63.1447 10.9915 63.1447 11.3523V11.9318C63.1447 12.4261 63.2299 12.8452 63.4004 13.1889C63.5737 13.5298 63.8137 13.7898 64.1206 13.9688C64.4274 14.1449 64.7839 14.233 65.1902 14.233C65.4544 14.233 65.693 14.196 65.9061 14.1222C66.122 14.0455 66.3081 13.9318 66.4643 13.7812C66.6206 13.6278 66.7413 13.4375 66.8265 13.2102L67.7981 13.483C67.6958 13.8125 67.524 14.1023 67.2825 14.3523C67.041 14.5994 66.7427 14.7926 66.3876 14.9318C66.0325 15.0682 65.6333 15.1364 65.1902 15.1364Z" fill="white"/>
</svg>
